<?xml version="1.0" encoding="UTF-8"?>
<svg width="480px" height="240px" viewBox="0 0 480 240" version="1.1" xmlns="http://www.w3.org/2000/svg" xmlns:xlink="http://www.w3.org/1999/xlink">
    <title>arizona-state-uninversity</title>
    <g id="arizona-state-uninversity" stroke="none" stroke-width="1" fill="none" fill-rule="evenodd">
        <path d="M289.117626,19.6273292 L289.12573,19.6816936 L353.43011,19.6816936 L353.442407,158.848262 C353.442407,168.674832 359.372076,174.389986 369.609956,174.71396 C376.761864,174.940074 389.655385,171.582886 390.476875,158.434526 L390.476875,19.6273292 L456.493756,19.6273292 L456.493152,193.680829 L456.518346,194.224016 C456.671505,196.55262 457.601986,202.470847 462.897845,208.133852 L469.388095,215.14615 C470.854022,216.747983 471.653425,217.636405 471.653436,217.636405 C472.521273,218.807162 471.920472,219.291737 470.273,219.291737 L408.608075,219.291737 C402.220496,219.291737 397.736526,215.689426 395.527873,210.812957 L392.985499,202.731803 C387.446753,212.454907 374.554651,218.586611 361.425306,219.71385 C323.740658,222.956746 302.376447,214.131976 292.444966,195.358246 C279.28518,215.711509 252.824525,219.241109 220.256548,219.320441 L138.419987,219.319037 L129.205369,182.473932 L70.0867521,182.473932 L61.2549973,219.316267 L0,219.316267 L42.1282224,51.3653688 L42.2472199,50.7673923 C42.7751526,47.8681726 43.8882857,38.2452129 37.2990329,30.7473245 L35.3331917,28.532051 L33.4159713,26.4193204 C31.502016,24.3356729 30.1230652,22.9144575 29.3292923,22.1138936 L28.5367567,21.3278322 C27.6689408,20.1557011 28.2655279,19.6410116 29.9183098,19.6410116 L144.90024,19.6328924 C150.381524,19.6328924 155.935339,23.2909424 157.566065,28.3648075 L164.212619,54.2165386 C175.401744,25.0580745 208.626714,19.6816936 243.805576,19.6816936 L284.544211,19.6273292 L289.117626,19.6273292 Z M126.727855,101.909993 L126.519302,101.93693 C126.039913,102.036188 125.623733,102.383603 125.534548,102.838931 C125.477345,103.116638 125.541513,103.405257 125.708933,103.648941 C125.884736,103.904889 126.206483,104.107741 126.521243,104.155382 L166.963986,114.532538 C167.04931,114.561182 167.128434,114.604146 167.16935,114.669486 C167.214279,114.738929 167.230466,114.813785 167.223759,114.888684 C167.210087,115.099697 167.009734,115.226297 166.778124,115.208598 L125.034483,119.114456 C124.394343,119.149832 123.824821,119.650839 123.824821,120.258019 C123.824821,120.535748 123.940604,120.805315 124.154371,121.014975 C124.373706,121.243688 124.703536,121.377096 125.027776,121.393442 L166.723715,125.300675 C166.94305,125.314271 167.128333,125.425921 167.148691,125.611074 C167.15959,125.711812 167.133923,125.815278 167.064423,125.896943 C167.022561,125.945959 166.975243,125.974403 166.918094,125.994372 L126.418852,136.379773 C126.096009,136.453297 125.879448,136.61392 125.703644,136.864435 C125.530636,137.104037 125.466446,137.395384 125.521156,137.673113 C125.639476,138.26124 126.310013,138.642414 126.931171,138.593419 L168.850901,135.961161 C169.023387,135.971352 169.165939,136.060658 169.211702,136.210945 C169.240164,136.298087 169.226771,136.415193 169.172083,136.507748 C169.138605,136.564009 169.095935,136.604548 169.043349,136.634194 L131.285943,153.105807 C130.984855,153.231269 130.713605,153.473556 130.586944,153.754056 C130.460261,154.020895 130.460261,154.29858 130.571874,154.565419 C130.798196,155.11802 131.517553,155.390421 132.147095,155.254371 L172.740513,146.159991 C173.099084,146.089173 173.238063,146.18452 173.33207,146.375236 C173.370012,146.440469 173.372807,146.522177 173.341571,146.609426 C173.306123,146.710078 173.225767,146.794578 173.119463,146.835282 L139.104296,168.949611 C138.891475,169.115907 138.748738,169.335341 138.684229,169.570652 C138.605249,169.856736 138.655767,170.158973 138.817898,170.409337 C139.109838,170.866839 139.779464,171.066155 140.308399,170.90781 L178.797518,155.534217 C178.961683,155.491494 179.151752,155.540704 179.25198,155.673413 C179.32565,155.760683 179.356907,155.888658 179.332336,156.002971 C179.327879,156.044799 179.314852,156.091333 179.282853,156.133071 L150.15129,183.108541 C149.927785,183.318201 149.746672,183.644989 149.717952,183.941641 C149.692263,184.238573 149.801103,184.502619 150.005647,184.731246 C150.380939,185.125798 151.082756,185.223386 151.572733,184.984061 L186.391635,163.923545 C186.545683,163.781909 186.81272,163.781909 186.972056,163.923545 C187.122518,164.05871 187.136005,164.150161 187.131242,164.200888 L187.10798,164.309097 C187.079494,164.386773 187.028163,164.4572 187.028163,164.4572 L163.562762,195.592457 C163.379994,195.823876 163.328358,196.039121 163.354327,196.327697 C163.379994,196.632726 163.550488,196.904827 163.808044,197.08998 C164.299725,197.47139 165.096945,197.37325 165.521921,196.970361 L195.674455,170.867214 C195.822359,170.769894 196.034892,170.748656 196.173281,170.84234 C196.317849,170.942993 196.384533,171.057285 196.392616,171.163543 C196.397274,171.205371 196.381839,171.267637 196.358133,171.325484 L179.312043,205.569018 C179.170291,205.819403 179.123965,206.126924 179.199033,206.40491 C179.276615,206.704355 179.492038,206.971172 179.786161,207.120905 C180.283957,207.379899 180.966978,207.253812 181.337411,206.876379 L205.399957,177.252295 L206.242365,176.241597 C211.200711,178.517834 216.05802,179.977166 219.942608,180.35022 C231.652156,181.474689 242.601288,178.849905 248.510621,173.488861 C251.579008,170.697934 253.136342,167.359669 253.136342,163.56138 C253.136342,150.508281 239.781781,144.775113 223.330353,139.027513 L214.615221,136.022893 L212.66673,135.343794 L209.766638,134.313414 L207.877146,133.62497 C191.811547,127.703145 175.720186,119.920313 167.226554,104.557025 L167.16935,104.448082 L126.939533,101.915896 L126.727855,101.909993 Z M298.576386,183.201117 L298.448328,183.614875 C297.897744,185.349401 297.266826,187.048487 296.578705,188.657509 L296.510602,188.807242 L306.00595,197.06545 C306.454358,197.465826 307.201081,197.509344 307.701124,197.128192 C307.957305,196.932171 308.112471,196.6489 308.138397,196.346663 C308.167138,196.055295 308.071713,195.799347 307.893093,195.554546 L298.576386,183.201117 Z M301.707264,164.942077 L301.677405,165.415783 C301.531431,167.58742 301.315593,169.713912 301.036947,171.769844 L300.791725,173.442594 L319.998833,185.061118 C320.478757,185.292872 321.12645,185.169036 321.500748,184.77225 C321.714494,184.551699 321.812692,184.251976 321.792335,183.947247 C321.771955,183.66954 321.62743,183.399931 321.402506,183.201139 L301.707264,164.942077 Z M301.25215,148.735951 L301.507594,150.592051 C301.785306,152.881016 301.925202,155.250934 301.925202,157.671985 L301.913206,159.224152 L331.071121,170.902311 C331.629766,171.158259 332.372318,170.967544 332.701869,170.461231 C332.863978,170.207774 332.911702,169.900253 332.836913,169.616983 C332.756536,169.328386 332.568501,169.102272 332.297251,168.917141 L301.25215,148.735951 Z M290.230059,33.6903681 L264.890712,64.8176775 C257.91738,61.4236523 246.259468,59.4156286 240.847684,59.4156286 L239.372383,59.3880534 C228.791738,59.2670218 220.906393,61.4498129 216.523948,65.7215953 C213.910418,68.2660671 212.587466,71.552459 212.587466,75.4870779 C212.587466,80.8985992 215.647748,85.3311966 222.201371,89.4386387 C227.139817,92.5294482 233.693765,95.1944948 240.788247,97.90128 L249.504394,101.204063 L252.686031,102.434653 C261.75358,105.986275 271.201886,110.122888 279.272111,115.683722 C290.945395,123.722271 297.941574,133.508252 300.65066,145.588207 L300.883002,146.682735 L339.501053,155.32768 C340.104648,155.482976 340.728558,155.172663 340.954857,154.622554 C341.066492,154.350152 341.059785,154.047916 340.931705,153.783869 C340.79666,153.511747 340.563675,153.339997 340.258631,153.193057 L302.516673,136.70205 C302.465767,136.672604 302.422171,136.630252 302.385884,136.575794 C302.332572,136.48049 302.317782,136.3607 302.349038,136.262689 C302.402072,136.077537 302.625598,135.968615 302.844912,136.023065 L344.642983,138.6669 C345.291744,138.724079 345.896715,138.323853 346.013917,137.735704 C346.06695,137.452541 346.006973,137.169356 345.835341,136.927026 C345.659516,136.668371 345.388309,136.507726 345.054567,136.426023 L304.759442,126.090258 C304.64755,126.076661 304.546814,126.033079 304.482925,125.951415 C304.421529,125.875163 304.395582,125.793498 304.402268,125.700901 C304.418735,125.526638 304.601245,125.336051 304.83423,125.360559 L346.517895,121.453327 C346.850497,121.434274 347.171965,121.303572 347.391321,121.083022 C347.60784,120.867927 347.722527,120.595654 347.722527,120.317925 C347.722527,120.040197 347.607861,119.767945 347.391343,119.558306 C347.171986,119.337756 346.874811,119.207053 346.54109,119.179839 L304.689865,115.261986 C304.538288,115.228879 304.424762,115.109505 304.410695,114.952671 C304.398398,114.84783 304.431074,114.747091 304.492427,114.669486 C304.524242,114.636809 304.566224,114.599301 304.624651,114.575101 L345.229615,104.172511 C345.477433,104.084815 345.704793,103.914688 345.847637,103.708847 C346.013938,103.466494 346.082041,103.180604 346.023419,102.900168 C345.904841,102.313416 345.275299,101.934927 344.607556,101.98259 L302.783817,104.610079 C302.572565,104.661802 302.369439,104.556982 302.312214,104.363668 C302.283773,104.269738 302.294629,104.162169 302.344889,104.075049 C302.365899,104.038749 302.399568,103.997007 302.451509,103.964735 L340.449569,87.3965369 C340.671343,87.2761636 340.852389,87.0714837 340.954836,86.8493179 C341.080142,86.5797085 341.09102,86.2827772 340.977988,86.0173347 C340.753107,85.4605455 340.01335,85.2101601 339.402811,85.3557046 L298.703111,94.4349846 C298.491859,94.5262076 298.212526,94.4744852 298.130773,94.3097382 C298.091154,94.2321331 298.073569,94.1136957 298.114306,94.0265752 C298.151152,93.9462422 298.223404,93.8768208 298.31324,93.8142083 L332.302818,71.7336807 C332.573768,71.571683 332.790587,71.306262 332.86817,71.0121016 C332.939046,70.7288312 332.895536,70.4198929 332.736178,70.1720206 C332.409143,69.6629157 331.666612,69.4872572 331.075012,69.7446019 L292.70392,85.059074 C292.515842,85.1775759 292.289542,85.1488579 292.167009,84.9924449 C292.100325,84.9065702 292.074378,84.7989584 292.090543,84.6941174 C292.097064,84.6560129 292.11313,84.6076175 292.148173,84.5634797 L321.155985,57.7007629 L321.551958,57.3202821 C321.703809,57.1400626 321.815109,56.9118861 321.835866,56.6765749 C321.863232,56.3757343 321.75551,56.0801992 321.547074,55.8529471 C321.174,55.4546712 320.564149,55.3308904 320.094401,55.5636558 L284.987799,76.7545776 C284.843511,76.8906496 284.592661,76.8959335 284.42105,76.7448259 C284.352947,76.6795929 284.311952,76.6129424 284.311952,76.52986 C284.311952,76.4453815 284.347379,76.3391444 284.414364,76.2697229 L307.913516,45.1004429 C308.092113,44.8773793 308.207918,44.5709756 308.192849,44.2768151 C308.17664,43.9706691 308.00505,43.6818141 307.751406,43.4941915 C307.304687,43.1576235 306.603748,43.1739924 306.169142,43.4898044 L275.820905,69.7582843 C275.68586,69.9255659 275.443351,70.0072735 275.263657,69.891564 C275.162621,69.8318942 275.098732,69.7635897 275.082265,69.6629372 C275.07416,69.6166491 275.07416,69.5104334 275.119111,69.4178572 L292.322481,34.8633691 C292.408022,34.6508481 292.420476,34.4042405 292.360439,34.1820747 C292.278664,33.8784418 292.066037,33.6157917 291.770538,33.4660802 C291.271481,33.2095684 290.596031,33.3132402 290.230059,33.6903681 Z M99.8716725,64.4053159 L79.4581698,146.375236 L120.397906,146.375236 L99.8716725,64.4053159 Z M130.592232,85.9535194 C130.477825,86.2231288 130.488702,86.5197809 130.612891,86.7894119 C130.740949,87.0657229 130.988746,87.2820635 131.288716,87.3802244 L166.231776,102.657859 L165.971704,102.111939 C164.694716,99.4233509 163.658946,96.5335728 162.884009,93.509228 L162.536685,92.063465 L132.106057,85.2835338 C131.491584,85.1229322 130.815759,85.3967302 130.592232,85.9535194 Z M138.845264,70.1148854 C138.684251,70.3585692 138.635431,70.6677653 138.710219,70.9507779 C138.774487,71.1894399 138.917355,71.4009793 139.113508,71.5561321 L161.536576,86.1414427 L161.487477,85.6758121 C161.243571,83.3873104 161.122478,81.0129125 161.122478,78.6167775 L161.13198,77.929501 L140.493854,69.6765766 C139.927126,69.4301005 139.17232,69.6029667 138.845264,70.1148854 Z M150.043568,55.7958119 C149.833993,56.0177586 149.726293,56.3224869 149.75224,56.6180435 C149.780702,56.9160917 149.948422,57.192682 150.167735,57.3953832 L161.766788,68.1380928 L161.820101,67.7120703 C161.997791,66.3919568 162.220838,65.0716741 162.480999,63.7646517 L162.787255,62.3086467 L151.745471,55.6363273 C151.218061,55.2866855 150.46605,55.3505438 150.043568,55.7958119 Z M472.050374,19.6273292 C476.431174,19.6273292 480,23.1939932 480,27.5769444 C480,31.9598955 476.431174,35.5279503 472.050374,35.5279503 C467.667948,35.5279503 464.099379,31.9598955 464.099379,27.5769444 C464.099379,23.1939932 467.667948,19.6273292 472.050374,19.6273292 Z M472.070654,20.8154826 C468.373259,20.8154826 465.618033,23.7664276 465.618033,27.5769444 C465.618033,31.3877606 468.373238,34.3386843 472.070654,34.3386843 C475.726141,34.3386843 478.481346,31.3877393 478.481346,27.5769444 C478.481346,23.7664276 475.726141,20.8154826 472.070654,20.8154826 Z M472.58048,22.9079472 C474.711987,22.9079472 475.772221,23.7664276 475.772221,25.5305886 C475.772221,27.0278532 474.825859,28.1060301 473.373565,28.1060301 L476.014919,32.2245668 L474.409604,32.2245668 L471.807676,28.1060301 L470.530308,28.1060301 L470.530308,32.2245668 L469.011654,32.2245668 L469.011654,22.9079472 L472.58048,22.9079472 Z M472.339151,24.0986039 L470.530308,24.0986039 L470.530308,26.9151165 L472.339151,26.9151165 C473.501,26.9151165 474.253524,26.6737672 474.253524,25.4614575 C474.253524,24.404955 473.307184,24.0986039 472.339151,24.0986039 Z" id="Combined-Shape" fill="#FFFFFF" fill-rule="nonzero"></path>
    </g>
</svg>