<?xml version="1.0" encoding="UTF-8"?>
<svg width="480px" height="108px" viewBox="0 0 480 108" version="1.1" xmlns="http://www.w3.org/2000/svg" xmlns:xlink="http://www.w3.org/1999/xlink">
    <title>aston-martin</title>
    <g id="aston-martin" stroke="none" stroke-width="1" fill="none" fill-rule="evenodd">
        <g id="Aston_Martin_(10)" fill="#FFFFFF" fill-rule="nonzero">
            <path d="M475.802253,8.20543133 C475.720199,8.28748565 472.355987,14.0312876 472.355987,14.0312876 C471.699556,15.0979937 471.289286,15.5903195 468.581506,15.7544282 C468.581506,15.7544282 362.978081,15.7544282 362.978081,15.7544282 C364.126836,13.7851246 365.193537,11.9799297 366.014077,10.3388435 C366.014077,10.2567892 369.788558,3.61038979 376.434927,3.61038979 L473.176527,3.61038979 C474.161174,3.61038979 475.474037,3.77449841 476.212523,4.9232588 C476.294577,5.08736743 476.458684,5.41558468 476.458684,5.98996487 C476.540738,6.48229075 476.37663,7.22077957 475.802253,8.20543133 M462.919784,19.6930352 L459.227356,26.175326 C458.735033,27.1599777 457.914493,28.6369554 455.452875,29.4574985 C453.401526,29.9498244 449.298829,29.6216071 447.903912,29.4574985 L358.054844,23.4675336 C359.203599,21.744393 360.270301,20.1033068 361.254948,18.5442748 L463.658269,18.5442748 C463.412107,18.8724921 463.165946,19.2827636 462.919784,19.6930352 M447.65775,33.9704857 C447.65775,33.9704857 444.129431,40.2066135 443.390945,41.5194826 C443.226837,41.7656455 442.160136,42.8323516 438.877978,42.42208 L352.803392,30.8524218 C353.952147,29.2933899 355.100902,27.8164122 356.167603,26.2573803 L447.575696,32.3293995 C447.739804,32.3293995 448.06802,32.4114538 448.642398,32.4114538 C448.314182,32.9037797 447.985966,33.3961055 447.65775,33.9704857 M418.036277,50.6275113 C414.754119,51.5301088 408.435965,50.545457 406.220509,50.0531311 C406.220509,50.0531311 365.767915,41.7656455 347.059616,37.9090928 C348.372479,36.3500608 349.603288,34.8730832 350.752043,33.3961055 L437.236899,44.9657637 L418.036277,50.6275113 Z M388.743019,59.2432142 C384.558268,60.3919746 379.142708,58.5867797 379.142708,58.5047254 L379.060654,58.5047254 C379.060654,58.5047254 379.060654,58.5047254 379.060654,58.5047254 L339.510653,46.2786327 C341.479947,44.3093292 343.367188,42.3400257 345.090321,40.2886679 L405.810239,52.7609235 C405.974347,52.7609235 407.205156,53.0070864 408.928289,53.2532494 L388.743019,59.2432142 Z M357.808682,68.351243 C355.018848,69.0897318 350.834097,67.5306999 349.43918,66.7922111 C349.43918,66.7922111 338.854221,61.8689523 327.941047,56.7815848 C331.223205,54.0737925 334.2592,51.3660002 337.131088,48.5761535 L378.15806,61.2125178 C378.240114,61.2125178 378.9786,61.4586807 380.127355,61.7868979 L357.808682,68.351243 Z M351.490529,74.5053165 C350.259719,77.5413261 349.02891,80.7414443 340.659408,83.8595082 C337.213142,84.9262143 333.028391,81.8902047 333.028391,81.8081504 C333.028391,81.8081504 323.674242,75.0796967 313.007229,67.4486456 C317.356088,64.7408532 321.540839,61.7868979 325.643536,58.5867797 L348.290425,69.1717862 C348.454533,69.2538405 350.752043,70.4026009 353.623931,70.976981 C352.14696,72.6180673 351.572583,74.1770993 351.490529,74.5053165 M319.735652,89.8494731 L316.617603,90.6700162 C313.991876,91.3264508 310.709719,88.7007127 309.643017,87.5519523 C309.643017,87.5519523 304.555673,82.218422 297.991357,75.407914 C302.176109,73.5206648 306.278806,71.3872526 310.299449,69.0076775 L331.305258,84.0236169 C331.387312,84.1056712 332.618122,85.0082686 334.341254,85.7467574 C329.66418,87.1416808 319.735652,89.8494731 319.735652,89.8494731 M291.919366,97.4805243 C289.703909,97.8087415 287.160237,94.1983517 286.339697,92.8034284 L280.021544,82.0543133 C285.190942,80.5773357 290.278287,78.7721408 295.201523,76.6387287 L307.591669,89.5212559 C307.673723,89.6033102 309.06864,91.0802878 311.037934,92.1469939 L291.919366,97.4805243 Z M270.913556,103.224326 C269.436585,103.552543 268.123722,103.388435 267.057021,102.732 C264.75951,101.337077 263.938971,98.0549044 263.938971,97.8087415 L260.738867,86.157029 C266.400589,85.4185402 271.898203,84.2697798 277.313764,82.8748565 L284.042187,94.1983517 C284.288349,94.6086233 285.601212,96.9881984 287.652561,98.6292846 L270.913556,103.224326 Z M257.210548,98.9575019 C257.210548,98.9575019 248.184614,90.341799 245.148618,87.469898 C249.415423,87.3057894 253.682228,86.9775721 257.784925,86.4852463 L261.067083,98.3831217 C261.149137,98.7933933 261.805568,101.419131 263.692809,103.470489 C261.231191,102.814055 260.410651,102.075566 257.210548,98.9575019 M241.45619,84.7621057 L241.45619,48.4120449 L247.28202,48.4120449 L257.128494,83.7774539 C251.959095,84.3518341 246.789697,84.6800514 241.45619,84.7621057 M223.076107,83.7774539 L232.92258,48.4120449 L238.74841,48.4120449 L238.74841,84.7621057 C233.33285,84.6800514 228.163452,84.3518341 223.076107,83.7774539 M220.450381,101.255023 C219.137518,102.485837 217.742601,103.142272 216.347684,103.552543 C218.15287,101.501186 218.809302,98.8754476 218.97341,98.465176 L222.255568,86.5673006 C226.440319,87.0596265 230.62507,87.3878437 234.891875,87.469898 C231.527663,90.7520706 220.450381,101.255023 220.450381,101.255023 M216.26563,97.8087415 C216.26563,97.8087415 215.527144,101.255023 213.14758,102.732 C212.080879,103.388435 210.768016,103.552543 209.291045,103.224326 L192.55204,98.6292846 C194.603389,96.9881984 195.998306,94.6086233 196.244468,94.1162974 C196.244468,94.1162974 199.034302,89.3571472 202.890837,82.7928022 C208.306397,84.1877255 213.804011,85.3364859 219.465734,86.0749747 L216.26563,97.8087415 Z M188.203181,97.4805243 L169.084612,92.2290482 C171.053907,91.0802878 172.448824,89.6853645 172.530878,89.6033102 C172.530878,89.6033102 178.028492,83.9415626 184.921023,76.720783 C189.84426,78.8541951 194.931604,80.65939 200.101003,82.1363677 L193.782849,92.8034284 C192.96231,94.1162974 190.418638,97.8087415 188.203181,97.4805243 M163.586998,90.7520706 L145.863346,85.9108661 C147.668533,85.1723773 148.817288,84.2697798 148.981396,84.1877255 C148.981396,84.1877255 158.909923,77.0490002 169.987206,69.1717862 C174.007849,71.5513612 178.110546,73.6027191 182.295297,75.5720226 L170.643637,87.716061 C169.494882,88.7007127 166.212724,91.3264508 163.586998,90.7520706 M139.545193,83.9415626 C131.17569,80.7414443 129.862827,77.6233804 128.714072,74.5873708 C128.632018,74.3412079 127.975587,72.7001216 126.662724,71.1410897 C129.534612,70.5667095 131.832122,69.4179491 131.99623,69.3358948 C131.99623,69.3358948 143.319674,64.0023644 154.643118,58.7508884 C158.745815,61.9510066 163.01262,64.9049619 167.279426,67.6127542 L147.258263,81.972259 C147.176209,81.8902047 142.991458,85.0082686 139.545193,83.9415626 M122.313865,68.351243 C121.493325,68.1050801 112.057122,65.3152334 99.913138,61.7868979 C101.061893,61.540735 101.800379,61.2945721 101.882433,61.2125178 C101.882433,61.2125178 135.11428,50.9557286 142.909404,48.5761535 C145.781292,51.3660002 148.817288,54.0737925 152.099446,56.7815848 L130.683367,66.7922111 C129.28845,67.4486456 125.185753,69.0897318 122.313865,68.351243 M91.4615818,59.2432142 C84.8972663,57.2739107 77.9226811,55.3046072 71.3583657,53.3353037 C73.0814985,53.0891407 74.3943616,52.8429778 74.4764155,52.8429778 C74.4764155,52.8429778 117.308574,44.0631663 135.196334,40.3707222 C136.919466,42.3400257 138.806707,44.3093292 140.776002,46.360687 L101.143947,58.5867797 C100.979839,58.5867797 95.564279,60.3919746 91.4615818,59.2432142 M62.08627,50.6275113 C53.1423902,48.0017733 45.9216432,45.8683612 42.8035933,44.9657637 L129.28845,33.3961055 C130.437205,34.8730832 131.668014,36.3500608 132.980877,37.9090928 L73.819984,50.0531311 C71.6865814,50.545457 65.3684278,51.5301088 62.08627,50.6275113 M41.2445684,42.3400257 C37.9624107,42.7502973 36.9777634,41.6835912 36.7316015,41.4374282 L32.4647965,33.8884314 C32.1365807,33.3140512 31.8083649,32.8217253 31.4801491,32.4114538 C32.0545267,32.3293995 124.036997,26.2573803 124.036997,26.2573803 C125.103699,27.7343579 126.1704,29.2933899 127.401209,30.8524218 L41.2445684,42.3400257 Z M24.6696718,29.4574985 C22.2080535,28.6369554 21.3875141,27.1599777 20.8951904,26.175326 C19.4182195,23.6316422 17.4489248,19.7750895 16.4642775,18.5442748 L118.867599,18.5442748 C119.852246,20.1033068 120.918947,21.744393 122.067703,23.4675336 L32.2186346,29.4574985 C30.8237176,29.6216071 26.7210204,29.9498244 24.6696718,29.4574985 M11.5410409,15.7544282 C9.07942259,15.5903195 8.58709892,15.2621023 7.76655949,14.0312876 C7.76655949,14.0312876 4.5664557,8.69775721 4.32029387,8.28748565 C3.74591626,7.30283389 3.58180837,6.56434507 3.66386232,6.07201919 C3.74591626,4.75915017 4.64850964,3.77449841 6.94602006,3.6924441 L103.687619,3.6924441 C110.251935,3.6924441 114.10847,10.4208978 114.10847,10.4208978 C114.92901,11.9799297 115.995711,13.7851246 117.144466,15.8364825 L11.5410409,15.7544282 L11.5410409,15.7544282 Z M200.921542,3.61038979 C205.434509,3.61038979 209.044883,4.9232588 211.588555,7.46694251 C213.475796,9.35419172 214.788659,11.8158211 215.44509,14.7697764 C215.44509,14.7697764 215.609198,15.2621023 215.773306,15.6723738 L120.426624,15.6723738 C118.949653,13.2927988 116.570088,8.94392015 116.570088,8.94392015 C116.488035,8.77981153 114.846956,5.82585625 111.81096,3.52833547 L200.921542,3.61038979 L200.921542,3.61038979 Z M339.018329,22.2367189 L339.018329,18.5442748 L357.97279,18.5442748 C356.988143,20.0212525 355.921442,21.6623387 354.85474,23.303425 L339.018329,22.2367189 Z M339.018329,28.9651726 L339.018329,25.1086199 L352.885446,26.0112173 C351.900798,27.4061407 350.752043,28.8831183 349.603288,30.3600959 L339.018329,28.9651726 Z M339.018329,36.2680065 L339.018329,31.8370736 L347.551939,32.985834 C346.403184,34.3807573 345.172375,35.8577349 343.941566,37.2526583 C341.726109,36.8423867 340.08503,36.4321151 339.018329,36.2680065 M339.018329,39.1399075 L341.808163,39.7142877 C340.90557,40.6989394 340.002976,41.6835912 339.018329,42.7502973 L339.018329,39.1399075 Z M310.135341,48.3299906 L333.274553,48.3299906 C330.894989,50.7095656 325.315321,55.2225529 325.151213,55.3866615 C319.571545,52.7609235 314.07393,50.2172398 310.135341,48.3299906 M286.093536,48.3299906 L303.488972,48.3299906 L322.689594,57.2739107 C318.751005,60.3099203 314.648308,63.099767 310.381503,65.6434507 C301.109407,59.0791056 291.344988,52.104489 286.093536,48.3299906 M271.980257,48.3299906 L281.334407,48.3299906 L307.755777,67.2845369 C303.899241,69.5000034 299.960652,71.4693069 295.940009,73.2745018 C287.160237,64.2485273 276.657332,53.2532494 271.980257,48.3299906 M260.16449,48.3299906 L268.123722,48.3299906 L293.150175,74.4232622 C288.391046,76.3925657 283.549863,78.033652 278.626627,79.5106296 L260.16449,48.3299906 Z M256.882332,48.3299906 L275.754739,80.2491185 C270.58534,81.5619875 265.333888,82.6286935 259.918328,83.3671824 L250.235962,48.3299906 L256.882332,48.3299906 L256.882332,48.3299906 Z M223.240215,48.3299906 L229.968638,48.3299906 L220.286273,83.3671824 C214.870713,82.6286935 209.61926,81.5619875 204.449862,80.2491185 C211.424447,68.351243 220.860651,52.3506519 223.240215,48.3299906 M212.080879,48.3299906 L220.040111,48.3299906 L201.577974,79.5106296 C196.572683,78.1157063 191.731501,76.3925657 187.054426,74.4232622 C197.065007,64.0023644 209.126937,51.4480545 212.080879,48.3299906 M198.870194,48.3299906 L208.224343,48.3299906 L184.264592,73.2745018 C180.243949,71.4693069 176.305359,69.5000034 172.36677,67.2845369 C183.854322,59.0791056 195.834198,50.545457 198.870194,48.3299906 M154.971334,55.3866615 C154.725172,55.2225529 149.227558,50.545457 146.847994,48.3299906 L169.987206,48.3299906 L154.971334,55.3866615 Z M176.633575,48.3299906 L194.029011,48.3299906 L169.741044,65.725505 C165.556293,63.1818213 161.453596,60.3919746 157.432952,57.355965 C166.54094,53.0891407 174.992496,49.1505337 176.633575,48.3299906 M141.104218,39.1399075 L141.104218,42.6682429 C140.11957,41.6835912 139.216977,40.6989394 138.314384,39.7142877 C139.463139,39.4681247 140.365732,39.3040161 141.104218,39.1399075 M141.104218,31.8370736 L141.104218,36.2680065 L136.180981,37.2526583 C134.950172,35.7756806 133.719363,34.3807573 132.570607,32.985834 L141.104218,31.8370736 Z M141.104218,25.1086199 L141.104218,28.9651726 L130.519259,30.3600959 C129.370504,28.8831183 128.303802,27.4061407 127.237101,26.0112173 L141.104218,25.1086199 Z M141.104218,22.2367189 L125.34986,23.303425 C124.201105,21.6623387 123.134404,20.1033068 122.231811,18.5442748 L141.186272,18.5442748 L141.104218,22.2367189 L141.104218,22.2367189 Z M143.976106,45.5401439 C143.894052,45.5401439 143.894052,45.5401439 143.976106,45.5401439 L143.894052,18.5442748 L336.228495,18.5442748 L336.228495,45.5401439 C336.228495,45.5401439 336.228495,45.5401439 336.228495,45.5401439 L143.976106,45.5401439 Z M264.677456,14.8518307 C265.333888,11.8158211 266.646751,9.35419172 268.533992,7.54899683 C271.159718,4.9232588 274.688038,3.61038979 279.201004,3.61038979 L368.393641,3.61038979 C365.357645,5.90791056 363.716566,8.77981153 363.634512,9.02597447 C362.567811,10.995278 361.337002,13.2107444 359.777977,15.7544282 L264.349241,15.7544282 C264.595402,15.3441566 264.677456,14.8518307 264.677456,14.8518307 M479.330572,3.03600959 C477.60744,0.24616294 474.571444,0.0820543133 473.258581,0 L279.201004,0 C273.70339,0 269.272477,1.64108627 265.99032,4.9232588 C263.610755,7.30283389 262.05173,10.3388435 261.149137,14.0312876 C261.149137,14.1953962 260.902975,14.933885 259.261896,14.933885 L220.860651,14.933885 C219.219572,14.933885 218.97341,14.1953962 218.97341,14.1133419 C218.15287,10.4208978 216.511792,7.3848882 214.132227,5.00531311 C210.85007,1.72314058 206.419157,0.0820543133 200.921542,0.0820543133 L6.78191217,0.0820543133 C5.55110302,0.164108627 2.43305317,0.328217253 0.791974298,3.11806391 C-0.0285651368,4.51298723 -0.602942741,6.81050801 1.12019007,10.0106262 C1.12019007,10.0106262 4.64850964,15.9185368 4.64850964,15.9185368 C6.12548062,18.2981119 7.76655949,19.2007093 11.2128251,19.3648179 C11.2948791,19.3648179 12.853904,19.5289266 14.0026592,21.4982301 L17.6130327,27.8164122 C18.3515182,29.2933899 20.1567049,32.6576167 26.3107507,33.5602142 C26.3928047,33.5602142 28.1979914,33.8063771 29.1826387,35.611572 C29.1826387,35.611572 33.6135517,43.4887861 33.6135517,43.4887861 C34.9264148,46.0324698 36.7316015,46.9350672 40.0137593,48.0017733 C40.0137593,48.0017733 121.165109,71.8795785 121.165109,71.8795785 C123.954943,72.7001216 125.021645,75.8181855 125.021645,75.8181855 C126.990939,80.8234986 129.452558,84.9262143 142.170919,88.782767 C142.170919,88.782767 208.634613,106.91677 208.634613,106.91677 C209.455152,107.162933 217.086169,109.460454 222.747891,103.962815 C222.747891,103.962815 238.338141,89.1109843 238.338141,89.1109843 C238.338141,89.1109843 238.994572,88.4545498 239.815112,88.4545498 C240.717705,88.4545498 241.374136,89.1109843 241.374136,89.1109843 C241.374136,89.1109843 256.964386,103.962815 256.964386,103.962815 C262.708162,109.460454 270.339179,107.162933 271.159718,106.91677 C271.077664,106.91677 337.541358,88.782767 337.541358,88.782767 C350.177665,84.9262143 352.803392,80.7414443 354.690632,75.8181855 C354.772686,75.5720226 355.839388,72.7001216 358.547168,71.8795785 C358.547168,71.8795785 370.855259,68.2691887 439.698518,48.0838276 C443.062729,47.0171215 444.867916,46.1145241 446.180779,43.5708404 L450.611692,35.7756806 C451.59634,33.8884314 453.401526,33.6422685 453.48358,33.6422685 C459.71968,32.8217253 461.524867,29.3754442 462.263352,27.8984665 C462.263352,27.8984665 465.873726,21.5802844 465.873726,21.5802844 C467.022481,19.6109809 468.581506,19.4468723 468.66356,19.4468723 C472.109825,19.2007093 473.832958,18.3801662 475.227875,16.0005911 C475.227875,16.0005911 478.756195,10.0926805 478.756195,10.0926805 C479.49468,8.69775721 479.90495,7.3848882 479.90495,6.1540735 C480.151112,4.9232588 479.90495,3.93860704 479.330572,3.03600959" id="Shape"></path>
            <path d="M153.084093,32.8217253 C153.248201,32.4114538 155.381604,27.3240863 155.627766,26.7497062 C155.873927,27.3240863 158.089384,32.4114538 158.253492,32.8217253 L153.084093,32.8217253 Z M156.694467,22.8110991 L155.873927,22.8110991 L147.668533,41.1912653 L149.88399,41.1912653 L149.88399,41.109211 C150.540421,38.8937445 151.443014,36.7603324 152.263554,34.6269202 C152.263554,34.6269202 152.345608,34.298703 152.427662,34.2166487 L158.745815,34.2166487 C159.566355,36.1859522 160.468948,38.4014186 161.453596,41.109211 L161.453596,41.1912653 L164.489591,41.1912653 L156.694467,22.8110991 Z" id="Shape"></path>
            <path d="M165.474239,39.9604506 L165.474239,39.9604506 C166.54094,41.109211 168.674343,41.6015369 169.905152,41.6015369 C173.761687,41.6015369 176.469467,39.1399075 176.469467,35.5295177 C176.469467,32.5755624 174.254011,31.672965 172.038554,30.8524218 C170.151314,30.113933 168.264073,29.3754442 168.264073,27.1599777 C168.264073,25.5188915 169.576936,24.2880768 171.382123,24.2880768 C172.77704,24.2880768 173.925795,25.0265656 174.418119,26.4214889 L174.500173,26.5035432 L174.992496,26.5035432 L175.730982,24.2060224 L175.648928,24.1239681 C174.582227,23.1393164 173.023202,22.8110991 171.874446,22.8110991 C168.264073,22.8110991 165.966562,24.8624569 165.966562,27.8984665 C165.966562,31.0985848 168.346127,32.0011822 170.397475,32.8217253 C172.284716,33.5602142 174.007849,34.2166487 174.007849,36.4321151 C174.007849,38.483473 172.530878,40.0425049 170.561583,40.0425049 C168.83845,40.0425049 167.607641,39.3040161 166.54094,37.4167669 L166.458886,37.3347126 L165.966562,37.3347126 L165.474239,39.9604506 Z" id="Path"></path>
            <path d="M190.910961,23.2213707 L177.372061,23.2213707 L177.372061,25.1086199 L177.536168,25.1086199 C179.095193,24.9445113 180.572164,24.7804026 183.033783,24.7804026 L183.033783,41.2733196 L185.659509,41.2733196 L185.659509,24.7804026 C187.464696,24.7804026 189.269882,24.8624569 190.910961,25.1086199 L191.075069,25.1086199 L191.075069,23.2213707 L190.910961,23.2213707 L190.910961,23.2213707 L190.910961,23.2213707 Z" id="Path"></path>
            <path d="M205.02424,38.3193643 C203.79343,39.7142877 202.152352,40.3707222 200.265111,40.3707222 C196.08036,40.3707222 193.37258,37.3347126 193.37258,32.5755624 C193.37258,27.3240863 196.08036,24.0419138 200.511273,24.0419138 C202.562621,24.0419138 204.531916,24.9445113 205.762725,26.5035432 C207.075588,28.2266838 207.403804,29.9498244 207.403804,32.0832365 C207.403804,32.1652908 207.403804,32.3293995 207.403804,32.4935081 C207.403804,34.1345944 206.665318,36.5962238 205.02424,38.3193643 M200.265111,22.8110991 C194.521335,22.8110991 190.500692,26.6676518 190.500692,32.1652908 C190.500692,37.7449841 194.357227,41.4374282 200.183057,41.4374282 C206.172995,41.4374282 210.193638,37.4988212 210.193638,31.7550193 C210.193638,25.6009458 205.188347,22.8110991 200.265111,22.8110991" id="Shape"></path>
            <path d="M228.245506,23.2213707 L226.604427,23.2213707 L226.604427,36.5141694 L226.604427,36.5141694 C226.522373,36.4321151 214.296335,23.2213707 214.296335,23.2213707 L213.065526,23.2213707 L213.065526,41.1912653 L214.870713,41.1912653 L214.870713,27.242032 L214.870713,27.242032 C214.952767,27.3240863 226.030049,39.550179 226.030049,39.550179 L227.424966,41.1912653 L227.50702,41.1912653 L228.491667,41.1912653 L228.491667,23.2213707 L228.245506,23.2213707 Z" id="Path"></path>
            <path d="M257.374655,23.2213707 L256.718224,23.2213707 L252.369365,31.0985848 C252.369365,31.0985848 249.579531,36.1038979 249.333369,36.5962238 C246.625589,32.0832365 244.246024,27.4061407 242.194676,23.303425 L242.112622,23.2213707 L241.210029,23.2213707 L241.210029,23.3854793 C240.963867,26.0112173 239.404842,36.924441 238.74841,41.0271567 L238.74841,41.1912653 L240.963867,41.1912653 L240.963867,41.0271567 C240.963867,38.483473 241.374136,34.7089745 241.86646,30.6883132 C241.86646,30.6883132 242.030568,28.8831183 242.194676,28.2266838 C242.522892,28.801064 245.887103,35.2833547 247.199966,37.9090928 L248.676937,40.9451024 L249.169261,40.9451024 L249.251315,40.863048 C250.728286,37.4167669 252.861689,33.4781598 255.815631,28.2266838 C256.2259,31.3447477 256.800278,37.4988212 257.04644,41.109211 L257.04644,41.2733196 L259.836274,41.2733196 L259.836274,41.109211 C259.261896,36.7603324 258.523411,30.9344761 257.702871,23.4675336 L257.702871,23.303425 L257.374655,23.2213707 L257.374655,23.2213707 L257.374655,23.2213707 L257.374655,23.2213707 Z" id="Path"></path>
            <path d="M266.072373,32.8217253 C266.236481,32.4114538 268.369884,27.3240863 268.616046,26.7497062 C268.862208,27.3240863 271.077664,32.4114538 271.241772,32.8217253 L266.072373,32.8217253 Z M269.682747,22.8110991 L269.600693,22.8110991 L268.944261,22.8110991 L260.738867,41.1912653 L262.954324,41.1912653 L262.954324,41.109211 C263.610755,38.8937445 264.513349,36.6782781 265.333888,34.6269202 C265.333888,34.6269202 265.415942,34.3807573 265.497996,34.2166487 L271.816149,34.2166487 C272.718743,36.1859522 273.621336,38.483473 274.52393,41.109211 L274.52393,41.1912653 L277.559926,41.1912653 L269.682747,22.8110991 Z" id="Shape"></path>
            <path d="M281.744677,31.3447477 L281.744677,24.5342397 C282.811378,24.4521854 284.452457,24.4521854 285.35505,24.5342397 C287.160237,24.8624569 288.06283,25.8471087 288.06283,27.6523036 C288.06283,29.4574985 286.914075,30.7703675 284.862726,31.1806391 C283.713971,31.426802 282.401108,31.3447477 281.744677,31.3447477 M285.519158,32.3293995 C288.801316,31.672965 290.688556,29.7857157 290.688556,27.3240863 C290.688556,24.5342397 288.719262,23.2213707 284.780673,23.2213707 L279.283058,23.2213707 L279.11895,23.2213707 L279.11895,41.1912653 L281.744677,41.1912653 L281.744677,32.5755624 L282.483162,32.5755624 C282.565216,32.6576167 284.534511,34.9551375 284.534511,34.9551375 C284.534511,34.9551375 287.570507,38.8937445 287.570507,38.8937445 L289.211585,41.1912653 L289.293639,41.1912653 L292.575797,41.1912653 C292.657851,41.2733196 285.847374,32.739671 285.519158,32.3293995" id="Shape"></path>
            <path d="M305.704428,23.2213707 L292.165527,23.2213707 L292.165527,25.1086199 L292.329635,25.1086199 C293.88866,24.9445113 295.365631,24.7804026 297.82725,24.7804026 L297.82725,41.2733196 L300.452976,41.2733196 L300.452976,24.7804026 C302.258163,24.7804026 304.063349,24.8624569 305.704428,25.1086199 L305.868536,25.1086199 L305.868536,23.2213707 L305.704428,23.2213707 L305.704428,23.2213707 Z" id="Path"></path>
            <rect id="Rectangle" x="308.001939" y="23.2213707" width="2.4616183" height="17.9698946"></rect>
            <path d="M327.858993,23.2213707 L327.858993,36.5141694 L327.858993,36.5141694 C327.776939,36.4321151 315.550901,23.2213707 315.550901,23.2213707 L314.320092,23.2213707 L314.320092,41.1912653 L316.125279,41.1912653 L316.125279,27.242032 L316.125279,27.242032 C316.207333,27.3240863 327.284615,39.550179 327.284615,39.550179 C327.284615,39.550179 328.679532,41.1912653 328.679532,41.1912653 L329.66418,41.1912653 L329.66418,23.2213707 L327.858993,23.2213707 Z" id="Path"></path>
        </g>
    </g>
</svg>