<?xml version="1.0" encoding="UTF-8"?>
<svg width="480px" height="172px" viewBox="0 0 480 172" version="1.1" xmlns="http://www.w3.org/2000/svg" xmlns:xlink="http://www.w3.org/1999/xlink">
    <title>capital-one</title>
    <g id="capital-one" stroke="none" stroke-width="1" fill="none" fill-rule="evenodd">
        <path d="M325.761593,124.624341 C326.541404,127.266648 327.701993,129.781256 329.206797,132.08895 L328.747437,132.318631 L324.723394,134.544879 C300.590289,147.876447 276.706722,160.714366 255.709109,171.593958 L254.905228,172.053318 C254.689654,172.307795 254.339338,172.402732 254.024771,172.291926 C253.710204,172.181121 253.496725,171.887588 253.487722,171.554184 C253.479737,171.22078 253.677991,170.916757 253.986507,170.790077 L255.020068,170.215876 L260.324532,166.961937 C284.3603,152.189178 306.59895,138.107618 325.646753,124.624341 L325.761593,124.624341 Z M368.482125,71.4533576 C384.626351,71.4533576 395.142837,82.1460654 395.908699,98.4057346 L395.920563,98.7108406 L395.584397,98.7853104 L395.699237,101.311793 L395.95157,101.284408 L395.946983,101.591166 C395.46772,123.029442 380.099353,142.080042 355.734869,142.080042 C339.42757,142.080042 328.862277,131.285069 328.288076,114.633249 C327.484195,93.2729838 344.250856,71.4533576 368.482125,71.4533576 Z M468.852405,94.0768648 C474.479572,94.0768648 479.762218,96.6033478 479.991899,102.689875 C480.451259,116.355852 461.272956,120.490097 448.640541,120.719777 C448.272575,122.186759 448.109245,123.696651 448.154447,125.206595 L448.18118,125.772743 C448.410861,131.51475 451.856065,136.223195 458.861313,136.223195 C465.866562,136.223195 471.149208,131.285069 474.249892,126.461784 L475.742814,127.495345 C471.838249,135.419314 463.914279,141.850362 454.497388,141.850362 C448.089798,141.850362 442.717564,138.346082 440.901006,131.669144 L440.784011,131.215193 L440.669691,131.399092 C437.356722,136.664216 433.431903,141.634406 428.305365,141.84352 L427.969316,141.850362 C424.983473,141.850362 422.91635,139.209039 422.80151,136.912236 C422.68667,134.615434 423.490551,131.51475 424.409272,127.954705 L429.002877,112.451287 L429.410047,111.001275 C430.053781,108.652686 431.04624,104.717398 430.95516,102.804715 C431.028419,102.114783 430.78588,101.428709 430.295282,100.93811 C429.804683,100.447512 429.118609,100.204973 428.428677,100.278232 C425.975388,100.278232 422.228058,103.153881 414.058232,111.294181 L413.367109,111.984777 C411.379541,113.976285 409.140581,116.264989 406.60905,118.882335 L402.245125,140.2426 L394.435996,140.2426 L395.103168,137.546661 C396.093103,133.503817 397.177804,128.873427 398.11088,124.394661 L401.211564,110.958365 C401.556084,109.465443 403.163846,103.953117 403.049006,102.575035 C402.934166,101.196953 401.670925,100.852433 400.178003,100.852433 L395.95157,101.284408 L395.957107,100.920461 C395.960616,100.472832 395.957636,100.024241 395.948114,99.5748405 L395.928918,98.9001506 L395.920563,98.7108406 L396.994592,98.4770562 C401.689175,97.4238354 406.322416,96.1137465 410.873408,94.5527012 L412.236217,94.0768648 C411.317496,97.2923887 410.398775,101.885994 409.365214,106.36476 L407.527772,114.518409 L407.757452,114.518409 L408.625181,113.524881 C422.505007,97.7150158 429.222118,94.0768648 434.285524,94.0768648 C437.271367,94.0768648 439.45333,97.2923887 439.45333,99.0149907 C439.45333,100.737593 438.764289,103.953117 437.501048,109.006083 L432.448082,127.265665 C431.778668,129.308752 431.392276,131.433909 431.29968,133.581872 C431.29968,134.959954 432.103561,135.534155 432.907442,135.534155 C435.228422,135.534155 437.956591,131.86945 439.651785,129.340589 L440.321205,128.323519 L440.304544,128.119832 C440.283469,127.839233 440.267651,127.554505 440.257211,127.265665 C439.56817,110.039644 455.76063,94.0768648 468.852405,94.0768648 Z M160.736315,87.0716164 L161.740343,87.0762685 C165.642503,87.1157857 168.227426,87.4338045 171.301608,89.0238987 C174.45904,90.608251 176.91486,93.3096531 178.192016,96.6033478 C179.545326,100.07494 179.864416,103.864138 179.110737,107.513161 C178.145188,113.842624 174.667242,119.514988 169.464166,123.24626 C164.332452,126.927707 159.742596,128.008235 153.273268,128.066974 L152.697505,128.069546 C150.875057,128.103045 149.055709,127.923727 147.276309,127.535763 L146.610978,127.380505 C145.241622,127.0826 143.925208,126.579266 142.706413,125.887583 C141.515529,125.02873 140.435483,124.02583 139.49089,122.901739 L136.275366,141.391002 L116.982222,141.391002 L126.513954,87.6458171 L143.739975,87.6458171 L142.361893,94.5362253 C144.248322,92.176749 146.75307,90.3876438 149.596822,89.3684191 C153.136605,87.9225171 156.913295,87.1438181 160.736315,87.0716164 Z M366.529842,74.3243611 C349.476082,74.3243611 338.387727,98.2985376 338.836241,114.823836 L338.853369,115.32229 C339.197889,127.839865 347.121859,138.060638 357.457471,138.060638 C377.439655,138.060638 385.937826,113.484848 385.363625,97.0627084 C384.904264,84.5451333 376.865455,74.3243611 366.529842,74.3243611 Z M441.520452,130.021828 L440.486891,128.069546 L440.321205,128.323519 L440.340084,128.537631 C440.418988,129.36703 440.544656,130.159198 440.71381,130.913705 L440.784011,131.215193 L440.884893,131.055342 C441.099239,130.711266 441.311038,130.366348 441.520452,130.021828 Z M65.9932012,74.3243611 L63.5815583,88.2200178 C59.1596087,85.497963 54.0692905,84.0656634 48.8842914,84.0784028 L48.30782,84.0857728 C31.4903884,84.0857728 24.6796874,95.779031 24.3156644,101.476536 L24.3062311,101.656314 C23.8532506,110.149699 31.1056578,114.734554 40.2270249,114.860273 L40.6135307,114.86293 C46.0973524,114.915618 51.5690489,114.337622 56.9208303,113.140328 L54.2795071,127.495345 C47.9632995,128.069546 41.0728913,128.414066 34.5270034,128.414066 C23.1578297,128.414066 -2.45152104,122.786899 0.189802136,102.115674 C2.83112531,81.4444496 24.3062311,71.3385175 46.700058,71.1088372 C53.2867451,70.7939632 59.8646726,71.8902844 65.9932012,74.3243611 Z M100.100722,86.2677354 L101.113893,86.2747523 C114.904323,86.4683281 119.391163,90.6438202 119.279025,95.914307 C119.164185,97.8665893 118.819665,99.5891914 118.360304,102.575035 L114.80026,122.557219 C114.410202,124.221643 115.219392,125.935221 116.752542,126.691464 L116.752542,127.495345 L96.1961575,127.495345 L96.1961575,122.442379 C93.0755568,124.198835 89.7611894,125.586244 86.3199056,126.576624 C83.3827769,127.370147 80.3589655,127.793266 77.3188277,127.836875 L76.5584939,127.839865 C69.8977659,127.839865 66.1080413,127.150825 63.5815583,124.854022 C61.0550753,122.557219 59.5621535,120.949457 59.6769936,117.619093 C59.9236529,115.460513 60.8026089,113.422933 62.2034767,111.762246 C63.6984522,110.08499 65.5401252,108.752716 67.6009631,107.857681 C70.0256859,106.830828 72.5632071,106.096517 75.1598517,105.66966 L76.6552542,105.437836 C80.1601384,104.904649 84.9664326,104.371463 91.2580316,103.838277 C93.553081,103.769293 95.8138319,103.262573 97.9187596,102.345355 C99.4116814,101.771154 99.8710419,101.196953 100.100722,100.048552 C100.330402,98.9001506 99.8710419,96.8330281 97.1148786,96.2588274 C89.7651098,94.8807458 75.9842932,97.1775485 68.8642047,99.0149907 L72.6539292,88.5645382 C81.733946,87.1251562 90.9077644,86.3574727 100.100722,86.2677354 Z M276.724854,86.2677354 C291.309552,86.3825755 296.017998,90.6316607 295.903157,95.914307 C295.788317,97.8665893 295.443797,99.7040316 294.984436,102.575035 L291.424392,122.672059 C291.034334,124.336484 291.843524,126.050061 293.376674,126.806304 L293.376674,127.495345 L272.82029,127.495345 L272.82029,122.327539 C269.727195,124.167757 266.407042,125.596195 262.944038,126.576624 C259.718664,127.402285 256.396557,127.788577 253.067786,127.725025 C246.521898,127.725025 242.732174,127.035984 240.09085,124.739182 C237.449527,122.442379 236.186286,120.834617 236.301126,117.619093 C236.518618,115.418483 237.399704,113.335918 238.827609,111.647406 C240.222055,110.123403 241.909999,108.899328 243.788307,108.047593 L244.225095,107.857681 C246.81674,106.699412 249.563581,105.925654 252.378745,105.560879 L253.187439,105.437836 C256.784271,104.904649 261.590565,104.371463 267.882164,103.838277 C270.155691,103.618556 272.393088,103.117071 274.542892,102.345355 C275.920973,101.771154 276.495174,101.196953 276.724854,100.048552 C276.954535,98.9001506 276.495174,96.8330281 273.739011,96.2588274 C266.389242,94.7659056 252.608425,97.1775485 245.488337,98.9001506 L249.278061,88.5645382 C258.357523,87.1205672 267.531682,86.3528551 276.724854,86.2677354 Z M205.294289,87.4161368 L198.1742,127.495345 L178.536536,127.495345 L185.656625,87.4161368 L205.294289,87.4161368 Z M237.908888,74.6688815 L235.726925,87.1864565 L245.832857,87.1864565 L243.880575,95.3401063 L234.119163,95.3401063 L228.262316,127.495345 L208.394972,127.495345 L214.366659,95.3401063 L206.902051,95.3401063 L208.394972,87.3012966 L216.089262,87.3012966 L216.089262,87.1864565 L217.467343,79.0328067 L237.908888,74.6688815 Z M305.894249,71.6830379 L325.302233,72.1423984 L315.770501,127.495345 L295.788317,127.495345 L305.894249,71.6830379 Z M98.1484398,109.006083 C97.0776119,109.44017 95.9600095,109.748474 94.8180758,109.924804 L87.2386267,111.302885 C85.3793014,111.435031 83.5736741,111.98457 81.9559804,112.910647 C81.0140113,113.487469 80.3814528,114.457392 80.2333783,115.551971 C79.9906799,116.589428 80.4575383,117.663202 81.3817797,118.193294 C82.8495073,119.013728 84.5300336,119.373841 86.2050655,119.226855 C87.9183722,119.192891 89.6187711,118.922373 91.2580316,118.422974 C92.7687197,117.980817 94.1747966,117.238721 95.3922765,116.241011 C96.1971567,115.534613 96.7929541,114.621057 97.1148786,113.599688 C97.6722908,112.124286 98.0201943,110.578048 98.1484398,109.006083 Z M274.772572,109.120923 L271.442208,110.039644 L263.747919,111.417726 C261.927966,111.566687 260.163357,112.115677 258.580113,113.025488 C257.643155,113.552737 257.006047,114.487162 256.857511,115.551971 C256.575988,116.597243 256.991664,117.705711 257.891072,118.308134 C258.924633,118.997175 260.532395,119.227 262.829198,119.227 C264.537261,119.231678 266.237755,118.999793 267.882164,118.537814 C269.392852,118.095657 270.798929,117.353561 272.016409,116.355852 C272.821289,115.649454 273.417086,114.735897 273.739011,113.714528 C274.223234,112.218142 274.569203,110.680501 274.772572,109.120923 Z M467.474324,96.3736676 C459.435514,96.3736676 450.937344,112.106766 449.444422,118.422974 C462.536198,118.422974 472.87181,110.613845 472.52729,101.771154 C472.41245,98.5556302 470.804688,96.3736676 467.474324,96.3736676 Z M153.01806,96.8241578 L152.697505,96.8330281 C150.178646,96.8407666 147.726718,97.6446776 145.692257,99.1298309 C143.607614,100.868458 142.25451,103.328647 141.902532,106.020239 C141.213492,109.580283 141.558012,111.991926 142.936094,113.599688 C144.558425,115.17655 146.762994,116.008463 149.022621,115.896491 C150.762813,115.931662 152.488972,115.578584 154.075587,114.86293 C155.607089,114.154647 156.917092,113.043129 157.865312,111.647406 C158.939376,110.050582 159.681403,108.254098 160.047274,106.36476 C160.621475,103.149236 160.162114,100.852433 158.669193,99.244671 C157.200432,97.6843332 155.151298,96.810742 153.01806,96.8241578 L153.01806,96.8241578 Z M132.255961,31.7186699 C220.338347,12.4255267 427.739636,-19.5000317 459.894875,15.985571 C474.249892,31.83351 443.932095,60.5435445 398.799921,90.5168205 C397.099123,83.0602861 392.570217,76.55513 386.167506,72.3720787 L386.852251,71.472196 C397.853317,56.8192788 399.863341,44.3832403 390.072071,34.7045135 C357.457471,2.31959454 205.523969,20.3494962 132.485641,33.3264318 L130.418519,33.6709522 C130.219664,33.742635 129.998911,33.7190779 129.819661,33.6070469 C129.640412,33.4950158 129.522502,33.3069084 129.498899,33.0967515 C129.4862,32.6670046 129.772474,32.2853058 130.188838,32.1780304 L132.255961,31.7186699 Z M198.40388,72.2572386 C204.260727,72.2572386 208.394972,74.8985617 207.820772,78.2289257 C207.246571,81.5592898 202.078765,84.2006129 196.221918,84.2006129 C190.365071,84.2006129 186.230826,81.4444496 186.805026,78.2289257 C187.379227,74.8985617 192.547033,72.2572386 198.40388,72.2572386 Z" id="Shape" fill="#FFFFFF" fill-rule="nonzero"></path>
    </g>
</svg>