<?xml version="1.0" encoding="UTF-8"?>
<svg width="480px" height="166px" viewBox="0 0 480 166" version="1.1" xmlns="http://www.w3.org/2000/svg" xmlns:xlink="http://www.w3.org/1999/xlink">
    <title>dell</title>
    <g id="dell" stroke="none" stroke-width="1" fill="none" fill-rule="evenodd">
        <path d="M86.4323166,82.8774865 C86.4323166,101.444864 74.1128226,111.991839 56.6716311,111.991839 L45.9973478,111.991839 L45.9973478,53.7435479 L56.3680506,53.7435479 C72.585127,53.7435479 86.4323166,62.5571764 86.4323166,82.8774865 M276.307253,61.9206365 L197.670101,-3.41060513e-13 L125.799857,56.5834948 C115.429154,31.670305 90.3690707,14.3662144 61.5093339,14.3662144 L0,14.3662144 L0,151.388759 L61.5093339,151.388759 C93.7574212,151.388759 116.996022,130.882383 125.780271,109.034377 L197.670101,165.559115 L224.297052,144.602265 L158.410283,92.8173008 L171.072529,82.9068652 L236.939712,134.66245 L263.605835,113.764358 L197.728859,61.9206365 L210.371519,51.9906151 L276.307253,103.844129 L276.307253,151.388759 L324.106498,151.388759 L324.106498,54.3605019 L371.788228,54.3605019 L371.788228,14.1997348 L276.307253,14.1997348 L276.307253,61.9206365 Z M432.337856,54.340916 L480,54.340916 L480,14.1997348 L384.489646,14.1997348 L384.489646,151.388759 L432.337856,151.388759 L432.337856,54.340916 Z" id="path3466" fill="#FFFFFF" fill-rule="nonzero" transform="translate(240, 82.7796) scale(-1, 1) rotate(-180) translate(-240, -82.7796)"></path>
    </g>
</svg>