<?xml version="1.0" encoding="UTF-8"?>
<svg width="480px" height="109px" viewBox="0 0 480 109" version="1.1" xmlns="http://www.w3.org/2000/svg" xmlns:xlink="http://www.w3.org/1999/xlink">
    <title>fantasy</title>
    <g id="fantasy" stroke="none" stroke-width="1" fill="none" fill-rule="evenodd">
        <path d="M108.834874,19.9907814 C108.834874,13.3784643 104.381649,4.94115777 94.4551239,1.02793502 C81.5974688,-4.040355 76.5899104,11.2809499 54.4174372,11.2809499 C32.2441202,11.2809499 27.2374055,-4.040355 14.3797504,1.02793502 C4.45491299,4.94115777 0,13.3784643 0,19.9907814 C0,28.6398643 10.8394445,34.7105063 10.8394445,54.4175231 C10.8394445,74.1245399 0,80.1943382 0,88.8434211 C0,95.4565819 4.45406926,103.893888 14.3797504,107.807111 C27.2374055,112.874557 32.244964,97.5532526 54.4174372,97.5532526 C76.5907541,97.5532526 81.5983125,112.875401 94.4551239,107.807111 C104.381649,103.893888 108.834874,95.4565819 108.834874,88.8434211 C108.834874,80.1951819 97.9962735,74.1245399 97.9962735,54.4175231 C97.9962735,34.7105063 108.834874,28.6398643 108.834874,19.9907814 Z M184.250308,40.0589149 L182.330814,45.0791122 L165.49833,45.0791122 C164.558488,45.0791122 163.657138,45.452462 162.992569,46.1170288 C162.328,46.7815956 161.954649,47.6829416 161.954649,48.622781 L161.954649,53.0523669 L176.719986,53.0523669 L174.800492,58.0725643 L161.954649,58.0725643 L161.954649,69.5894876 L156.934435,69.5894876 L156.934435,47.7368638 C156.934435,43.4964497 160.371981,40.0589149 164.61241,40.0589149 L184.250308,40.0589149 Z M203.740552,69.5894876 L214.962208,40.0589149 L219.982422,40.0589149 L231.204078,69.5894876 L226.183864,69.5894876 L217.472315,45.0791122 L208.760766,69.5894876 L203.740552,69.5894876 Z M353.165758,69.5894876 L365.420988,40.0589149 L368.374055,40.0589149 L380.629285,69.5894876 L377.676217,69.5894876 L366.897522,43.0119722 L356.118826,69.5894876 L353.165758,69.5894876 Z M257.634031,69.5894876 L257.634031,40.0589149 L263.244858,40.0589149 L278.453155,65.0122489 L278.453155,40.0589149 L282.144489,40.0589149 L282.144489,69.5894876 L276.533661,69.5894876 L261.325365,44.6361537 L261.325365,69.5894876 L257.634031,69.5894876 Z M306.802602,40.0589149 L334.266128,40.0589149 L333.010652,43.3072779 L322.010898,43.3072779 L322.010898,69.5894876 L318.762524,69.5894876 L318.762524,43.3072779 L308.057233,43.3072779 L306.802602,40.0589149 Z M430.240816,40.0589149 L429.443487,42.126055 L411.85755,42.126055 C408.473594,42.126055 405.730357,44.8692833 405.730357,48.253227 C405.730357,51.6374306 408.474178,53.7906312 411.85755,53.7906312 L423.227703,53.7906312 C427.426964,53.7906312 430.831429,57.7856958 430.831429,61.9849433 C430.831429,66.1844877 427.427261,69.5890217 423.227703,69.5894876 L404.283354,69.5894876 L405.035964,67.5223475 L423.226859,67.5223475 C424.695543,67.5225714 426.104139,66.9392398 427.142655,65.9007266 C428.181172,64.8622133 428.764506,63.4536228 428.764282,61.9849433 C428.764282,58.9272634 426.285393,55.8577713 423.226859,55.8577713 L411.85755,55.8577713 C407.331763,55.8577713 403.66321,52.7798419 403.66321,48.2540707 C403.66321,43.7274557 407.331763,40.0589149 411.85755,40.0589149 L430.240816,40.0589149 Z M454.160661,40.0589149 L466.120584,55.2671598 L478.080506,40.0589149 L480,40.0589149 L466.85885,56.5960356 L466.85885,69.5894876 L465.382317,69.5894876 L465.382317,56.5960356 L452.241167,40.0589149 L454.160661,40.0589149 Z" id="Shape" fill="#FFFFFF"></path>
    </g>
</svg>