<?xml version="1.0" encoding="UTF-8"?>
<svg width="480px" height="171px" viewBox="0 0 480 171" version="1.1" xmlns="http://www.w3.org/2000/svg" xmlns:xlink="http://www.w3.org/1999/xlink">
    <title>ford</title>
    <g id="ford" stroke="none" stroke-width="1" fill="none" fill-rule="evenodd">
        <path d="M240.011202,-1.42108547e-14 C372.551692,-1.42108547e-14 480,38.3551925 480,85.7166861 C480,133.055776 372.551692,171.433372 240.011202,171.433372 C107.448308,171.433372 2.27373675e-13,133.055776 2.27373675e-13,85.7166861 C2.27373675e-13,38.3551925 107.448308,-1.42108547e-14 240.011202,-1.42108547e-14 Z M240.011202,7.1243874 C112.108285,7.1243874 8.4462077,42.4550758 8.4462077,85.7166861 C8.4462077,128.955893 112.108285,164.308985 240.011202,164.308985 C367.914119,164.308985 471.576196,128.955893 471.576196,85.7166861 C471.576196,42.4774796 367.891715,7.1243874 240.011202,7.1243874 Z M386.419603,57.7344224 C387.158926,57.7344224 387.472579,58.1600933 387.158926,58.7425904 L387.158926,58.7201867 L387.002178,58.9800374 C383.778956,64.227598 348.511141,117.9812 346.249708,123.623804 C345.510385,125.483314 345.42077,126.872345 346.182497,127.880513 C348.109218,130.456943 352.365928,128.955893 355.054376,127.096383 C362.985298,121.607468 368.496616,114.998366 374.612835,109.173396 C374.948891,108.926954 375.553792,108.814936 375.95706,109.173396 C376.853209,110.024737 378.175029,111.100117 379.071179,112.041074 C379.519253,112.511552 379.340023,112.959627 379.115986,113.228471 C373.156593,120.509685 366.569895,127.387631 360.252042,132.249242 C350.439207,139.844107 340.648775,141.793232 335.809568,136.931622 C334.102617,135.181997 333.127216,132.761784 332.922073,130.638643 L332.897083,130.32252 C332.832794,129.186749 332.276554,129.075873 331.738139,129.558547 L331.216075,130.064537 C325.353569,135.676331 315.571623,141.567777 306.66231,137.200467 C299.118111,133.450426 297.286191,124.552819 298.600285,116.944693 L298.664177,116.589032 C298.708985,116.432205 298.529755,115.334422 297.588798,115.984131 C296.020537,117.126721 293.914586,118.38133 291.315753,119.344691 C289.077567,120.37396 286.650437,120.922647 284.190798,120.957624 L283.698483,120.95776 C279.844132,120.997014 276.259883,118.983007 274.288915,115.670478 C273.01937,113.78732 272.489217,110.984917 272.302116,108.82976 L272.272579,108.456476 C272.272579,108.210035 271.958926,107.76196 271.600467,108.344457 C265.349825,117.866044 259.524854,127.096383 253.341424,136.7972 C253.027771,137.245274 252.736523,137.536523 252.086814,137.58133 L239.854376,137.58133 C239.134967,137.58133 238.775263,137.061757 239.077237,136.400079 L239.137456,136.281914 C240.860857,132.975797 248.547522,121.608232 255.674611,109.742244 L256.259005,108.765991 C258.007601,105.834796 259.711311,102.885896 261.272345,100.032672 C263.490315,95.9775963 263.04224,93.894049 261.653209,92.9978996 C259.928121,91.877713 256.50035,93.557993 253.587865,95.7759627 C245.840745,101.635682 239.297548,110.720196 235.874724,115.026749 L235.380424,115.646783 C233.531652,118.022907 231.639645,121.472532 226.977876,126.587602 L226.613769,126.984364 C218.45881,135.856243 207.637806,140.94189 197.22007,137.424504 C191.646723,135.528573 187.380844,130.985579 185.838973,125.304084 C185.525321,124.228705 184.898016,123.915053 184.315519,124.631972 C182.708295,126.64636 179.481734,129.562657 176.694541,131.518225 L176.317386,131.778763 C176.003734,132.0028 175.219603,132.473279 174.547491,132.137223 C173.296217,130.910306 172.231889,129.506298 171.388565,127.970128 C171.127949,127.403246 171.263829,126.732903 171.724621,126.312252 L172.906283,125.274802 C176.290502,122.29123 178.266511,120.42007 179.87958,118.403734 C181.39556,116.402438 182.596823,114.181236 183.441774,111.817036 L183.696868,111.178372 C186.309277,104.732555 192.013956,93.5150219 203.000233,87.6210035 C207.346558,85.3134189 211.73769,83.6331389 216.621704,83.0730455 C218.705251,82.8490082 220.430338,83.0954492 221.057643,84.7533256 L222.245041,88.0242707 C222.469078,88.6963827 222.289848,89.2116686 221.505718,89.5029172 C214.807001,92.0569428 208.085881,96 203.425904,102.228238 C198.161027,109.307818 196.749592,117.798833 200.266978,122.682847 C202.843407,126.245041 207.010502,126.872345 210.998366,125.595333 C217.069778,123.691015 222.222637,118.02287 224.888681,111.749825 C227.778763,104.894282 228.249242,96.7841307 226.120887,89.6597433 C225.762427,88.4275379 226.076079,87.4865811 226.882614,86.8144691 C228.202397,85.7329797 229.927115,84.861456 230.866506,84.3962292 L231.363361,84.1484247 C232.681367,83.4384013 234.322543,83.8342144 235.171995,85.0669778 C237.494164,88.895593 238.71155,93.2921424 238.689382,97.769895 C238.838366,98.7276546 239.229984,98.795762 239.672149,98.3391767 L239.742357,98.2627771 C243.707818,94.0508751 247.404434,89.5477246 251.616336,86.1647608 C255.469778,83.0954492 260.421004,80.586231 265.036173,80.6982497 C270.995566,80.8326721 273.975263,84.887748 273.773629,92.1017503 C273.751225,92.9978996 274.400933,92.9530922 274.849008,92.3257876 C276.22994,90.2427023 277.922464,88.3839485 279.867445,86.8144691 C283.989732,83.4091015 288.224037,81.8856476 292.615169,82.1992999 C295.286516,82.383925 297.760495,83.6720639 299.443598,85.7546923 C301.126702,87.8373208 301.867055,90.5265119 301.487048,93.1771295 C301.043979,96.7942054 298.848747,99.9613719 295.61727,101.645741 C292.771995,103.057176 289.478646,102.810735 287.171062,100.749592 C285.341648,99.0333112 284.572159,96.4683461 285.154726,94.0284714 C285.266744,93.5131855 284.594632,93.0203034 284.034539,93.6028005 C278.724854,99.114119 278.343991,106.26091 281.794166,109.464644 C285.625204,113.004434 291.338156,110.629638 295.527655,107.918786 C303.189732,102.90035 309.104317,96.1344224 315.95986,90.9143524 C320.530222,87.4641774 325.705484,84.3948658 331.530455,83.5883314 C334.732748,83.1095939 338.004811,83.4963626 341.007235,84.7085181 C345.174329,86.3887981 347.81797,89.9061844 348.154026,92.9530922 C348.221237,93.8492415 348.915753,93.9612602 349.453442,93.1771295 L350.698647,91.2565966 L364.715998,69.9752571 C368.356562,64.423973 371.33977,59.8151212 371.901984,58.7425904 C372.30105,57.9234539 372.759189,57.7541132 373.590222,57.7361453 L386.419603,57.7344224 Z M220.070991,28.2595659 L226.682699,29.3672128 C233.745126,30.5485368 240.844621,31.7027771 248.031739,32.5750292 C268.687981,35.0618436 288.492882,35.1290548 309.261144,30.3346558 C311.725554,29.8193699 313.428238,31.3876313 313.293816,33.852042 C313.069778,37.4366394 310.291715,40.8868145 303.458576,44.6058343 C295.684481,48.8849475 287.551925,50.1843641 279.038506,50.2515753 C266.341926,50.3624624 254.177029,47.3346967 242.050398,43.9908482 L237.804382,42.811387 C231.74712,41.1231757 225.685032,39.4383112 219.556593,38.1087515 C219.578996,38.9824971 219.825438,40.0130688 219.108518,40.5731622 L217.741934,41.5823755 C207.309296,49.3294438 197.928588,57.3414236 191.551925,68.3985998 C191.346558,68.6450408 191.442396,68.8914819 191.753157,68.8963309 L194.686685,68.7550888 C198.887852,68.5613899 202.826475,68.4033969 206.852262,68.1015299 L208.1979,67.9953326 C209.116453,67.9281214 209.16126,67.704084 209.094049,67.0095683 C208.503103,62.6860121 210.058474,58.3460248 213.261144,55.3820303 C216.845741,52.1782964 221.326488,51.7974329 224.306184,54.1274212 C227.666744,56.7486581 227.375496,61.4982497 225.53839,65.0380397 C223.923239,68.0780909 221.184914,70.3606738 217.915014,71.4055282 L217.47896,71.5377738 C217.311314,71.5974288 216.956036,71.7763935 217.024971,72.2072345 C217.136989,73.1033839 221.214469,75.366161 221.550525,75.9710618 C221.886581,76.5535589 221.707351,77.4273046 221.10245,78.0994166 C220.617354,78.6899458 219.895128,79.0346444 219.130922,79.0403734 C218.499544,79.0403734 218.090352,78.8367031 217.347881,78.4293625 L217.114586,78.3010502 C215.131177,77.241237 213.350832,75.8414885 211.854005,74.1668108 L211.513652,73.7754959 C210.975963,73.1257876 210.707118,73.1033839 209.430105,73.1929988 C203.838133,73.5156126 195.231658,74.3337611 189.121026,75.0726241 L188.370595,75.1645274 C186.869545,75.3437573 186.645508,75.6350058 186.354259,76.1502917 L183.937484,80.1333404 C174.822728,95.1368077 165.116434,110.73297 154.540957,121.473046 C142.218903,133.996733 131.957993,137.290082 121.069778,137.381098 C107.540163,137.468422 95.5915172,129.191174 94.0061214,114.808759 L93.9612602,114.371062 C93.1617677,106.751746 95.3549014,99.1199619 100.07748,93.0875146 C104.154959,87.7778296 111.055309,83.3866978 116.88028,82.3113186 C118.762194,81.9528588 121.316219,82.1768961 122.369195,83.4315053 C124.027071,85.3582264 123.556593,87.4641774 121.898716,88.3155193 C117.571501,90.5117441 112.400076,94.2486521 109.682446,99.321398 L109.44224,99.786231 C106.95371,104.385369 107.221193,109.985247 110.136756,114.326254 C115.570782,122.532742 130.644325,122.834386 144.749086,110.013989 L145.176196,109.62147 C148.715986,106.372929 151.852509,103.25881 155.056243,99.5845974 L157.167314,97.1586529 C158.607666,95.4910243 159.840744,94.0299529 161.063328,92.5212283 L161.507792,91.970048 C164.176008,88.6449311 166.907818,84.9462867 171.747025,78.233839 C171.836639,78.0994166 171.881447,77.9201867 171.836639,77.8529755 C171.769428,77.6961494 171.65741,77.6737456 171.410968,77.6289382 C165.854842,77.808168 160.993232,79.4660443 156.288448,82.9834306 C154.944224,83.9691949 152.972695,83.8347725 152.121354,82.5353559 C151.180397,81.0567095 151.852509,79.1299883 153.42077,78.0546091 C159.760506,73.6280481 166.602744,72.2479102 173.631961,71.0744704 L177.751225,70.3925321 C177.751225,70.3925321 178.333722,70.3925321 178.826604,69.7876313 C182.299183,65.3068845 184.92042,61.2966161 188.617036,56.7934656 C192.35846,52.2231039 197.175263,48.0112019 200.849475,44.8522754 C204.976669,41.3172435 207.910942,39.6650156 210.630791,38.2033677 L212.347777,37.2796524 L212.633839,37.1229872 C213.529988,36.6749125 212.52182,36.1148191 212.252975,36.1148191 L203.573726,34.4635915 C187.589381,31.4684968 171.264483,29.1076205 155.549125,34.9274212 C142.689382,39.7218203 137.043641,49.937923 139.754492,56.7486581 C141.681214,61.5878646 148.043874,62.3495916 154.003267,59.4371062 C158.767795,57.1198133 163.218296,53.3789374 166.444098,48.5989854 L166.773396,48.1008168 C168.565694,45.3003501 172.396733,47.3166861 170.335589,52.1782964 C164.891482,64.9484247 154.518553,75.0749125 141.882847,75.5005834 C131.106651,75.8590432 124.161494,67.9281214 124.183897,58.1600933 C124.228705,38.8928821 145.691482,26.2123687 168.207235,24.3080513 C185.856896,22.8518086 202.900761,25.3995053 220.070991,28.2595659 Z M337.691482,93.221937 C333.345158,91.1383897 326.691249,94.991832 320.664644,102.385064 C315.735823,108.456476 313.047375,114.617503 312.95776,120.644107 C312.935356,122.772462 313.74189,125.416103 315.623804,126.401867 C319.880513,128.619837 325.010968,125.304084 328.729988,122.234772 C331.171995,120.218436 333.210735,118.134889 335.003034,115.446441 L336.298629,113.523359 C337.625046,111.550362 338.732597,109.827057 339.931855,107.291482 C340.155893,106.821004 340.066278,106.686581 339.84224,106.61937 C339.349358,106.434539 338.837651,106.08028 338.704019,105.677389 L338.677246,105.566394 C338.595666,105.281723 338.627795,104.976498 338.766861,104.715053 L338.976723,104.279529 C340.876481,100.2526 342.058245,95.3188479 337.691482,93.221937 Z M217.316219,58.272112 C215.268539,60.0782087 214.238476,62.7747971 214.56056,65.4861144 C214.717386,66.3150516 215.053442,66.4718786 215.434306,66.3822637 C217.524237,65.8133373 219.338265,64.5085102 220.542357,62.7080513 C221.662544,61.0949825 222.17783,58.7649942 221.080047,57.8240373 C220.094282,56.9950992 218.503617,57.2191365 217.316219,58.272112 Z" id="Shape" fill="#FFFFFF" fill-rule="nonzero"></path>
    </g>
</svg>