<?xml version="1.0" encoding="UTF-8"?>
<svg width="480px" height="280px" viewBox="0 0 480 280" version="1.1" xmlns="http://www.w3.org/2000/svg" xmlns:xlink="http://www.w3.org/1999/xlink">
    <title>general-mills</title>
    <g id="general-mills" stroke="none" stroke-width="1" fill="none" fill-rule="evenodd">
        <g id="General-Mills-logo" fill="#FFFFFF" fill-rule="nonzero">
            <path d="M89.5798132,26.7961165 L97.365689,26.7961165 C105.151565,27.423359 112.847948,29.5739049 119.380924,34.0542088 C127.1668,39.1617552 132.715355,47.4055143 135.042169,56.4557281 C137.905939,67.6564878 136.742532,79.7533083 132.625862,90.5060376 C131.28347,94.3590989 129.941078,98.1225541 128.598685,101.886009 C134.863183,100.2731 141.038188,97.3160994 145.512829,92.4773713 C150.345442,87.549037 152.851241,80.8285812 154.462112,74.1977315 C165.917194,74.1081254 177.372275,74.1977315 188.737864,74.1977315 C182.831338,89.878795 178.446189,106.545525 178.80416,123.481074 C178.893653,143.015199 186.053079,161.563657 187.932429,180.828964 C189.364314,193.911451 188.91685,207.352363 185.247644,219.986819 C181.846916,231.814822 175.582419,242.836369 166.991107,251.707371 C158.399796,260.667979 147.660657,267.47804 136.116083,271.958344 C121.349766,277.693133 105.330551,279.933285 89.4903203,279.574861 C70.6073341,279.216437 51.5453622,274.915345 35.3471608,264.96907 C21.38628,256.456493 9.84170545,243.553218 4.02467178,228.140972 C-1.79236189,212.818333 -1.34489776,195.07633 5.63554264,180.201721 C11.0051122,168.552931 20.7598302,159.144293 32.2149119,153.588716 C46.4442712,146.778654 62.6424726,144.986533 78.1247315,146.599442 C80.2725593,140.954259 82.4203871,135.309076 84.6577078,129.663893 C71.5917552,124.018711 59.6892094,114.789285 52.8877546,102.065222 C42.417094,82.979127 44.7439075,57.1725768 59.7787022,41.1330889 C67.2960996,32.6205115 78.3037171,27.6025712 89.5798132,26.7961165 M80.9885019,66.760427 C78.39321,72.495216 78.1247315,79.48449 80.8990091,85.219279 C83.9417652,91.5813105 88.7743777,97.4953116 95.307354,100.362706 C96.6497464,97.3160994 97.7236603,94.1798867 98.9765599,91.1332801 C100.855909,86.2049458 103.09323,81.3662177 103.630187,76.0794591 C104.256637,71.6887613 103.630187,66.8500331 100.766416,63.3553961 C97.8131531,59.771153 92.6225692,58.4270618 88.2374208,59.8607591 C84.9261862,60.936032 82.4203871,63.7138204 80.9885019,66.760427 M116.696139,133.696167 C114.100847,140.775047 111.32657,147.853927 108.820771,155.022413 C116.696139,158.696262 124.839987,162.549324 131.014991,168.911355 C127.1668,178.85763 123.229116,188.714298 119.201938,198.570967 C113.116426,192.477754 105.957,187.370207 97.902646,184.233995 C93.5174975,195.793179 89.3113347,207.441969 85.0156791,219.001153 C73.8290758,219.001153 62.6424726,219.001153 51.4558694,219.001153 C56.4674677,205.560241 61.3895731,192.208935 66.4011713,178.768024 C55.3935537,178.4096 44.3859362,184.054782 38.3899169,193.373814 C35.8841177,197.316482 34.3627397,201.975998 34.9891895,206.72512 C35.7051321,216.581788 40.8062232,225.900821 48.4131133,232.173246 C58.7942811,240.775429 72.4866835,244.359672 85.7316217,245.345339 C96.6497464,246.062188 107.925842,245.434945 118.30701,241.940308 C127.703757,238.893702 136.474054,233.248519 142.559566,225.363184 C150.61392,215.237697 153.656676,201.796786 152.761748,189.072723 C151.86682,179.30566 149.540006,169.71781 147.75015,160.12996 C145.691815,149.287624 143.991451,138.266077 143.991451,127.154923 C135.221154,130.470348 126.092886,132.7105 116.696139,133.696167" id="Shape"></path>
            <path d="M171.923444,61.7475728 C189.155461,48.5697084 197.905396,41.2187908 203.44107,31.5370944 C211.298156,17.8213579 206.566047,6.25710953 196.566121,1.68519737 C187.280474,-2.52813345 176.209127,1.41626136 171.834159,10.649731 C167.548476,1.5059067 156.477129,-2.52813345 147.102197,1.68519737 C137.191556,6.25710953 132.370162,17.8213579 140.227248,31.5370944 C145.941491,41.2187908 154.691427,48.5697084 171.923444,61.7475728" id="Path"></path>
            <path d="M217.864078,98.6703645 L217.864078,98.4911283 C217.864078,84.6899398 228.722783,73.3980583 243.472523,73.3980583 C252.249976,73.3980583 257.58884,75.728129 262.656235,80.0297982 L255.869545,88.0954279 C252.068998,84.9587941 248.720897,83.166432 243.110567,83.166432 C235.328495,83.166432 229.084739,89.9774081 229.084739,98.222274 L229.084739,98.4015102 C229.084739,107.273703 235.238005,113.726207 243.924969,113.726207 C247.816005,113.726207 251.345084,112.740407 254.059761,110.858427 L254.059761,103.957833 L243.201056,103.957833 L243.201056,94.7271678 L264.466019,94.7271678 L264.466019,115.787423 C259.398624,119.999474 252.521444,123.49458 243.563013,123.49458 C228.360826,123.584198 217.864078,113.009262 217.864078,98.6703645" id="Path"></path>
            <path d="M271.456311,104.40565 L271.456311,104.227243 C271.456311,93.7012592 278.910331,85.0485437 289.647671,85.0485437 C301.893562,85.0485437 307.572816,94.5932917 307.572816,105.119276 C307.572816,105.922105 307.484077,106.903341 307.395339,107.884576 L281.838697,107.884576 C282.903557,112.612349 286.186875,115.11004 290.801269,115.11004 C294.262064,115.11004 296.835476,114.039601 299.675103,111.363503 L305.620572,116.626495 C302.159777,120.908251 297.279168,123.495146 290.623792,123.495146 C279.620238,123.495146 271.456311,115.734463 271.456311,104.40565 M297.367906,101.372739 C296.746738,96.7341698 293.995849,93.5228527 289.647671,93.5228527 C285.299492,93.5228527 282.548603,96.6449665 281.66122,101.372739 L297.367906,101.372739 Z" id="Shape"></path>
            <path d="M315.728155,86.8320066 L326.15826,86.8320066 L326.15826,92.0443565 C328.565207,88.9522845 331.685324,86.2135922 336.94495,86.2135922 C344.878961,86.2135922 349.514563,91.4259421 349.514563,99.8187089 L349.514563,123.495146 L339.084458,123.495146 L339.084458,103.087471 C339.084458,98.1401555 336.766657,95.666498 332.755079,95.666498 C328.7435,95.666498 326.247406,98.2285004 326.247406,103.087471 L326.247406,123.495146 L315.817302,123.495146 L315.817302,86.8320066 L315.728155,86.8320066 Z" id="Path"></path>
            <path d="M356.504854,104.40565 L356.504854,104.227243 C356.504854,93.7012592 363.958875,85.0485437 374.696214,85.0485437 C386.942105,85.0485437 392.621359,94.5932917 392.621359,105.119276 C392.621359,105.922105 392.532621,106.903341 392.443883,107.884576 L366.88724,107.884576 C367.9521,112.612349 371.235419,115.11004 375.849813,115.11004 C379.310608,115.11004 381.88402,114.039601 384.723647,111.363503 L390.669116,116.626495 C387.20832,120.908251 382.327712,123.495146 375.672336,123.495146 C364.668782,123.495146 356.504854,115.734463 356.504854,104.40565 M382.41645,101.372739 C381.795282,96.7341698 379.044393,93.5228527 374.696214,93.5228527 C370.348036,93.5228527 367.597147,96.6449665 366.709764,101.372739 L382.41645,101.372739 Z" id="Shape"></path>
            <path d="M400.776699,86.9350639 L411.177916,86.9350639 L411.177916,94.2647421 C413.311498,89.2311077 416.778571,85.9636608 422.912621,86.2285889 L422.912621,97.0906422 L422.379226,97.0906422 C415.445081,97.0906422 411.177916,101.241183 411.177916,109.983811 L411.177916,123.495146 L400.776699,123.495146 L400.776699,86.9350639 L400.776699,86.9350639 Z" id="Path"></path>
            <path d="M426.407767,112.268756 L426.407767,112.087891 C426.407767,103.948957 432.510547,100.150788 441.178265,100.150788 C444.893001,100.150788 447.546383,100.783816 450.11132,101.688142 L450.11132,101.055114 C450.11132,96.6239163 447.457937,94.1822361 442.239618,94.1822361 C438.259544,94.1822361 435.517715,94.9056969 432.156763,96.1717533 L429.591826,88.0328194 C433.660347,86.2241675 437.551975,85.0485437 443.831647,85.0485437 C449.492197,85.0485437 453.560718,86.5858979 456.214101,89.2084432 C458.955929,92.0118538 460.194175,96.0813207 460.194175,101.145546 L460.194175,122.84937 L450.11132,122.84937 L450.11132,118.779903 C447.546383,121.673746 444.096986,123.482398 439.055558,123.482398 C432.068317,123.753696 426.407767,119.684229 426.407767,112.268756 M450.288212,109.827076 L450.288212,107.927991 C448.51929,107.114098 446.219692,106.571502 443.654755,106.571502 C439.232451,106.571502 436.490622,108.380154 436.490622,111.72616 L436.490622,111.907025 C436.490622,114.800869 438.79022,116.428655 442.151172,116.428655 C447.015707,116.428655 450.288212,113.715677 450.288212,109.827076" id="Shape"></path>
            <rect id="Rectangle" x="469.514563" y="73.3980583" width="10.4854369" height="50.0970874"></rect>
            <polygon id="Path" points="219.029126 140.970874 230.69684 140.970874 243.540369 161.631068 256.383899 140.970874 267.961165 140.970874 267.961165 189.902913 257.288373 189.902913 257.288373 157.915858 243.540369 178.847896 243.269027 178.847896 229.611471 158.187702 229.611471 189.902913 219.029126 189.902913"></polygon>
            <path d="M278.446602,139.805825 L290.097087,139.805825 L290.097087,149.043586 L278.446602,149.043586 L278.446602,139.805825 Z M278.728469,153.129519 L289.721265,153.129519 L289.721265,189.902913 L278.728469,189.902913 L278.728469,153.129519 Z" id="Shape"></path>
            <rect id="Rectangle" x="300.582524" y="139.805825" width="10.4854369" height="50.0970874"></rect>
            <rect id="Rectangle" x="320.38835" y="139.805825" width="10.4854369" height="50.0970874"></rect>
            <path d="M337.864078,185.421957 L342.398698,178.521285 C346.479856,181.389096 350.742399,182.912621 354.279402,182.912621 C357.362944,182.912621 358.72333,181.837192 358.72333,180.134429 L358.72333,179.95519 C358.72333,177.625093 355.095634,176.90814 350.923784,175.653473 C345.663624,174.129948 339.677926,171.710232 339.677926,164.540702 L339.677926,164.361464 C339.677926,156.833458 345.845009,152.621359 353.372478,152.621359 C358.088483,152.621359 363.348643,154.234503 367.339108,156.923077 L363.25795,164.182226 C359.539562,162.031367 355.821173,160.68708 353.100401,160.68708 C350.470321,160.68708 349.200628,161.762509 349.200628,163.286034 L349.200628,163.465273 C349.200628,165.526512 352.737632,166.512323 356.81879,167.856609 C362.078949,169.559373 368.15534,172.068708 368.15534,178.879761 L368.15534,179.058999 C368.15534,187.303958 361.897564,191.067961 353.82594,191.067961 C348.747166,191.067961 342.85216,189.365198 337.864078,185.421957" id="Path"></path>
        </g>
    </g>
</svg>