<?xml version="1.0" encoding="UTF-8"?>
<svg width="480px" height="208px" viewBox="0 0 480 208" version="1.1" xmlns="http://www.w3.org/2000/svg" xmlns:xlink="http://www.w3.org/1999/xlink">
    <title>huge</title>
    <g id="huge" stroke="none" stroke-width="1" fill="none" fill-rule="evenodd">
        <g id="Huge" transform="translate(0, 0)" fill="#FFFFFF" fill-rule="nonzero">
            <polygon id="Path" points="0 0 21.6810102 0 21.6810102 65.4744936 104.090422 65.4744936 104.090422 0 125.771433 0 125.771433 158.454746 104.090422 158.454746 104.090422 84.3509951 21.6810102 84.3509951 21.6810102 158.454746 0 158.454746"></polygon>
            <path d="M164.144509,42.9305576 L164.144509,119.623086 C164.144509,125.519746 165.079346,130.337748 166.949018,134.077093 C170.400721,140.980499 176.836709,144.432203 186.256982,144.432203 C199.776153,144.432203 208.980695,138.391722 213.870607,126.310761 C216.531295,119.838818 217.861639,110.957873 217.861639,99.6679277 L217.861639,42.9305576 L237.277469,42.9305576 L237.277469,158.454746 L218.940296,158.454746 L219.156028,141.411962 C216.639161,145.798502 213.511055,149.501892 209.77171,152.522132 C202.36493,158.562612 193.37612,161.582852 182.805279,161.582852 C166.337779,161.582852 155.119744,156.081701 149.151174,145.079397 C145.915202,139.182737 144.297216,131.30854 144.297216,121.456804 L144.297216,42.9305576 L164.144509,42.9305576 Z" id="Path"></path>
            <path d="M303.627216,40.8811089 C312.687937,40.8811089 320.59809,43.1103338 327.357675,47.5687837 C331.02511,50.0856505 334.764455,53.7530851 338.57571,58.5710874 L338.57571,44.0092148 L356.48142,44.0092148 L356.48142,149.070429 C356.48142,163.740167 354.324106,175.317754 350.009477,183.803191 C341.955503,199.479676 326.746436,207.317919 304.382276,207.317919 C291.941763,207.317919 281.478788,204.531388 272.993351,198.958325 C264.507914,193.385263 259.761822,184.666117 258.755075,172.800888 L278.494503,172.800888 C279.429339,177.978442 281.299011,181.969474 284.10352,184.773983 C288.49006,189.088612 295.393466,191.245926 304.813739,191.245926 C319.699209,191.245926 329.443079,185.996461 334.04535,175.497531 C336.777948,169.313229 338.036382,158.27497 337.82065,142.382754 C333.937484,148.279413 329.263303,152.665953 323.798106,155.542372 C318.33291,158.418791 311.105906,159.857001 302.117096,159.857001 C289.604672,159.857001 278.656301,155.416529 269.271983,146.535584 C259.887666,137.65464 255.195507,122.966924 255.195507,102.472436 C255.195507,83.1285169 259.923621,68.0273157 269.379849,57.168833 C278.836077,46.3103502 290.251866,40.8811089 303.627216,40.8811089 Z M338.57571,100.207256 C338.57571,85.8970704 335.62738,75.2902744 329.730721,68.3868681 C323.834061,61.4834619 316.319416,58.0317588 307.186785,58.0317588 C293.523793,58.0317588 284.175431,64.4317916 279.141697,77.2318574 C276.481009,84.0633531 275.150665,93.0162081 275.150665,104.090422 C275.150665,117.106219 277.793376,127.011888 283.078796,133.807429 C288.364216,140.602969 295.465376,144.00074 304.382276,144.00074 C318.33291,144.00074 328.14869,137.708572 333.829618,125.124238 C336.99368,118.005101 338.57571,109.69944 338.57571,100.207256 Z" id="Shape"></path>
            <path d="M429.087379,40.3417802 C437.285174,40.3417802 445.231282,42.2653856 452.925704,46.1125964 C460.620125,49.9598072 466.480829,54.939608 470.507816,61.051999 C474.390982,66.876748 476.97976,73.6722885 478.274148,81.4386206 C479.424716,86.7599962 480,95.245433 480,106.894931 L395.325408,106.894931 C395.68496,118.61634 398.453514,128.018635 403.631068,135.101818 C408.808623,142.185 416.826642,145.726591 427.685125,145.726591 C437.824502,145.726591 445.914432,142.382754 451.954912,135.695079 C455.406615,131.811913 457.851572,127.317508 459.289781,122.211864 L478.382014,122.211864 C477.878641,126.454582 476.206722,131.182696 473.366258,136.396206 C470.525794,141.609716 467.343755,145.870412 463.820142,149.178294 C457.923482,154.931133 450.624568,158.814299 441.9234,160.827792 C437.249219,161.97836 431.963798,162.553644 426.067139,162.553644 C411.685042,162.553644 399.496216,157.322156 389.500659,146.859181 C379.505102,136.396206 374.507323,121.744446 374.507323,102.903899 C374.507323,84.3509951 379.541057,69.2857491 389.608524,57.7081616 C399.675992,46.130574 412.83561,40.3417802 429.087379,40.3417802 Z M460.044841,91.4701328 C459.253826,83.0566064 457.420109,76.3329763 454.543689,71.2992426 C449.222314,61.95088 440.341369,57.2766987 427.900856,57.2766987 C418.983956,57.2766987 411.505266,60.4946927 405.464786,66.9306809 C399.424305,73.366669 396.224289,81.5464863 395.864736,91.4701328 L460.044841,91.4701328 Z" id="Shape"></path>
        </g>
    </g>
</svg>