<?xml version="1.0" encoding="UTF-8"?>
<svg width="480px" height="82px" viewBox="0 0 480 82" version="1.1" xmlns="http://www.w3.org/2000/svg" xmlns:xlink="http://www.w3.org/1999/xlink">
    <title>keurig</title>
    <g id="keurig" stroke="none" stroke-width="1" fill="none" fill-rule="evenodd">
        <path d="M93.4396216,1.68 L149.279395,1.68 L149.279395,18 L113.759539,18 L113.759539,32.08 L146.559406,32.08 L146.559406,48.56 L113.759539,48.56 L113.759539,64 L149.279395,64 L149.279395,80.32 L93.4396216,80.32 L93.4396216,1.68 Z M218.879114,54.8 C218.879114,61.04 215.439127,64.48 205.439168,64.48 C195.439208,64.48 192.159222,60.96 192.159222,54.8 L192.159222,1.68 L171.919304,1.68 L171.919304,57.04 C171.919304,69.44 179.519273,81.84 205.519168,81.84 C231.679062,81.84 239.279031,69.44 239.279031,57.04 L239.279031,1.68 L219.039113,1.68 L219.039113,54.8 L218.879114,54.8 Z M356.638556,80.32 L376.878474,80.32 L376.878474,1.68 L356.638556,1.68 L356.638556,80.32 Z M446.158193,41.44 L446.158193,63.52 C442.558208,64.16 438.478224,64.56 434.078242,64.56 C423.678284,64.56 421.678292,60.96 421.678292,54.24 L421.678292,27.12 C421.678292,19.84 425.198278,17.44 433.758243,17.44 C442.07821,17.44 451.198173,18.32 460.798134,19.68 L462.638126,2.72 C452.638167,0.72 443.278205,0 434.158242,0 C411.038335,0 401.358375,7.84 401.358375,24.48 L401.358375,57.2 C401.358375,72.96 410.158339,81.68 433.598244,81.68 C443.998202,81.68 455.198156,80.32 464.798118,77.6 L464.798118,41.28 L446.158193,41.28 L446.158193,41.44 Z M12.3199501,28.64 C5.51997764,28.64 0,34.16 0,41.04 C0,47.84 5.51997764,53.44 12.3199501,53.44 C19.1199226,53.44 24.6399002,47.92 24.6399002,41.04 C24.6399002,34.16 19.1199226,28.64 12.3199501,28.64 M12.3199501,0.16 C5.51997764,0.16 0,5.68 0,12.56 C0,19.36 5.51997764,24.96 12.3199501,24.96 C19.1199226,24.96 24.6399002,19.44 24.6399002,12.56 C24.6399002,5.68 19.1199226,0.16 12.3199501,0.16 M12.3199501,57.12 C5.51997764,57.12 0,62.64 0,69.52 C0,76.32 5.51997764,81.92 12.3199501,81.92 C19.1199226,81.92 24.6399002,76.4 24.6399002,69.52 C24.6399002,62.64 19.1199226,57.12 12.3199501,57.12 M74.2396993,1.68 L51.4397917,1.68 L28.3198853,41.04 L51.4397917,80.4 L74.1596997,80.4 L50.3197962,41.04 L74.2396993,1.68 Z M319.678705,54 L335.598641,80.32 L312.878733,80.32 L300.238784,58.08 L284.718847,58.08 L284.718847,80.32 L264.478929,80.32 L264.478929,1.68 L301.678778,1.68 C322.878692,1.68 329.678665,10 329.678665,24.4 L329.678665,35.44 C329.598665,44.32 327.198675,49.52 319.678705,54 L319.678705,54 Z M309.998745,25.28 C309.998745,20.16 307.598754,18 301.518779,18 L284.718847,18 L284.718847,42.08 L301.038781,42.08 C307.518755,42.08 309.998745,39.68 309.998745,34.4 L309.998745,25.28 L309.998745,25.28 Z M474.798077,0.56 C471.918089,0.56 469.598098,2.88 469.598098,5.84 C469.598098,8.72 471.918089,11.12 474.798077,11.12 C477.678065,11.12 479.998056,8.72 479.998056,5.84 C480.078056,2.88 477.678065,0.56 474.798077,0.56 M474.798077,10.4 C472.238096,10.4 470.238096,8.32 470.238096,5.76 C470.238096,3.2 472.318087,1.2 474.798077,1.2 C477.278067,1.2 479.358059,3.28 479.358059,5.76 C479.358059,8.32 477.358067,10.4 474.798077,10.4 M475.118076,6.48 L473.918081,6.48 L473.918081,8.16 L473.198084,8.16 L473.198084,3.2 L475.118076,3.2 C476.158072,3.2 476.63807,3.68 476.63807,4.48 L476.63807,5.2 C476.63807,5.76 476.47807,6.08 475.918073,6.32 L477.278067,8.08 L476.398071,8.08 L475.118076,6.48 Z M475.118076,3.84 L473.918081,3.84 L473.918081,5.84 L475.118076,5.84 C475.678074,5.84 475.918081,5.6 475.918081,5.2 L475.918081,4.48 C475.918081,4 475.678074,3.84 475.118076,3.84" id="Shape" fill="#FFFFFF" fill-rule="nonzero"></path>
    </g>
</svg>