<?xml version="1.0" encoding="UTF-8"?>
<svg width="480px" height="43px" viewBox="0 0 480 43" version="1.1" xmlns="http://www.w3.org/2000/svg" xmlns:xlink="http://www.w3.org/1999/xlink">
    <title>lincoln</title>
    <g id="lincoln" stroke="none" stroke-width="1" fill="none" fill-rule="evenodd">
        <path d="M222.028422,0.287856988 C214.296183,1.48850619 207.744223,6.40728069 204.90184,13.1451475 C203.594568,16.2439512 203.37398,17.4777627 203.390678,21.6004235 C203.408255,25.9800369 203.753638,27.6049873 205.350927,30.8243611 C207.399938,34.9536104 210.66702,38.1466302 215.019906,40.2740655 C219.063661,42.2506235 223.431268,43.0280697 228.061208,42.5960819 C234.040384,42.0380337 238.597601,39.9400272 243.234791,35.6107062 L245.084746,33.8836337 L241.955202,31.036292 C240.233778,29.4701992 238.744806,28.1595216 238.645937,28.1237239 C238.547287,28.0877067 237.738976,28.6887999 236.849811,29.4594379 C233.131885,32.6816668 230.560404,33.8583777 226.604753,34.1473944 C222.047537,34.4803346 217.42309,32.1475569 214.889618,28.2379251 C213.634637,26.3011178 213.123153,24.5993013 212.993085,21.9272145 C212.863017,19.25952 213.185551,17.6227103 214.29069,15.3413231 C215.248624,13.3636669 217.790224,10.8591483 219.831766,9.88141088 C224.983736,7.41378797 231.14637,8.42688378 235.975367,12.5348303 C236.866948,13.2931697 237.761386,14.0361359 237.963079,14.1854758 C238.280779,14.4209059 238.768315,14.0345986 241.615092,11.2931126 L244.900409,8.12908237 L243.715516,7.06832955 C239.071734,2.91096913 234.637335,0.79363623 229.337501,0.202864992 C226.681432,-0.0931794797 224.304613,-0.065507667 222.028422,0.287856988 M302.01892,0.266039496 C298.666002,0.915211724 295.307188,2.27942709 292.797084,4.01203162 C291.472816,4.92601821 289.028653,7.32221116 287.876878,8.83591135 C282.511248,15.8865383 282.332204,26.2506716 287.449576,33.5497007 C288.535846,35.0988869 291.136782,37.696463 292.649045,38.7421914 C294.160217,39.7872544 297.451562,41.3222462 299.280427,41.8347973 C303.213272,42.9370815 308.17671,43.0056139 312.022654,42.0106749 C319.862798,39.9822057 325.611189,34.568371 327.883077,27.0728382 C328.430252,25.2674873 328.474576,24.8321183 328.474576,21.2404904 C328.474576,17.6497495 328.430252,17.2132716 327.883732,15.4101386 C325.634989,7.99178784 320.095555,2.69394807 312.493189,0.690540912 C309.8333,-0.0103078211 304.551732,-0.22433283 302.01892,0.266039496 M0,21.8644068 L0,42.7118644 L15.7627119,42.7118644 L31.5254237,42.7118644 L31.5254237,38.3871259 L31.5254237,34.0623873 L20.4696328,34.0623873 L9.41384181,34.0623873 L9.41384181,17.5396682 L9.41384181,1.01694915 L4.7069209,1.01694915 L0,1.01694915 L0,21.8644068 M72.5055902,17.0406599 C72.5051313,25.85359 72.4372108,35.2351677 72.3541458,37.8881176 L72.2033898,42.7118644 L77.2882503,42.7118644 L82.3728814,42.7118644 L82.3728814,21.8644068 L82.3728814,1.01694915 L77.4394653,1.01694915 L72.5060492,1.01694915 L72.5055902,17.0406599 M126.248984,1.16330906 C126.167942,1.24448414 126.101695,10.6261942 126.101695,22.0115536 L126.101695,42.7118644 L130.847628,42.7118644 L135.593561,42.7118644 L135.650534,29.8921901 L135.707506,17.0725158 L145.53414,28.6956339 C150.938789,35.0885042 155.840845,40.7550127 156.427572,41.2881954 C157.014078,41.8211564 157.858727,42.3589968 158.304569,42.4834209 C158.750191,42.6076232 160.381633,42.7098683 161.930266,42.7105337 L164.745763,42.7118644 L164.745763,21.9745147 L164.745763,1.23716508 L159.99983,1.23716508 L155.254117,1.23716508 L155.196924,13.580213 L155.139952,25.923261 L145.489755,14.5030805 C140.182047,8.22177059 135.444285,2.72404414 134.961123,2.28556563 C134.477962,1.84708712 133.702873,1.38265921 133.238923,1.25313394 C132.321844,0.997410263 126.488798,0.922445298 126.248984,1.16330906 M371.330763,10.9689114 C371.251646,16.4425995 371.186875,25.5949243 371.186441,31.3078945 L371.186441,41.6949153 L386.949261,41.6949153 L402.711864,41.6949153 L402.652962,37.5074776 L402.593842,33.3200399 L391.671891,33.2636998 L380.74994,33.2073597 L380.74994,17.1121544 L380.74994,1.01694915 L376.112295,1.01694915 L371.47465,1.01694915 L371.330763,10.9689114 M441.355932,21.3560409 L441.355932,41.6949153 L446.101865,41.6949153 L450.847799,41.6949153 L450.904771,29.1758255 L450.961743,16.6567358 L461.259615,28.5841191 C469.905286,38.5976954 471.734807,40.6064972 472.662044,41.1032089 C473.716033,41.6679602 473.90837,41.6949153 476.88308,41.6949153 L480,41.6949153 L480,21.3699532 L480,1.04499108 L475.254067,1.04499108 L470.508354,1.04499108 L470.451161,13.1962751 L470.394189,25.3475591 L460.476796,13.8327616 C455.02202,7.49963385 450.210723,2.05602208 449.784755,1.73582241 C449.023799,1.16368016 448.944081,1.15259382 445.18302,1.08542362 L441.355932,1.01694915 L441.355932,21.3560409 M302.238232,9.46286641 C298.125875,10.4849403 294.69234,13.7906969 293.372816,17.998427 C292.678831,20.2117366 292.724534,23.5541226 293.480033,25.8280373 C294.819917,29.8608339 297.590008,32.7072787 301.428584,33.995527 C303.686417,34.7534246 307.51178,34.7720723 309.794738,34.0363744 C316.06551,32.0155362 319.567923,25.3201083 317.884079,18.5722891 C317.282366,16.1611803 316.512355,14.8129928 314.634654,12.8836174 C312.828431,11.0275009 311.117728,10.0294026 308.770656,9.46242241 C307.059304,9.0490641 303.903016,9.04928609 302.238232,9.46286641" id="Shape" fill="#FFFFFF"></path>
    </g>
</svg>