<?xml version="1.0" encoding="UTF-8"?>
<svg width="480px" height="75px" viewBox="0 0 480 75" version="1.1" xmlns="http://www.w3.org/2000/svg" xmlns:xlink="http://www.w3.org/1999/xlink">
    <title>mamava</title>
    <g id="mamava" stroke="none" stroke-width="1" fill="none" fill-rule="evenodd">
        <path d="M30.6985668,22.69596 C34.8062741,22.69596 38.1248345,26.0135762 38.1248345,30.1241054 C38.1248345,34.2346347 34.8062741,37.5531925 30.6985668,37.5597844 C26.5955681,37.5531925 23.2694741,34.2261594 23.2694741,30.1241054 C23.2694741,26.0220515 26.5955681,22.69596 30.6985668,22.69596 Z M81.9262529,22.69596 C86.0339602,22.69596 89.357229,26.0229932 89.3666461,30.1241054 C89.357229,34.2346347 86.0339602,37.5531925 81.9262529,37.5597844 C77.8289044,37.5531925 74.500927,34.2261594 74.500927,30.1241054 C74.500927,26.0220515 77.8289044,22.7034936 81.9262529,22.69596 Z M82.1494364,7.10542736e-14 C99.1321032,0.00753361604 112.897914,13.7818088 112.910156,30.770113 L102.62017,30.770113 C102.616505,25.2497031 100.45544,20.2837982 96.9210978,16.5940691 L96.6234072,16.2895613 C92.9932196,12.6749527 88.0828556,10.4171874 82.6070474,10.2943168 L82.1494364,10.2890361 C76.6253574,10.2927011 71.6682646,12.4528733 67.9712053,15.9915014 L67.6660487,16.2895613 C63.9472646,20.0083425 61.6683441,25.0963584 61.6683441,30.770113 L51.243695,30.770113 C51.2345325,25.2497031 49.077776,20.2837982 45.5471405,16.5940691 L45.2497572,16.2895613 C41.6278159,12.6749527 36.7087598,10.4171874 31.2272714,10.2943168 L30.7691945,10.2890361 C25.2460318,10.2927011 20.2862892,12.4528733 16.5908209,15.9915014 L16.2858068,16.2895613 C12.5707896,20.0083425 10.2909273,25.0963584 10.2909273,30.770113 L-8.52651283e-14,30.770113 C0.00372914276,13.9516919 13.5002519,0.283340523 30.2594114,0.00434547825 L30.7682528,7.10542736e-14 C41.5040825,0.00475984108 50.9512693,5.50504362 56.4535085,13.8393234 C61.8681899,5.63695404 71.1059745,0.179580745 81.6402068,0.00434547825 L82.1494364,7.10542736e-14 Z M25.6237309,44.067887 L35.9061829,44.067887 C35.9061829,49.5882969 38.0698236,54.5506358 41.6017053,58.2436417 L41.899179,58.5484387 C45.5220366,62.1566336 50.4393344,64.4177915 55.9259314,64.5373806 L56.3844501,64.542372 C61.8984504,64.542372 66.8668602,62.3787329 70.556732,58.8459865 L70.861246,58.5484387 C74.5781466,54.8258907 76.8467085,49.7416416 76.8580089,44.067887 L87.1517613,44.067887 C87.1405739,60.8863081 73.6467454,74.5583513 56.8931229,74.8337653 L56.3844501,74.838 C39.5538966,74.8342709 25.8983352,61.3303746 25.626907,44.5765625 L25.6237309,44.067887 Z M419.264883,18.3678976 C419.773403,18.3678976 420.286631,18.4592427 420.793267,18.6381661 C423.204026,19.4828728 424.481916,22.1431809 423.656043,24.5473462 L423.06277,26.1708404 L413.295032,53.845554 C413.256012,53.9541512 413.21969,54.0550403 413.186192,54.1478653 C411.238335,59.520402 406.529502,63.0441377 401.094158,63.1776791 L400.684147,63.1816126 C395.117306,63.1816126 390.32517,59.6555318 388.58703,54.3662595 L387.974273,52.4374712 C387.659388,51.4642834 387.237259,50.1768084 386.713158,48.5913728 L383.082267,37.7049977 C381.888438,34.1457384 380.516915,30.0703228 378.981666,25.5220077 L378.632993,24.4412002 C377.942612,22.0702186 379.264285,19.5583973 381.60525,18.7643541 C382.064801,18.6014397 382.574262,18.5251618 383.088432,18.5251618 C385.077308,18.5251618 386.83735,19.7851591 387.477708,21.6647963 L392.255831,35.8778758 L395.576428,45.8654036 C396.400353,48.3671979 397.046523,50.3595672 397.350519,51.3604273 C398.010653,53.4255798 399.544687,53.883247 400.721815,53.8888972 C401.894235,53.883247 403.567641,53.3643692 404.45755,50.9658542 L409.200216,37.5900789 L414.745547,21.8314386 C414.803552,21.6736223 414.848379,21.5593257 414.885966,21.4745725 L414.87184,21.4745725 C415.525382,19.6269532 417.277891,18.3678976 419.264883,18.3678976 Z M175.705718,17.9290645 C184.794091,17.9987504 194.592508,25.192412 194.742238,35.7931515 L194.742238,58.155749 C194.742238,60.7134116 192.659192,62.8002233 190.099644,62.8002233 C187.540096,62.8002233 185.467408,60.7134116 185.467408,58.155749 L185.467408,35.8336447 C185.467408,33.7232905 184.416468,31.613878 182.518937,29.9376484 C180.63459,28.2303427 178.140961,27.2236632 175.754686,27.2236632 C173.368412,27.2236632 170.843707,28.219984 168.928283,29.9235229 C167.059945,31.588452 165.994879,33.6997479 165.994879,35.6989813 L165.994879,58.1566907 C165.994879,60.8377163 163.924075,62.9160526 161.356052,62.9160526 C158.788029,62.9160526 156.713458,60.838658 156.713458,58.2753451 L156.713458,35.8345864 C156.713458,33.7242322 155.668168,31.6298869 153.77252,29.9385901 C151.873106,28.2312844 149.361584,27.224605 147.008269,27.224605 C144.654954,27.224605 142.150025,28.219984 140.267561,29.9150476 C138.453842,31.5479589 137.408552,33.6498377 137.388776,35.6763804 L137.388776,58.2753451 C137.388776,59.5070914 136.921692,60.6700933 136.029899,61.5515264 C135.163533,62.4329595 133.999588,62.9160526 132.757482,62.9160526 C130.187575,62.9160526 128.116771,60.838658 128.116771,58.2753451 L128.116771,22.686543 C128.116771,20.1448893 130.186634,18.0580776 132.757482,18.0580776 C134.641829,18.0580776 136.286042,19.1928286 137.010212,20.8163228 C140.014243,18.982829 143.470292,17.9535487 146.974368,17.9300062 C152.399517,17.9808581 157.728613,20.4236331 161.347577,24.3806649 C164.882922,20.5250954 170.025732,18.1071242 175.290772,17.9386209 L175.705718,17.9290645 Z M303.4637,17.9290645 C312.559607,17.9987504 322.35614,25.192412 322.503988,35.7931515 L322.503988,58.155749 C322.503988,60.7134116 320.458609,62.8002233 317.875519,62.8002233 C315.292428,62.8002233 313.205615,60.7134116 313.205615,58.155749 L313.205615,35.8336447 C313.227274,33.7232905 312.181984,31.613878 310.274094,29.9376484 C308.379388,28.2303427 305.893293,27.2236632 303.514552,27.2236632 C301.135811,27.2236632 298.600747,28.219984 296.688149,29.9235229 C294.83017,31.5893937 293.750037,33.6856224 293.769813,35.7178153 L293.769813,58.1566907 C293.769813,60.8377163 291.671699,62.9160526 289.117801,62.9160526 C286.563903,62.9160526 284.47709,60.838658 284.47709,58.2753451 L284.47709,35.8345864 C284.47709,33.7242322 283.446867,31.6298869 281.543686,29.9385901 C279.63203,28.2312844 277.167594,27.224605 274.783202,27.224605 C272.398811,27.224605 269.915541,28.219984 268.036844,29.9150476 C266.212766,31.5479589 265.167476,33.6498377 265.167476,35.6763804 L265.163709,58.2753451 C265.163709,60.8377163 263.091021,62.9160526 260.531473,62.9160526 C257.971925,62.9160526 255.875695,60.838658 255.875695,58.2753451 L255.875695,22.686543 C255.875695,20.1448893 257.971925,18.0580776 260.531473,18.0580776 C262.415821,18.0580776 264.038374,19.1928286 264.776669,20.8163228 C267.761867,18.982829 271.222624,17.9535487 274.73235,17.9300062 C280.1688,17.9808581 285.492246,20.4236331 289.102734,24.3806649 C292.645419,20.5250954 297.781266,18.1071242 303.049428,17.9386209 L303.4637,17.9290645 Z M224.628,17.93 L224.998502,17.9334654 C237.198141,18.1466033 247.085842,28.1337994 247.085842,40.3914824 L247.085842,57.9740005 C247.085842,60.5439053 244.997145,62.624125 242.448898,62.624125 C240.079574,62.624125 238.112357,60.8377163 237.83738,58.5540889 C234.044201,61.3311681 229.446809,62.8652007 224.629057,62.8652007 C212.240016,62.8652007 202.155322,52.773922 202.155322,40.3914824 C202.155322,28.1328671 212.039331,18.1465846 224.258085,17.9334651 L224.628,17.93 Z M352.218475,17.9300062 C364.592449,17.9450734 374.671493,28.0099844 374.671493,40.3914824 L374.671493,57.9740005 C374.671493,60.5439053 372.575263,62.614708 370.021365,62.614708 C367.659574,62.614708 365.699891,60.8377163 365.41173,58.5540889 C361.626085,61.3311681 357.041876,62.8652007 352.218475,62.8652007 C339.820017,62.8652007 329.752273,52.773922 329.752273,40.3914824 C329.752273,28.0090427 339.820017,17.9450734 352.218475,17.9300062 Z M449.243989,17.9300062 C461.1586,17.9449227 470.94209,27.179308 471.639122,39.0506331 L471.659037,39.5116252 C471.666245,40.0070752 471.674608,41.1125623 471.681234,43.8033274 L471.696065,57.9740005 C471.696065,60.5439053 469.623378,62.614708 467.06383,62.614708 C464.698273,62.614708 462.753656,60.8377163 462.457962,58.5540889 C458.676084,61.3311681 454.078691,62.8652007 449.259057,62.8652007 C436.853065,62.8652007 426.785321,52.773922 426.785321,40.3914824 C426.785321,28.0090427 436.853065,17.9450734 449.243989,17.9300062 Z M224.629057,27.2236632 C217.359112,27.2396722 211.454636,33.1450855 211.445219,40.4037245 C211.454636,47.6520048 217.37418,53.5593015 224.629057,53.573427 C231.871693,53.5593015 237.783703,47.6520048 237.79877,40.3914824 C237.783703,33.1450855 231.871693,27.2396722 224.629057,27.2236632 Z M352.218475,27.2236632 C344.950413,27.2396722 339.035579,33.1450855 339.021453,40.4037245 C339.035579,47.6520048 344.95983,53.5593015 352.218475,53.573427 C359.451694,53.5593015 365.37312,47.6378793 365.37312,40.3914824 C365.37312,33.1450855 359.465819,27.2396722 352.218475,27.2236632 Z M449.258115,27.2236632 C441.98252,27.2396722 436.084636,33.1450855 436.061093,40.4037245 C436.084636,47.6520048 441.98252,53.5593015 449.258115,53.573427 C456.498867,53.5593015 462.406168,47.6520048 462.420294,40.3914824 C462.405226,33.1450855 456.516759,27.2396722 449.258115,27.2236632 Z M473.932609,11.6582708 C477.288838,11.6582708 480,14.2762024 480,17.5505003 C480,20.8963675 477.360407,23.5321914 473.932609,23.5321914 C470.504812,23.5321914 467.861452,20.8963675 467.861452,17.5505003 C467.861452,14.204633 470.576381,11.6582708 473.932609,11.6582708 Z M473.931668,12.8353983 C471.278891,12.8353983 469.379477,14.9749453 469.379477,17.551442 C469.380418,20.174082 471.334452,22.2646605 473.991937,22.2646605 C476.649422,22.2646605 478.486684,20.174082 478.486684,17.5909934 C478.486684,15.0079048 476.584444,12.8353983 473.931668,12.8353983 Z M473.901533,14.5822555 C475.036285,14.5822555 475.528796,14.735753 475.966687,15.0022546 C476.287808,15.2536891 476.536417,15.7151231 476.536417,16.2970949 C476.536417,16.931802 476.026015,17.4356126 475.321621,17.6597377 L475.321621,17.7284819 C475.848395,17.9275433 476.165743,18.3111559 476.338104,18.9815328 L476.507224,19.7032863 C476.635642,20.22436 476.720339,20.4711528 476.821753,20.6326909 L475.353639,20.6326909 C475.172832,20.4226914 475.054177,19.8972217 474.872429,19.1909451 C474.7679,18.5618882 474.412878,18.2878529 473.664224,18.2878529 L473.000324,18.2878529 L473.000324,20.6326909 L471.64898,20.6336326 L471.64898,14.735753 C472.170684,14.6283989 472.955122,14.5822555 473.901533,14.5822555 Z M473.806421,15.5390248 C473.452341,15.5390248 473.173597,15.5757512 473.051176,15.6105941 L473.051176,17.3009492 L473.700951,17.3009492 C474.427003,17.3009492 475.052294,17.0589318 475.052294,16.4289332 C475.052294,15.8893379 474.659604,15.5390248 473.806421,15.5390248 Z" id="Shape" fill="#FFFFFF" fill-rule="nonzero"></path>
    </g>
</svg>