<?xml version="1.0" encoding="UTF-8"?>
<svg width="480px" height="97px" viewBox="0 0 480 97" version="1.1" xmlns="http://www.w3.org/2000/svg" xmlns:xlink="http://www.w3.org/1999/xlink">
    <title>meta</title>
    <g id="meta" stroke="none" stroke-width="1" fill="none" fill-rule="evenodd">
        <g id="Meta_lockup_mono_white_RGB" fill="#FFFFFF" fill-rule="nonzero">
            <g id="Wordmark" transform="translate(175.4622, 3.0252)">
                <polygon id="Path" points="0 0 18.2352883 0 49.2419761 56.0713985 80.2482179 4.8463719e-05 98.0888127 4.8463719e-05 98.0888127 92.1357719 83.210998 92.1357719 83.210998 21.520644 56.0225827 70.4184525 42.0662301 70.4184525 14.8778147 21.520644 14.8778147 92.1357719 0 92.1357719"></polygon>
                <path d="M146.078509,93.7814448 C139.187765,93.7814448 133.131322,92.256802 127.90918,89.2075165 C122.686056,86.1582375 118.615468,81.9353545 115.697418,76.5388677 C112.778359,71.1421031 111.319654,64.955845 111.319654,57.9800936 C111.319654,50.9166681 112.745979,44.6645705 115.598628,39.2238008 C118.451271,33.7841748 122.412158,29.5282332 127.481289,26.4559759 C132.550555,23.385683 138.376634,21.8501165 144.959525,21.8492765 C151.498418,21.8492765 157.127062,23.3957699 161.84546,26.4887567 C166.562448,29.5825836 170.194043,33.9152918 172.740243,39.4868813 C175.285176,45.0592978 176.558486,51.596598 176.558486,59.0987817 L176.558486,63.1784575 L126.065849,63.1784575 C126.987718,68.7954284 129.25899,73.2158268 132.879664,76.4396528 C136.500331,79.6645967 141.075519,81.2769297 146.605229,81.2766518 C151.037641,81.2766518 154.855885,80.6185501 158.059959,79.3023465 C161.263193,77.9861495 164.269555,75.9899967 167.079046,73.3138883 L174.978675,82.9878767 C167.121921,90.1841444 157.488532,93.7814448 146.078509,93.7814448 Z M156.940927,39.1246053 C153.824289,35.9442157 149.742755,34.3537366 144.696325,34.353168 C139.780491,34.353168 135.666027,35.9767026 132.352934,39.2237717 C129.038722,42.4705695 126.943028,46.8360553 126.065849,52.3202291 L162.273342,52.3202291 C161.834055,46.7041177 160.056583,42.3055764 156.940927,39.1246053 Z" id="Shape"></path>
                <path d="M194.597872,35.6702277 L180.904662,35.6702277 L180.904662,23.4949493 L194.597872,23.4949493 L194.597872,3.35689765 L208.948957,3.35689765 L208.948957,23.4949493 L229.751498,23.4949493 L229.751498,35.6702277 L208.948957,35.6702277 L208.948957,66.5354036 C208.948957,71.6682543 209.826695,75.3316526 211.58217,77.5255987 C213.336805,79.7201135 216.343167,80.8169476 220.601257,80.8161011 C222.487463,80.8161011 224.089361,80.7393378 225.406952,80.5858112 C226.723553,80.4328403 228.171735,80.2243979 229.751498,79.9604838 L229.751498,92.0038149 C227.948783,92.5251579 226.112131,92.921132 224.254712,93.1888982 C222.129563,93.5015205 219.984073,93.6554761 217.836047,93.6496559 C202.343226,93.6496559 194.597168,85.181868 194.597872,68.2466285 L194.597872,35.6702277 Z" id="Path"></path>
                <path d="M304.537815,92.1357719 L290.449882,92.1357719 L290.449882,82.527355 C287.94825,86.125476 284.766453,88.9004795 280.904492,90.8523654 C277.04211,92.80398 272.653283,93.7803624 267.738011,93.7815126 C261.681713,93.7815126 256.316504,92.2347381 251.642384,89.1411891 C246.968264,86.0481957 243.292667,81.792532 240.615594,76.3741977 C237.93825,70.9555856 236.599781,64.7584006 236.599781,57.7826427 C236.599781,50.7629057 237.960385,44.5545159 240.681593,39.1574734 C243.402213,33.7615487 247.165526,29.5277389 251.971535,26.4560437 C256.777226,23.3857508 262.296012,21.8501843 268.527892,21.8493443 C273.223854,21.8493443 277.437104,22.759871 281.167643,24.5809243 C284.847841,26.360573 288.035081,29.015671 290.449882,32.3133979 L290.449882,23.4950171 L304.537815,23.4950171 L304.537815,92.1357719 Z M290.18675,47.5160401 C288.649848,43.6111567 286.225,40.5288157 282.912185,38.2690171 C279.597974,36.0097807 275.76881,34.8801721 271.424693,34.8801721 C265.279699,34.8801721 260.386287,36.9421645 256.744458,41.0661491 C253.101089,45.1904116 251.279758,50.7625535 251.280462,57.7825749 C251.280462,64.8468727 253.035934,70.4408783 256.546878,74.5645915 C260.057408,78.6888605 264.819246,80.7505781 270.832391,80.7505781 C275.26437,80.7505781 279.214188,79.6097422 282.681844,77.3280703 C286.148226,75.04782 288.649861,71.9766806 290.18675,68.1146521 L290.18675,47.5160401 Z" id="Shape"></path>
            </g>
            <g id="Symbol">
                <path d="M104.21588,0 C92.3091095,0 83.0014059,8.99682958 74.5757257,20.4255505 C62.9972739,5.6356324 53.3141423,0 41.7262821,0 C18.1013527,0 0,30.8446257 0,63.4918604 C0,83.9214091 9.85183592,96.8067227 26.3534459,96.8067227 C38.2302446,96.8067227 46.7720387,91.1894255 61.9572091,64.5600742 C61.9572091,64.5600742 68.2870983,53.3458576 72.6417395,45.6209425 C74.1676659,48.0925989 75.7748002,50.7559164 77.4631425,53.6108951 L84.5838951,65.6282783 C98.4549515,88.9149322 106.183437,96.8067227 120.187658,96.8067227 C136.263527,96.8067227 145.210084,83.7452402 145.210084,62.8909908 C145.210084,28.7081982 126.70063,0 104.21588,0 Z M50.3776669,57.3496385 C38.0660853,76.710983 33.8069367,81.050596 26.9523784,81.050596 C19.8981792,81.050596 15.705584,74.8376955 15.705584,63.7589115 C15.705584,40.0579539 27.4847768,15.8228943 41.5266315,15.8228943 C49.1306563,15.8228943 55.485181,20.2285682 65.2186064,34.2077591 C55.976279,48.4297218 50.3776669,57.3496385 50.3776669,57.3496385 Z M96.8433108,54.9122388 L88.3294524,40.6673135 C86.0254323,36.9081019 83.811218,33.447907 81.6868094,30.2867286 C89.3601861,18.4051265 95.6897086,12.4847564 103.217627,12.4847564 C118.856677,12.4847564 131.367909,35.5848444 131.367909,63.9592239 C131.367909,74.7748776 127.836776,81.0506251 120.520396,81.0506251 C113.50797,81.0506251 110.15799,76.4044542 96.8433108,54.9122388 Z" id="Shape"></path>
            </g>
        </g>
    </g>
</svg>