<?xml version="1.0" encoding="UTF-8"?>
<svg width="480px" height="69px" viewBox="0 0 480 69" version="1.1" xmlns="http://www.w3.org/2000/svg" xmlns:xlink="http://www.w3.org/1999/xlink">
    <title>nickelodeon</title>
    <g id="nickelodeon" stroke="none" stroke-width="1" fill="none" fill-rule="evenodd">
        <path d="M91.8159806,22.6632966 C98.2082324,22.6632966 104.01937,25.2782924 108.087167,29.3460636 C111.864407,33.1232797 114.188862,38.0627161 114.769976,43.5832627 L97.3365617,43.5832627 C97.0460048,41.5493771 96.7554479,39.8060466 95.8837772,38.3532712 C95.0121065,36.6099407 93.559322,35.4477203 92.1065375,35.4477203 C90.3631961,35.4477203 89.2009685,36.3193856 88.0387409,38.3532712 C86.8765133,40.0966017 86.2953995,42.7115975 86.2953995,45.6171483 C86.2953995,48.5226992 87.1670702,50.8471398 88.0387409,52.8810254 C89.2009685,54.6243559 90.653753,55.7865763 92.1065375,55.7865763 C93.4987893,55.7865763 94.6241929,54.9860365 95.7384778,53.1292289 L95.8837772,52.8810254 C96.7554479,51.42825 97.3365617,49.6849195 97.0460048,47.6510339 L114.479419,47.6510339 C113.898305,55.4960212 109.539952,60.4354576 106.634383,63.0504534 C102.566586,66.5371144 97.3365617,68.571 91.8159806,68.571 C84.2615012,68.571 78.7409201,65.084339 75.5447942,61.8882331 C71.4769976,57.8204619 68.8619855,52.0093602 68.8619855,45.6171483 C68.8619855,39.2249364 71.4769976,33.4138347 75.5447942,29.3460636 C79.6125908,25.2782924 85.4237288,22.6632966 91.8159806,22.6632966 Z M181.88862,22.6632966 C188.280872,22.6632966 193.801453,24.9877373 197.869249,29.6366186 C205.133172,37.1910508 203.389831,48.2321441 203.389831,48.2321441 L176.368039,48.2321441 C176.658596,49.9754746 177.239709,51.42825 177.820823,52.8810254 C178.692494,54.6243559 180.145278,55.7865763 181.598063,55.7865763 C185.375303,55.7865763 187.409201,50.2660297 187.409201,50.2660297 L203.099274,50.2660297 L203.088132,50.5521134 C203.014316,51.7852556 202.451475,56.8011375 198.159806,61.597678 C194.382567,65.6654492 188.571429,68.571 181.88862,68.571 C175.205811,68.571 169.68523,65.9560042 165.617433,61.8882331 C161.549637,57.8204619 158.934625,52.0093602 158.934625,45.6171483 C158.934625,39.2249364 161.549637,33.4138347 165.617433,29.3460636 C169.588378,25.3751441 175.220635,22.7886438 181.433034,22.6677282 L181.88862,22.6632966 Z M345.472155,22.6632966 C351.864407,22.6632966 357.094431,24.9877373 361.162228,29.6366186 C368.42615,37.1910508 366.682809,48.2321441 366.682809,48.2321441 L339.661017,48.2321441 C339.951574,49.9754746 340.532688,51.42825 341.113801,52.8810254 C342.276029,54.6243559 343.728814,55.7865763 345.181598,55.7865763 C348.958838,55.7865763 350.992736,50.2660297 350.992736,50.2660297 L366.682809,50.2660297 L366.675344,50.4863797 C366.617763,51.595899 366.115985,56.7106367 361.743341,61.597678 C357.966102,65.6654492 352.445521,68.571 345.472155,68.571 C338.789346,68.571 333.268765,65.9560042 329.200969,61.8882331 C325.133172,57.8204619 322.51816,52.0093602 322.51816,45.6171483 C322.51816,39.2249364 325.133172,33.4138347 329.200969,29.3460636 C333.171913,25.3751441 338.804171,22.7886438 345.01657,22.6677282 L345.472155,22.6632966 Z M249.007264,22.6632966 C261.791768,22.6632966 271.961259,32.8327246 271.961259,45.6171483 C271.961259,58.401572 261.791768,68.571 249.007264,68.571 C236.22276,68.571 226.053269,58.401572 226.053269,45.6171483 C226.053269,32.8327246 236.22276,22.6632966 249.007264,22.6632966 Z M392.542373,22.6632966 C405.326877,22.6632966 415.496368,32.8327246 415.496368,45.6171483 C415.496368,58.401572 405.326877,68.571 392.542373,68.571 C379.757869,68.571 369.588378,58.401572 369.588378,45.6171483 C369.588378,32.8327246 379.757869,22.6632966 392.542373,22.6632966 Z M311.476998,0.290555085 C316.416465,0.290555085 320.193705,4.06777119 320.193705,9.00720763 L320.193705,45.6171483 C320.193705,52.0093602 317.578692,57.8204619 313.510896,61.8882331 L313.188572,62.2022492 C310.43698,64.816014 304.777097,68.571 297.239709,68.571 C289.394673,68.571 283.583535,64.5032288 280.968523,61.8882331 C276.900726,57.8204619 274.285714,52.0093602 274.285714,45.6171483 C274.285714,39.2249364 276.900726,33.4138347 280.968523,29.3460636 C285.03632,25.2782924 290.847458,22.6632966 297.239709,22.6632966 L298.062844,22.6654126 C299.601989,22.6770507 301.285156,22.7526982 302.760291,23.2444068 L302.760291,9.00720763 C302.760291,4.06777119 306.53753,0.290555085 311.476998,0.290555085 Z M135.108959,40.9682669 L142.953995,26.7310678 C145.234593,22.4549741 150.591845,21.2555164 154.635055,23.4071115 L154.866828,23.5349619 C159.225182,25.8594025 160.387409,31.3799492 158.062954,35.4477203 L151.380145,47.3604788 L160.968523,61.8882331 L161.181901,62.3240657 C161.386199,62.7598983 161.549637,63.1957309 161.549637,63.6315636 C161.549637,65.084339 160.096852,66.5371144 158.353511,66.8276695 L144.40678,66.8276695 L135.108959,52.8810254 L135.108959,66.8276695 L117.675545,66.8276695 L117.675545,31.6705042 C117.675545,26.7310678 121.452785,22.9538517 126.392252,22.9538517 C131.331719,22.9538517 135.108959,26.7310678 135.108959,31.6705042 L135.108959,40.9682669 Z M472.445521,60.7260127 L472.445521,61.597678 L470.702179,61.597678 L470.702179,66.5371144 L469.539952,66.5371144 L469.830508,61.597678 L467.79661,61.597678 L467.79661,60.7260127 L472.445521,60.7260127 Z M480,60.7260127 L480,66.5371144 L478.837772,66.5371144 L478.837772,62.7598983 L477.094431,65.084339 L476.803874,65.084339 L475.060533,62.7598983 L475.060533,66.5371144 L473.898305,66.5371144 L473.898305,60.7260127 L476.803874,63.9221186 L479.709443,60.7260127 L480,60.7260127 Z M22.9539952,22.6632966 C29.346247,22.6632966 35.157385,25.2782924 39.2251816,29.3460636 C43.2929782,33.4138347 45.9079903,39.2249364 45.9079903,45.6171483 L45.9079903,66.5371144 L28.4745763,66.5371144 L28.4745763,45.9077034 C28.4745763,43.2927076 27.8934625,41.258822 26.7312349,39.5154915 C25.8595642,37.772161 24.4067797,36.9004958 22.9539952,36.9004958 C21.5012107,36.9004958 20.3389831,37.772161 19.1767554,39.5154915 C18.0145278,41.258822 17.433414,43.2927076 17.433414,45.9077034 L17.433414,66.5371144 L0,66.5371144 L0,45.6171483 C0,39.2249364 2.61501211,33.4138347 6.68280872,29.3460636 C10.7506053,25.2782924 16.5617433,22.6632966 22.9539952,22.6632966 Z M440.774818,22.6632966 C447.16707,22.6632966 452.978208,25.2782924 457.046005,29.3460636 C461.113801,33.4138347 463.728814,39.2249364 463.728814,45.6171483 L463.728814,66.5371144 L446.2954,66.5371144 L446.2954,45.9077034 C446.2954,43.2927076 445.423729,41.258822 444.552058,39.5154915 C443.680387,37.772161 442.227603,36.9004958 440.774818,36.9004958 C439.322034,36.9004958 438.159806,37.772161 436.997579,39.5154915 C435.835351,41.258822 435.254237,43.2927076 435.254237,45.9077034 L435.254237,66.5371144 L417.820823,66.5371144 L417.820823,45.6171483 C417.820823,39.2249364 420.435835,33.4138347 424.503632,29.3460636 C428.571429,25.2782924 434.382567,22.6632966 440.774818,22.6632966 Z M215.012107,0.290555085 C219.661017,0.290555085 223.728814,4.06777119 223.728814,9.00720763 L223.728814,66.5371144 L206.2954,66.5371144 L206.2954,9.00720763 C206.2954,4.06777119 210.072639,0.290555085 215.012107,0.290555085 Z M57.8208232,-1.13686838e-13 C60.7263923,-1.13686838e-13 63.0508475,1.16222034 64.7941889,2.90555085 C66.5375303,4.64888136 67.6997579,6.97332203 67.6997579,9.87887288 C67.6997579,12.6633591 66.6323648,14.9141521 65.0090379,16.631252 L64.7941889,16.8521949 C64.7941889,16.8521949 64.366929,17.3404889 63.8760887,17.869474 L63.6042381,18.1593565 C63.1023002,18.6883416 62.6029056,19.1766356 62.4697337,19.1766356 L61.8982949,19.7549892 C58.9620972,22.7725771 58.8936487,23.7361154 62.1791768,27.0216229 L64.2130751,29.0555085 C65.9564165,30.5082839 66.8280872,32.8327246 66.8280872,35.1571653 L66.8280872,66.2465593 L48.5230024,66.2465593 L48.5230024,34.8666102 C48.5230024,32.5421695 49.68523,30.2177288 51.1380145,28.7649534 L53.1719128,26.7310678 L53.5574926,26.3710645 C56.6315171,23.4421218 56.2339356,22.2386392 52.8813559,18.8860805 L50.8474576,16.8521949 C49.1041162,15.1088644 47.9418886,12.4938686 47.9418886,9.87887288 C47.9418886,6.97332203 49.1041162,4.64888136 50.8474576,2.90555085 C52.590799,1.16222034 54.9152542,-1.13686838e-13 57.8208232,-1.13686838e-13 Z M249.007264,35.1571653 C246.101695,35.1571653 243.486683,39.8060466 243.486683,45.6171483 C243.486683,51.42825 246.101695,56.0771314 249.007264,56.0771314 C252.20339,56.0771314 254.527845,51.42825 254.527845,45.6171483 C254.527845,39.8060466 252.20339,35.1571653 249.007264,35.1571653 Z M392.542373,35.1571653 C389.636804,35.1571653 387.021792,39.8060466 387.021792,45.6171483 C387.021792,51.42825 389.346247,56.0771314 392.542373,56.0771314 C395.738499,56.0771314 398.062954,51.42825 398.062954,45.6171483 C398.062954,39.8060466 395.738499,35.1571653 392.542373,35.1571653 Z M297.239709,35.1571653 C294.33414,35.1571653 291.719128,39.8060466 291.719128,45.6171483 C291.719128,51.42825 294.043584,56.0771314 297.239709,56.0771314 C300.145278,56.0771314 302.760291,51.42825 302.760291,45.6171483 C302.760291,39.8060466 300.435835,35.1571653 297.239709,35.1571653 Z M181.88862,35.1571653 C180.435835,35.1571653 178.983051,36.3193856 178.11138,38.0627161 C177.820823,38.9343814 177.239709,40.0966017 176.949153,41.5493771 L187.118644,41.5493771 C186.857143,40.7648784 186.595642,39.5096804 186.122324,38.6310418 L185.956416,38.3532712 C184.794189,36.3193856 183.341404,35.1571653 181.88862,35.1571653 Z M345.472155,35.1571653 C343.728814,35.1571653 342.276029,36.3193856 341.404358,38.0627161 C341.113801,38.9343814 340.532688,40.0966017 340.242131,41.5493771 L350.702179,41.5493771 C350.411622,40.6777119 350.121065,39.2249364 349.539952,38.3532712 C348.377724,36.3193856 346.924939,35.1571653 345.472155,35.1571653 Z" id="Shape" fill="#FFFFFF" fill-rule="nonzero"></path>
    </g>
</svg>