<?xml version="1.0" encoding="UTF-8"?>
<svg width="480px" height="67px" viewBox="0 0 480 67" version="1.1" xmlns="http://www.w3.org/2000/svg" xmlns:xlink="http://www.w3.org/1999/xlink">
    <title>nissan</title>
    <g id="nissan" stroke="none" stroke-width="1" fill="none" fill-rule="evenodd">
        <path d="M286.401378,14.779297 L236.927221,14.779297 C235.714855,14.779297 234.727751,15.757858 234.727751,16.9684489 L234.727751,20.7591116 C234.727751,21.9470039 235.681952,22.9154766 236.869008,22.9457413 C236.869008,22.9558296 277.704739,26.774235 277.914815,26.930603 C285.158639,28.4060106 290.605428,35.2307167 290.605428,42.885182 L290.605428,50.1991686 C290.605428,59.4248799 285.867329,67.1398747 269.833217,67.1398747 L216.845984,67.1398747 C216.076549,67.1398747 215.448852,66.5194469 215.448852,65.7527394 L215.448852,53.5182053 C215.448852,52.7540198 216.076549,52.1335919 216.845984,52.1335919 L268.9347,52.1335919 C270.119224,52.1033272 271.070894,51.1298103 271.070894,49.941918 L271.070894,44.7868185 C271.070894,43.5737056 270.088852,42.5976667 268.873955,42.5976667 L230.999536,39.3694243 C230.900825,39.3618581 230.804646,39.3442037 230.713529,39.316461 C222.229497,38.9860705 215.448852,32.9028514 215.448852,24.3656636 L215.448852,16.9407062 C215.448852,7.71499481 222.847069,0.20933134 232.054977,0 L286.401378,0 C287.173343,0 287.798509,0.622949891 287.798509,1.38713539 L287.798509,13.3946837 C287.798509,14.1588692 287.173343,14.779297 286.401378,14.779297 L286.401378,14.779297 Z M201.223925,14.779297 L151.749768,14.779297 C150.534871,14.779297 149.552829,15.757858 149.552829,16.9684489 L149.552829,20.7591116 C149.552829,21.9470039 150.504499,22.9154766 151.689023,22.9457413 C151.689023,22.9558296 192.529817,26.774235 192.737362,26.930603 C199.978655,28.4060106 205.427975,35.2307167 205.427975,42.885182 L205.427975,50.1991686 C205.427975,59.4248799 200.689876,67.1398747 184.653233,67.1398747 L131.66853,67.1398747 C130.896565,67.1398747 130.271399,66.5194469 130.271399,65.7527394 L130.271399,53.5182053 C130.271399,52.7540198 130.896565,52.1335919 131.66853,52.1335919 L183.754716,52.1335919 C184.941771,52.1033272 185.893441,51.1298103 185.893441,49.941918 L185.893441,44.7868185 C185.893441,43.5737056 184.908868,42.5976667 183.696502,42.5976667 L145.822083,39.3694243 C145.723372,39.3618581 145.627193,39.3442037 145.536075,39.316461 C137.049513,38.9860705 130.271399,32.9028514 130.271399,24.3656636 L130.271399,16.9407062 C130.271399,7.71499481 137.669616,0.20933134 146.874993,0 L201.223925,0 C201.99589,0 202.621056,0.622949891 202.621056,1.38713539 L202.621056,13.3946837 C202.621056,14.1588692 201.99589,14.779297 201.223925,14.779297 L201.223925,14.779297 Z M361.160676,53.5499711 L321.263139,53.5499711 L315.843259,65.5004097 C315.431237,66.4058989 314.3554,67.1398747 313.44488,67.1398747 L296.689288,67.1398747 C295.773682,67.1398747 295.364202,66.4058989 295.776225,65.5004097 L324.739899,1.63946499 C325.151922,0.733975865 326.227759,0 327.143365,0 L355.28045,0 C356.196056,0 357.26935,0.733975865 357.681373,1.63946499 L386.645047,65.5004097 C387.05707,66.4058989 386.650134,67.1398747 385.734528,67.1398747 L368.981479,67.1398747 C368.065873,67.1398747 366.990035,66.4058989 366.578013,65.5004097 L361.160676,53.5499711 Z M327.682672,40.0835073 L354.73904,40.0835073 L343.696135,15.0313152 L338.723072,15.0313152 L327.682672,40.0835073 Z M398.489933,0.0126089008 L423.971235,0 C424.887022,0 428.562921,0.393397704 430.710809,3.67423368 L462.283747,52.0167592 L462.283747,1.65428778 C462.283747,0.746446925 463.02607,0.0126089008 463.944407,0.0126089008 L478.33679,0.0126089008 C479.255127,0.0126089008 480,0.746446925 480,1.65428778 L480,65.5007176 C480,66.4060367 479.255127,67.1398747 478.33679,67.1398747 L453.738111,67.1297876 C452.817223,67.1297876 447.837795,67.1423965 445.592971,63.1403314 L414.986838,16.058696 L414.986838,65.5007176 C414.986838,66.4060367 414.244515,67.1398747 413.326178,67.1398747 L398.489933,67.1398747 C397.571596,67.1398747 396.826722,66.4060367 396.826722,65.5007176 L396.826722,1.65428778 C396.826722,0.746446925 397.571596,0.0126089008 398.489933,0.0126089008 L398.489933,0.0126089008 Z M1.64761866,0 L26.6701953,0 C27.5799233,0 31.2163087,0.380717304 33.3440616,3.66093725 L64.6235459,51.9943857 L64.6235459,1.64137063 C64.6235459,0.733700235 65.3589094,0 66.2661105,0 L80.5286254,0 C81.4358264,0 82.17119,0.733700235 82.17119,1.64137063 L82.17119,65.4758124 C82.17119,66.3809614 81.4358264,67.1146617 80.5286254,67.1146617 L56.1580206,67.1398747 C55.2482925,67.1398747 50.3130176,67.117183 48.0892378,63.1158693 L17.7725491,16.0430742 L17.7725491,65.4758124 C17.7725491,66.3809614 17.0346585,67.1146617 16.1249304,67.1146617 L1.64761866,67.1146617 C0.737890564,67.1146617 0,66.3809614 0,65.4758124 L0,1.64137063 C0,0.733700235 0.737890564,0 1.64761866,0 L1.64761866,0 Z M96.8521747,0 L113.586239,0 C114.500807,0 115.240084,0.733975865 115.240084,1.64198724 L115.240084,65.5004097 C115.240084,66.4058989 114.500807,67.1398747 113.586239,67.1398747 L96.8521747,67.1398747 C95.9376061,67.1398747 95.1983299,66.4058989 95.1983299,65.5004097 L95.1983299,1.64198724 C95.1983299,0.733975865 95.9376061,0 96.8521747,0 L96.8521747,0 Z" id="Fill-1" fill="#FFFFFF"></path>
    </g>
</svg>