<?xml version="1.0" encoding="UTF-8"?>
<svg width="480px" height="145px" viewBox="0 0 480 145" version="1.1" xmlns="http://www.w3.org/2000/svg" xmlns:xlink="http://www.w3.org/1999/xlink">
    <title>nokian-tyres</title>
    <g id="nokian-tyres" stroke="none" stroke-width="1" fill="none" fill-rule="evenodd">
        <g id="Nokian-Renkaat-Logo" transform="translate(0, -0)" fill="#FFFFFF" fill-rule="nonzero">
            <polyline id="Path" points="84.6473029 77.6763485 0 77.6763485 0 97.4145527 21.9061471 97.4145527 21.9061471 143.40249 62.5871583 143.40249 62.5871583 97.4145527 84.6473029 97.4145527 84.6473029 77.6763485"></polyline>
            <path d="M84.6473029,77.6763485 L122.766724,114.632986 L122.766724,143.40249 L163.046657,143.40249 L163.046657,114.632986 L201.161826,77.6763485 L155.735792,77.6763485 L147.803992,87.8317882 C146.090043,90.0673424 144.546213,92.3834953 143.134225,94.8099412 C141.892356,92.6677118 140.493127,90.6272914 139.085392,88.5699028 L130.541164,77.6805906 L84.6473029,77.6805906" id="Path"></path>
            <path d="M239.784671,95.458973 L245.063415,95.458973 C246.618988,95.458973 257.499492,94.907508 257.499492,100.859088 C257.499492,102.538935 256.577199,103.654591 255.94392,104.206056 C253.466055,106.437368 249.275361,106.539177 245.224923,106.539177 L239.788921,106.539177 L239.788921,95.458973 M202.157676,77.6763485 L202.157676,143.40249 L239.784671,143.40249 L239.784671,119.290744 L260.151615,143.40249 L302.738589,143.40249 L276.153607,117.059432 C279.583516,116.312833 282.069881,115.659559 285.015268,114.450578 C289.987998,112.304107 296.524801,108.121457 296.524801,99.5525399 C296.524801,92.7567946 292.18535,88.7565525 289.37597,86.6100812 C281.445102,80.3742849 269.939819,78.3338645 257.354985,77.8545142 C254.090834,77.6763485 250.826683,77.6763485 247.554031,77.6763485 L202.157676,77.6763485" id="Shape"></path>
            <path d="M477.665695,81.9942118 C472.664224,80.5754171 463.617193,77.5663721 449.709517,76.2504506 C444.720847,75.7832342 440.816114,75.6846473 438.951231,75.6846473 C422.244096,75.6846473 405.229704,79.5423974 397.428774,89.1439086 C396.024777,90.8327459 393.378947,94.5018948 393.378947,99.6798527 C393.378947,111.527432 407.892604,115.573783 414.447434,116.979718 C418.825855,117.83271 425.999468,118.775715 430.685147,119.242932 C433.651037,119.611561 438.643974,119.997336 438.643974,122.72348 C438.643974,124.789519 435.050766,126.761258 428.188678,126.761258 C418.352166,126.761258 408.831446,122.813494 401.184145,119.611561 L388.381743,137.867292 C395.875415,140.224806 411.327915,145.394191 433.651037,145.394191 C446.752162,145.394191 457.378155,143.606767 467.206133,138.338795 C478.600271,132.046376 480,125.076707 480,121.407558 C480,116.889704 477.968686,107.961156 459.554564,103.631903 C454.864617,102.60317 446.752162,101.46299 441.925656,100.807173 C438.80187,100.434257 433.651037,100.057055 433.651037,97.4209257 C433.651037,95.3591726 436.612659,94.128979 442.702335,94.0389648 C451.446376,94.0389648 458.615721,96.5807935 465.955765,99.2126363 L477.665695,81.9942118" id="Path"></path>
            <polyline id="Path" points="307.717842 77.6763485 307.717842 143.40249 382.406639 143.40249 382.406639 125.064158 344.985828 125.064158 344.985828 118.921687 378.513856 118.921687 378.513856 101.414795 344.985828 101.414795 344.985828 96.0189221 381.315641 96.0189221 381.315641 77.6763485 307.717842 77.6763485"></polyline>
            <path d="M18.2524839,24.6599114 L18.2524839,57.7593361 L0.995850622,57.7593361 L0.995850622,8.9626556 L55.1580118,8.9626556 C64.5014528,8.9626556 68.6134182,9.97440961 73.4277379,13.7329681 C78.1526671,17.4226412 79.5105522,23.4371959 79.651023,28.3280578 C79.651023,28.4486072 79.6893333,57.7636414 79.651023,57.7291987 L62.4071599,57.7291987 L62.4071599,40.8264488 C62.266689,35.59116 63.292552,29.4216132 60.7385362,26.6661981 C58.0312795,23.7342641 53.6724259,24.8493462 48.2238589,24.6599114 C48.0833881,24.6513007 18.278024,24.6599114 18.2524839,24.6599114" id="Path"></path>
            <rect id="Rectangle" x="271.86722" y="8.9626556" width="16.9294606" height="48.7966805"></rect>
            <path d="M330.744612,23.8899591 C313.459947,23.8899591 311.600097,28.6424829 311.600097,34.1720679 C311.600097,39.2422851 315.324063,43.2263339 329.900001,43.2263339 L369.460212,43.2907313 L357.802022,57.754374 C357.840413,57.7844261 320.037675,57.6685108 319.896907,57.6599245 C301.119243,57.0760553 294.814521,46.1499732 294.771784,32.90988 C294.742004,20.5069522 303.11133,9.14726131 327.523999,8.9626556 L393.360996,9.05710503 L393.258619,57.6212861 L376.063534,57.7114424 L376.063534,23.9715291 C376.110457,24.0101675 330.88538,23.8899591 330.744612,23.8899591" id="Path"></path>
            <path d="M418.588172,24.6671365 L418.588172,57.7593361 L401.327801,57.7593361 L401.327801,8.9626556 L455.488334,8.9626556 C464.822981,8.9626556 468.947592,9.97862531 473.761768,13.7368522 C478.482298,17.4218949 479.844399,23.427309 479.984866,28.3263494 C479.984866,28.4468881 480.018918,57.7550311 479.984866,57.7378113 L462.720238,57.7378113 L462.720238,40.8193328 C462.601054,35.5931157 463.62263,29.4198083 461.064434,26.6646362 C458.357259,23.7372659 454.002793,24.8565545 448.558646,24.6628315 C448.418179,24.6671365 418.613711,24.6671365 418.588172,24.6671365" id="Path"></path>
            <path d="M161.233742,8.9626556 C179.983066,8.9626556 195.186722,19.8876065 195.186722,33.3588453 C195.186722,46.8343852 179.983066,57.7593361 161.233742,57.7593361 L118.587467,57.7593361 C99.8466866,57.7593361 84.6473029,46.8343852 84.6473029,33.3588453 C84.6473029,19.8876065 99.8466866,8.9626556 118.587467,8.9626556 L161.233742,8.9626556 Z M155.623321,23.7374509 L124.198878,23.7374509 C111.450323,23.7485823 101.222235,24.1192616 101.222235,33.3588453 C101.222235,42.6068593 111.450323,43.2420806 124.198878,43.2637903 L155.623321,43.2637852 C168.387466,43.241912 178.603246,42.6026441 178.603246,33.3588453 C178.603246,24.1192616 168.387466,23.7485823 155.623321,23.7374509 Z" id="Shape"></path>
            <rect id="Rectangle" x="200.165975" y="0" width="16.9294606" height="57.7593361"></rect>
            <polyline id="Path" points="218.091286 29.0949491 244.307806 8.9626556 268.879668 9.06176578 239.757303 29.3965887 268.624022 57.7593361 245.27074 57.7593361 218.091286 29.0949491"></polyline>
        </g>
    </g>
</svg>