<?xml version="1.0" encoding="UTF-8"?>
<svg width="480px" height="383px" viewBox="0 0 480 383" version="1.1" xmlns="http://www.w3.org/2000/svg" xmlns:xlink="http://www.w3.org/1999/xlink">
    <title>olg</title>
    <g id="olg" stroke="none" stroke-width="1" fill="none" fill-rule="evenodd">
        <g id="OLG_2022" transform="translate(0, 0)" fill="#FFFFFF">
            <path d="M93.0161833,0 L244.09194,151.659285 C284.633267,152.941654 317.383429,185.837791 318.709522,226.567382 L325.896854,233.789003 C325.806129,232.249478 325.760124,230.69788 325.760124,229.135505 C325.760124,186.374741 360.288883,151.620468 402.852107,151.620468 C445.466036,151.620468 480,186.363899 480,229.135505 C480,271.936428 445.486269,306.631905 402.852107,306.631905 C401.332179,306.631905 399.822539,306.58769 398.324389,306.50047 L474.387336,382.85375 L93.0161833,382.85375 L93.0168277,304.996929 C87.907261,306.068161 82.6118369,306.631284 77.1851668,306.631284 C34.5248697,306.631284 0,271.934537 0,229.128672 C0,186.35212 34.5451082,151.607423 77.1851668,151.607423 C82.6112716,151.607423 87.9066898,152.171742 93.0166238,153.245046 L93.0161833,0 Z M402.852107,155.58741 C362.485566,155.58741 329.727066,188.559862 329.727066,229.135505 C329.727066,269.739772 362.464632,302.664963 402.852107,302.664963 C443.29071,302.664963 476.033058,269.750197 476.033058,229.135505 C476.033058,188.549428 443.269766,155.58741 402.852107,155.58741 Z M241.634441,155.58741 C201.162594,155.58741 168.323033,188.560248 168.323033,229.135505 C168.323033,269.739384 201.14161,302.664963 241.634441,302.664963 C281.982399,302.664963 314.784331,269.710814 314.784331,229.135505 C314.784331,188.588842 281.961443,155.58741 241.634441,155.58741 Z M77.1851668,155.574365 C36.741122,155.574365 3.96694215,188.537902 3.96694215,229.128672 C3.96694215,269.748053 36.7201734,302.664342 77.1851668,302.664342 C117.592644,302.664342 150.335678,269.737812 150.335678,229.128672 C150.335678,188.548152 117.571708,155.574365 77.1851668,155.574365 Z M232.274454,182.237413 L232.274454,258.404492 L277.508907,258.404492 L277.508907,276.844916 L210.39928,276.844916 L210.39928,182.237413 L232.274454,182.237413 Z M402.898699,182.233065 C417.706203,182.233065 431.494899,189.204445 440.382135,201.041254 L422.099502,209.601105 C416.942718,204.573536 410.047749,201.726465 402.892486,201.726465 C387.626518,201.726465 375.202652,214.204999 375.202652,229.536816 C375.202652,244.868634 387.626518,257.340956 402.892486,257.340956 C414.013645,257.340956 424.011009,250.687643 428.361443,240.395818 L429.987187,236.539257 L409.694272,236.539257 L409.694272,222.528163 L449.423435,222.528163 C449.541467,223.319603 449.640863,224.091785 449.71541,224.845951 C449.870716,226.415785 449.945263,227.991831 449.945263,229.536816 C449.945263,231.081801 449.870716,232.657847 449.71541,234.233894 C449.566316,235.691907 449.349509,237.162345 449.038897,238.775665 C444.694675,260.829752 425.289489,276.840568 402.898699,276.840568 C376.927792,276.840568 355.803057,255.621407 355.803057,229.536816 C355.803057,203.452226 376.927792,182.233065 402.898699,182.233065 Z M77.1733635,182.232444 C103.119421,182.232444 124.219307,203.457817 124.219307,229.542407 C124.219307,255.620785 103.119421,276.833734 77.1733635,276.833734 C51.201836,276.833734 30.0771011,255.620785 30.0771011,229.542407 C30.0771011,203.457817 51.201836,182.232444 77.1733635,182.232444 Z M77.160939,201.732056 C61.89435,201.732056 49.4766959,214.204377 49.4766959,229.536195 C49.4766959,244.868013 61.89435,257.340334 77.160939,257.340334 C92.4144824,257.340334 104.825924,244.868013 104.825924,229.536195 C104.825924,214.204377 92.4144824,201.732056 77.160939,201.732056 Z" id="Shape"></path>
        </g>
    </g>
</svg>