<?xml version="1.0" encoding="UTF-8"?>
<svg width="480px" height="201px" viewBox="0 0 480 201" version="1.1" xmlns="http://www.w3.org/2000/svg" xmlns:xlink="http://www.w3.org/1999/xlink">
    <title>one-percent</title>
    <g id="one-percent" stroke="none" stroke-width="1" fill="none" fill-rule="evenodd">
        <path d="M100.4,0 C155.84,0 200.88,44.9599762 200.88,100.479947 C200.88,122.914118 193.517923,143.632236 181.073163,160.349592 L180.911913,160.561865 L180.528006,161.075072 C177.534061,165.034152 174.254702,168.766152 170.72,172.239909 L170.706345,172.211099 C152.591963,189.945517 127.7801,200.88021 100.4,200.88021 C92.0537796,200.892028 83.9450762,199.881466 76.1915329,197.966778 L76.16,197.999895 C67.28,195.759896 58.8,192.399898 51.04,187.9999 L51.030472,187.951796 C20.564841,170.712813 0,137.974874 0,100.479947 C0,96.3269389 0.252293362,92.2322907 0.742386144,88.2105633 L0.72,88.1599533 C5.04,52.7199721 27.84,22.9599878 59.12,8.79999534 L59.2046868,8.83536636 C71.7734685,3.15824029 85.7193011,0 100.4,0 Z M120.72,20.6399891 L85.92,20.6399891 L67.04,37.5199801 L66.88,57.1199697 L81.52,57.2799697 L81.52,178.639905 L120.72,178.639905 L120.72,20.6399891 Z M178.4,73.2799612 L170.24,73.2799612 L135.12,121.439936 L143.28,121.439936 L178.4,73.2799612 Z M171.28,98.8799476 C165.04,98.7999477 160,103.919945 160,110.159942 C160,116.399938 165.04,121.439936 171.28,121.439936 C177.52,121.439936 182.56,116.399938 182.56,110.159942 C182.56,103.919945 177.52,98.8799476 171.28,98.8799476 Z M171.2,105.199944 C173.92,105.199944 176.16,107.439943 176.16,110.159942 C176.16,112.87994 173.92,115.119939 171.2,115.119939 C168.48,115.119939 166.24,112.87994 166.24,110.159942 C166.24,107.439943 168.48,105.199944 171.2,105.199944 Z M141.76,73.5199611 C135.6,73.5199611 130.48,78.6399583 130.48,84.7999551 C130.48,91.0399518 135.52,96.0799491 141.76,96.0799491 C148,96.0799491 153.04,91.0399518 153.04,84.7999551 C153.04,78.5599584 148,73.5199611 141.76,73.5199611 Z M141.76,79.8399577 C144.48,79.8399577 146.72,82.0799565 146.72,84.7999551 C146.72,87.4483747 144.596343,89.6417254 141.973708,89.7553308 L141.551746,89.7615604 C138.926601,89.7247175 136.8,87.5281588 136.8,84.7999551 C136.8,82.0799565 139.04,79.8399577 141.76,79.8399577 Z M219.92,53.9199714 L252.96,53.9199714 L252.96,63.9999661 L231.36,63.9999661 L231.36,70.9599624 L250.96,70.9599624 L250.96,80.4799574 L231.36,80.4799574 L231.36,95.2799495 L219.92,95.2799495 L219.92,53.9199714 Z M257.04,74.7199604 L257.04,74.6399605 C257.04,62.7199668 266.64,53.1199719 279.36,53.1199719 C292.032,53.1199719 301.410864,62.4505189 301.597174,74.2030878 L301.6,74.7199604 C301.6,86.6399541 292,96.239949 279.28,96.239949 C266.56,96.1599491 257.04,86.6399541 257.04,74.7199604 Z M289.92,74.7199604 L289.92,74.6399605 C289.92,68.6399636 285.6,63.4399664 279.28,63.4399664 C273.04,63.4399664 268.8,68.5599637 268.8,74.4799605 L268.8,74.6399605 C268.8,80.6399573 273.12,85.8399545 279.36,85.8399545 C285.76,85.7599546 289.92,80.7199572 289.92,74.7199604 Z M308,53.9199714 L327.52,53.9199714 C333.84,53.9199714 338.24,55.5999705 340.96,58.3999691 C343.277241,60.7172092 344.550392,63.7056549 344.635441,67.5813104 L344.64,68.1599639 C344.64,74.4799605 341.28,78.7199583 336.16,80.8799572 L346,95.2799495 L332.72,95.2799495 L324.4,82.7199562 L319.44,82.7199562 L319.44,95.2799495 L308,95.2799495 L308,53.9199714 Z M326.96,73.7599609 C330.786667,73.7599609 333.012381,71.930302 333.116198,69.0896114 L333.12,68.7999636 C333.12,65.5199653 330.72,63.9199661 326.88,63.9199661 L319.36,63.9199661 L319.36,73.8399609 L326.96,73.8399609 L326.96,73.7599609 Z M371.92,63.9999661 L359.52,63.9999661 L359.52,53.9199714 L395.76,53.9199714 L395.76,63.9999661 L383.36,63.9999661 L383.36,95.2799495 L371.92,95.2799495 L371.92,63.9999661 Z M401.12,53.9199714 L412.56,53.9199714 L412.56,69.3599633 L427.28,69.3599633 L427.28,53.9199714 L438.8,53.9199714 L438.8,95.2799495 L427.28,95.2799495 L427.28,79.5999578 L412.56,79.5999578 L412.56,95.2799495 L401.12,95.2799495 L401.12,53.9199714 Z M446.4,53.9199714 L479.68,53.9199714 L479.68,63.6799663 L457.76,63.6799663 L457.76,69.9199714 L477.6,69.9199714 L477.6,78.9599582 L457.76,78.9599582 L457.76,85.5199547 L480,85.5199547 L480,95.2799495 L446.4,95.2799495 L446.4,53.9199714 Z M219.6,103.519945 L238.64,103.519945 C249.711264,103.519945 256.873954,109.148289 257.037151,118.782246 L257.04,119.279937 C257.04,129.759931 248.96,135.279928 238,135.279928 L231.92,135.279928 L231.92,147.919922 L219.6,147.919922 L219.6,103.519945 Z M237.68,125.599933 C241.984348,125.599933 244.604386,123.456267 244.716266,120.06768 L244.72,119.679937 C244.72,115.83994 242.08,113.83994 237.6,113.83994 L231.84,113.83994 L231.84,125.519934 L237.68,125.519934 L237.68,125.599933 Z M262.24,103.519945 L274.48,103.519945 L274.48,137.119927 L296,137.119927 L296,147.919922 L262.24,147.919922 L262.24,103.519945 Z M316.56,103.199945 L328.4,103.199945 L347.28,147.839922 L334.08,147.839922 L330.88,139.919926 L313.76,139.919926 L310.56,147.839922 L297.6,147.839922 L316.56,103.199945 Z M327.36,130.399931 L322.4,117.759938 L317.36,130.399931 L327.36,130.399931 Z M351.6,103.519945 L363.04,103.519945 L381.28,126.959933 L381.28,103.519945 L393.44,103.519945 L393.44,147.919922 L382.72,147.919922 L363.76,123.519935 L363.76,147.919922 L351.6,147.919922 L351.6,103.519945 Z M401.28,103.519945 L436.96,103.519945 L436.96,113.99994 L413.52,113.99994 L413.52,120.719936 L434.8,120.719936 L434.8,130.399931 L413.52,130.399931 L413.52,137.439927 L437.28,137.439927 L437.28,147.919922 L401.28,147.919922 L401.28,103.519945 Z M480,103.519945 L480,114.319939 L466.72,114.319939 L466.72,147.919922 L454.4,147.919922 L454.4,114.319939 L441.12,114.319939 L441.12,103.519945 L480,103.519945 Z M473.28,140.079926 C475.3725,140.079926 477.014531,141.731644 477.115115,143.725905 L477.12,143.919924 C477.12,145.999923 475.44,147.839922 473.28,147.839922 C471.265,147.839922 469.550312,146.188207 469.445112,144.193942 L469.44,143.999924 C469.44,141.839925 471.12,140.079926 473.28,140.079926 Z M473.36,140.719925 C471.583448,140.719925 470.254364,142.136904 470.164815,143.818763 L470.16,143.999924 C470.16,145.759923 471.52,147.279922 473.36,147.279922 C475.136552,147.202681 476.465636,145.857616 476.555185,144.180808 L476.56,143.999924 C476.56,142.159925 475.2,140.719925 473.36,140.719925 Z M473.6,141.999925 C474.56,141.999925 475.2,142.399925 475.2,143.279924 C475.2,143.919924 474.88,144.319924 474.4,144.479923 L475.36,145.839923 L474.08,145.839923 L473.28,144.719923 L472.8,144.719923 L472.8,145.839923 L471.76,145.839923 L471.76,141.999925 L473.6,141.999925 Z M473.52,142.879924 L472.8,142.879924 L472.8,143.839924 L473.52,143.839924 C473.92,143.839924 474.08,143.679924 474.08,143.359924 C474.08,143.039924 473.84,142.879924 473.52,142.879924 Z" id="Shape" fill="#FFFFFF" fill-rule="nonzero"></path>
    </g>
</svg>