<?xml version="1.0" encoding="UTF-8"?>
<svg width="480px" height="172px" viewBox="0 0 480 172" version="1.1" xmlns="http://www.w3.org/2000/svg" xmlns:xlink="http://www.w3.org/1999/xlink">
    <title>popular-science</title>
    <g id="popular-science" stroke="none" stroke-width="1" fill="none" fill-rule="evenodd">
        <path d="M124.998431,130.987228 C124.580063,133.166309 124.233076,135.363234 123.727465,137.521496 C122.730124,141.779526 120.432074,145.305909 117.365695,148.36138 C113.664824,152.050352 109.16489,154.222492 104.038395,154.931338 C101.189131,155.325912 98.3408579,154.946209 95.5034904,154.193742 C91.2732154,153.072477 87.7993734,150.775421 84.8688149,147.704087 C81.3285496,143.995288 79.2545549,139.406133 78.5734677,134.367876 C78.004408,130.157433 78.3563526,125.886514 80.0099965,121.897151 C81.7350208,117.735286 84.2868671,114.145454 87.9599791,111.407228 C91.1601966,109.019955 94.7480488,107.50015 98.656121,107.052041 C101.718535,106.701088 104.812673,106.853762 107.87013,107.809465 C111.089184,108.815728 113.995949,110.309756 116.478398,112.508665 C121.979639,117.380367 124.674246,123.575578 124.998431,130.987228 M101.645172,91.1778654 C93.0398782,90.9795869 85.4596853,93.453111 78.6428652,98.1384316 C73.8167628,101.455631 69.970157,105.804869 67.1664969,110.954161 C65.9302295,113.222467 65.1440546,115.738621 64.1774462,118.15167 C61.9418544,123.736184 62.0786666,129.597296 62.3661707,135.429658 C62.4712584,137.563134 63.0988103,139.699585 63.7065344,141.771595 C64.3479658,143.958607 65.1460374,146.114885 66.0561364,148.206723 C68.3720311,153.521578 71.9569091,157.907498 76.3249878,161.662892 C79.4042553,164.30991 82.8265448,166.414636 86.6265552,167.884871 C89.4976301,168.996222 92.3647394,170.135332 95.4906023,170.272144 C99.1835422,170.434733 102.919112,170.939351 106.563474,170.570553 C110.630169,170.159126 114.55906,168.853462 118.336269,167.075895 C123.95152,164.432843 128.573395,160.609042 132.418018,155.853333 C135.028357,152.624368 137.031963,148.981992 138.454612,145.042199 C139.3429,142.581563 139.944676,140.077305 140.422528,137.499685 C141.153185,133.554935 140.930121,129.608201 140.701109,125.69121 C140.555374,123.185961 139.604628,120.722351 138.973111,118.25081 C138.123487,114.920723 136.584844,111.894001 134.753741,109.012024 C132.04228,104.744079 128.578352,101.218688 124.469027,98.2524417 C121.13398,95.8453409 117.502507,94.0836366 113.638056,92.8453875 C109.679423,91.5764052 105.575055,90.9885095 101.645172,91.1778654 M300.413969,37.9286913 C300.413969,38.673227 300.4219,39.4177627 300.410994,40.161307 C300.405046,40.5558812 300.34358,40.9504554 300.34358,41.3440382 C300.340606,52.0481022 300.34358,62.7521662 300.34358,73.4562302 C300.34358,74.9611639 300.328709,76.4660976 300.337631,77.9710313 C300.341597,78.7135842 300.383235,79.4055761 301.443035,79.4006191 C306.280043,79.3778171 311.11705,79.3867396 315.954058,79.3807913 C316.066085,79.3807913 316.179104,79.3341958 316.410099,79.2826434 C316.428935,78.8791467 316.466608,78.4587963 316.465636,78.0384459 C316.445789,56.3517367 316.42497,34.6650274 316.396219,12.9773268 C316.391262,8.93442851 316.358546,4.89053882 316.320874,0.847640521 C316.317899,0.564102288 316.166216,0.28254684 316.082939,2.84217094e-14 C315.824185,0.107070382 315.509914,0.154657218 315.315601,0.332116462 C311.797146,3.54224513 308.275717,6.75039101 304.789979,9.9962098 C301.025658,13.500782 297.297028,17.0440185 293.552536,20.5704014 C290.802411,23.1599184 288.063191,25.7613321 285.298196,28.3339954 C280.596017,32.7070274 275.875003,37.0582488 271.167867,41.4253324 C270.026774,42.4831481 268.919388,43.5756625 267.769371,44.6235643 C267.466005,44.8991714 267.062508,45.0657254 266.575734,45.3611603 C266.521207,44.9893881 266.461724,44.7722732 266.461724,44.5561496 C266.47362,36.9442386 266.443879,29.3313362 266.521207,21.7204166 C266.583665,15.5906372 266.759142,9.46085789 266.929661,3.33306132 C266.95742,2.33373776 266.740305,1.93817219 265.638867,1.95304307 C261.080441,2.01351801 256.520032,2.00756966 251.961606,1.9619656 C250.946419,1.95205168 250.71939,2.30895295 250.720378,3.26663803 C250.742192,29.0765484 250.736244,54.8874501 250.738227,80.6973604 C250.738227,81.120685 250.774908,81.5450009 250.803658,82.1576815 C267.288546,67.2699414 283.628689,52.5140566 299.968833,37.7581718 C300.117542,37.8146812 300.26526,37.8721819 300.413969,37.9286913 M441.078892,129.806182 C444.637994,129.806182 448.080111,129.853769 451.521237,129.793294 C455.242927,129.727862 458.058484,131.416204 460.091832,134.341803 C462.920277,138.410477 463.3208,142.98377 461.91203,147.610599 C460.763005,151.382847 456.974892,154.09034 452.936947,154.15478 C449.690134,154.206333 446.44233,154.165686 443.195517,154.166677 L441.078892,154.166677 L441.078892,129.806182 Z M464.489652,117.946155 C469.667699,109.389447 474.769409,100.958646 480,92.3137037 C479.339732,92.269091 479.00365,92.2274526 478.667567,92.2274526 C473.831551,92.2224956 468.994543,92.2750394 464.159518,92.1841062 C463.061055,92.1640034 462.54553,92.5972419 462.098412,93.4389341 C459.650662,98.0409777 457.194981,102.639056 454.730377,107.232177 C453.369194,109.76915 452.004046,112.305132 450.588336,114.812363 C450.401954,115.142497 449.905266,115.488493 449.544399,115.497416 C447.009406,115.55789 444.470448,115.501381 441.934464,115.546985 C440.94208,115.565822 441.002555,114.979909 441.004537,114.310719 C441.016434,107.61188 441.016434,100.91205 441.022383,94.2132116 C441.024365,92.2155559 441.02734,92.2205128 439.082226,92.2215042 C434.800398,92.223487 430.519562,92.2224956 426.238726,92.2155559 C424.646549,92.2135731 424.628704,92.2105989 424.629668,93.789887 C424.639609,108.455555 424.656463,123.122215 424.665385,137.787883 C424.672325,147.97444 424.687196,158.160997 424.644566,168.347554 C424.639609,169.515414 424.996511,169.806884 426.125707,169.801989 C435.282216,169.758306 444.439715,169.83266 453.596223,169.753349 C459.884631,169.698822 465.566306,167.756684 470.320036,163.554172 C473.641204,160.618659 475.899597,156.977274 477.335135,152.73808 C478.788517,148.448325 479.012572,144.060423 478.587265,139.679459 C477.956738,133.187822 475.433643,127.404039 470.748318,122.763331 C469.227521,121.257405 467.32008,120.14308 465.594065,118.842374 C465.201473,118.546939 464.8297,118.222753 464.489652,117.946155 M199.406362,64.8072235 L199.406362,48.9399878 L230.627319,48.9399878 C230.673914,48.541448 230.737363,48.2410561 230.738355,47.9416556 C230.745294,43.6191847 230.722492,39.2967137 230.759174,34.9752341 C230.768096,34.0116007 230.449859,33.8034083 229.503079,33.8331501 C226.535839,33.9243582 223.564633,33.8926336 220.594419,33.8946164 C213.583286,33.8995734 206.572152,33.8956078 199.446018,33.8956078 L199.446018,16.6384399 L236.976201,16.6384399 C236.976201,16.416368 236.97521,16.2022272 236.973227,15.9930434 C236.970253,15.6520044 236.96827,15.4021735 236.96827,15.3803629 C236.965296,15.0125563 236.962321,11.5149238 236.963313,1.94699558 C236.867148,1.94699558 236.770983,1.94798697 236.674817,1.94798697 C219.220348,1.97277178 201.764887,1.99755659 184.310417,2.0223414 C184.237054,2.01639305 183.85041,1.99458241 183.520276,2.28010343 C183.151478,2.60131458 183.151478,3.05140674 183.152374,3.11485585 C183.162383,40.5270317 183.162383,75.4458556 183.162383,77.9421817 L183.162383,79.3132775 L236.909778,79.3132775 L236.909778,64.8072235 L199.406362,64.8072235 Z M461.130614,79.2931522 L461.130614,73.6630346 C461.130614,71.1647257 461.07807,68.6654254 461.153416,66.1710821 C461.188115,65.0389119 460.756859,64.7623134 459.707964,64.766279 C452.135703,64.7880897 444.563441,64.7613221 436.991179,64.7553737 C432.869958,64.7514081 428.747744,64.7613221 424.626523,64.7573565 C424.277552,64.7563651 423.928582,64.6948988 423.530042,64.6572259 L423.530042,48.9496043 L454.821387,48.9496043 C454.845181,48.4281319 454.880871,48.0107557 454.880871,47.5923881 C454.884836,43.469187 454.840224,39.3459859 454.906647,35.2237762 C454.926475,34.0172516 454.482331,33.7892314 453.37891,33.7941883 C443.667222,33.833844 433.954542,33.8179818 424.242853,33.8169904 C424.050523,33.8169904 423.857201,33.7892314 423.565732,33.7674207 C423.534999,33.3996142 423.483446,33.0615493 423.482455,32.7244759 C423.475515,27.7685052 423.508231,22.8125345 423.446765,17.8575552 C423.433876,16.7630579 423.805649,16.5548655 424.810922,16.5578397 C436.427077,16.5895642 448.043231,16.5766761 459.659386,16.5756847 L461.015612,16.5756847 C461.059233,16.1830933 461.122683,15.8817101 461.123674,15.5793354 C461.128631,11.41747 461.10682,7.25461319 461.139536,3.0927478 C461.146476,2.22131386 460.893671,1.95264652 459.98952,1.95461842 C442.902857,1.98437107 425.816194,1.98734525 408.729532,1.96057765 C407.686586,1.95958626 407.290029,2.16877006 407.291018,3.32275084 C407.322745,28.3782115 407.311839,53.4336722 407.309856,78.4891329 L407.309856,79.2931522 L461.130614,79.2931522 Z M262.119124,169.712801 C267.5242,169.707844 272.928284,169.703878 278.333361,169.698921 C278.351206,168.476534 278.370042,167.254147 278.387887,166.031761 C278.467199,143.534092 278.428534,126.897536 278.400775,120.596246 C278.39681,119.619724 278.376982,117.375212 277.74249,114.542804 C276.757045,110.147961 274.69693,106.14571 271.775294,102.447816 C268.182485,97.9022819 263.552678,94.832931 258.171396,92.8848449 C254.164184,91.4334464 249.993393,91.0170616 245.723462,91.1618048 C239.365657,91.3779284 233.66812,93.4747234 228.586238,97.1349442 C224.228073,100.273693 220.997123,104.432584 218.858687,109.400451 C217.076162,113.541497 216.383178,117.850089 216.408955,122.360924 C216.494214,137.664058 216.461499,152.968183 216.473395,168.272307 C216.474387,168.704555 216.473395,169.136802 216.473395,169.677111 C221.871532,169.68405 227.269668,169.691981 232.666813,169.698921 C232.679701,168.962317 232.699529,167.727042 232.708451,166.201289 C232.878971,138.538466 232.726296,123.502017 232.726296,123.502017 C232.739184,120.048997 233.22001,116.578132 235.11952,113.62874 C236.78506,111.045171 239.017678,108.990015 242.052333,107.843965 C244.312709,106.989385 246.583,106.809943 248.892946,106.987402 C252.757397,107.283828 255.960589,108.918635 258.511444,111.932467 C259.998534,113.689215 260.920529,115.678939 261.567909,117.807459 C261.927785,118.991182 262.096322,120.278009 262.099296,121.519232 C262.133003,136.108563 262.120115,150.698885 262.119124,165.289208 L262.119124,169.712801 M16.1775552,141.452267 L16.1725983,141.452267 C16.1725983,137.68795 16.2231593,133.923633 16.1428565,130.161299 C16.1170802,128.943869 16.5840265,128.703952 17.6577054,128.71684 C20.865854,128.755505 24.0740025,128.711883 27.2831425,128.701925 C29.3729995,128.696021 31.2328533,129.292839 32.898394,130.611391 C36.0153344,133.078967 37.3457841,136.518107 37.9386373,140.223932 C38.3163581,142.587412 37.9872156,144.972702 37.1514711,147.336181 C35.8150729,151.120326 31.8504913,154.27692 27.7342265,154.176789 C24.2901263,154.092521 20.8410691,154.124245 17.3949862,154.176789 C16.3718683,154.192651 16.1448393,153.814931 16.1577274,152.862203 C16.2063056,149.059221 16.1775552,145.255249 16.1775552,141.452267 M-9.9475983e-14,92.3178676 L-9.9475983e-14,169.7129 C0.445135574,169.736693 0.86052935,169.780314 1.27691452,169.77934 C11.2265373,169.766435 21.1771514,169.817987 31.1247914,169.672253 C33.0401632,169.644494 34.9476038,168.860302 36.8500875,168.3884 C40.2109107,167.55563 43.0462954,165.702717 45.5693912,163.455231 C48.747798,160.621831 51.135073,157.168811 52.3594437,153.034705 C52.9255292,151.124292 53.3825615,149.171249 53.7394631,147.210275 C54.0130876,145.711289 54.1290806,144.171657 54.1806331,142.645904 C54.2857208,139.541854 53.6542033,136.545866 52.8521661,133.551861 C51.9856884,130.312982 50.5412284,127.388375 48.6278394,124.681873 C45.7894805,120.664751 42.1143857,117.715359 37.4825964,115.940766 C34.2833703,114.714414 30.9959103,114.181045 27.5934486,114.203847 C24.2643501,114.225657 20.9342601,114.213761 17.6061529,114.268287 C16.5760953,114.285141 16.1438479,114.029362 16.1537618,112.870424 C16.2092798,106.488831 16.1775552,100.106246 16.1765638,93.723662 C16.1755724,93.2914149 16.1765638,92.8591678 16.1765638,92.3178676 L-9.9475983e-14,92.3178676 Z M168.450603,154.169056 L168.450603,128.839971 C168.682589,128.791393 168.870954,128.716047 169.059319,128.717029 C172.743336,128.722987 176.427353,128.722987 180.111371,128.755703 C182.226012,128.774539 184.001598,129.683646 185.550154,131.043837 C188.78507,133.886159 189.846852,137.735735 190.227547,141.793505 C190.439706,144.055862 189.927155,146.305332 188.868347,148.343634 C186.958924,152.018726 184.015477,154.154185 179.744555,154.162117 C176.654382,154.169056 173.563218,154.167074 170.473045,154.169056 L168.450603,154.169056 M152.328566,169.771139 C153.190087,169.771139 153.93958,169.771139 154.690065,169.771139 C164.244122,169.754737 173.79917,169.82116 183.351244,169.658572 C185.449032,169.622881 187.601347,168.964597 189.607927,168.252777 C192.152833,167.349619 194.497478,166.018179 196.65475,164.302078 C198.635554,162.725764 200.236654,160.880783 201.6712,158.843472 C203.459673,156.303524 204.484774,153.405684 205.441468,150.49793 C205.814232,149.364769 205.841991,148.115614 206.006563,146.917021 C206.160229,145.789808 206.461612,144.646732 206.388249,143.531416 C206.227643,141.112418 205.892552,138.704326 205.586212,136.296234 C205.154956,132.920542 203.899852,129.82839 202.208535,126.904773 C199.33052,121.928975 195.270765,118.253883 189.954914,116.046052 C186.535599,114.626378 182.93585,114.131673 179.237953,114.199088 C175.94851,114.259563 172.658076,114.226847 169.368633,114.227838 C169.096992,114.227838 168.824358,114.173312 168.431767,114.131673 L168.431767,92.3081519 L152.328566,92.3081519 L152.328566,169.771139 Z M370.322164,116.390462 C376.980361,116.270503 383.260837,116.115846 389.668212,116.473739 C386.383726,124.083667 383.210276,131.439799 379.886134,139.141927 C376.642296,131.424928 373.547166,124.061856 370.322164,116.390462 M417.875333,92.2153576 L411.72572,92.2153576 C408.19636,92.2173404 404.667,92.26691 401.139623,92.1925556 C400.042151,92.1687621 399.588093,92.6089404 399.204423,93.5497718 C398.061347,96.3484726 396.770553,99.0886812 395.660193,101.899279 C395.336007,102.71916 394.875009,102.837136 394.168146,102.835153 C390.877711,102.822265 387.587277,102.819291 384.296843,102.814334 C378.032229,102.805411 371.767615,102.769721 365.503001,102.814334 C364.472943,102.822265 364.280613,102.183808 364.00798,101.513627 C362.856972,98.6941071 361.746612,95.8587247 360.550992,93.0590325 C360.396334,92.6951915 359.830249,92.2788067 359.450545,92.2748411 C353.940381,92.2222973 348.429226,92.2351854 342.919062,92.2361768 C342.844708,92.2361768 342.769362,92.2837637 342.510608,92.3710062 C354.965482,118.925452 367.411433,145.459079 379.857384,171.992706 C379.971394,172.019473 380.085404,172.047232 380.200406,172.074 C392.71972,145.536408 405.240026,118.997824 417.875333,92.2153576 M345.365424,40.7535649 C345.157232,35.5794878 346.275523,30.9417541 348.792671,26.6876892 C351.161109,22.6834552 354.5487,19.7796668 358.857295,18.0249022 C362.085272,16.7093244 365.46394,15.9846166 368.967524,16.1105234 C373.370301,16.2691462 377.406263,17.6987341 381.081358,20.0532911 C382.76177,21.1299433 384.291489,22.4673316 385.779571,23.8086856 C386.409105,24.3747707 386.726351,24.3133043 387.154633,23.7323484 C389.691609,20.2951908 392.244446,16.8679472 394.73086,13.3931168 C394.912285,13.1383289 394.767542,12.3818965 394.508788,12.1211603 C390.190279,7.74812834 385.055854,4.71347613 379.244306,2.71681179 C374.355746,1.03739303 369.326408,0.528808718 364.265346,1.02153075 C354.011365,2.01986292 345.338657,6.37207566 338.293816,13.944331 C334.78131,17.7185619 332.157092,22.058878 330.354739,26.8274755 C329.329638,29.536951 328.783381,32.4665156 328.335271,35.3455192 C327.943671,37.863656 327.756297,40.4650697 327.910955,43.0030343 C328.072552,45.6738455 328.668379,48.3297858 329.217611,50.962924 C330.047407,54.949313 331.784328,58.5688867 333.940609,62.0050528 C337.546306,67.7511633 342.304993,72.3165254 348.263267,75.5098004 C351.089729,77.024648 354.125375,78.2133276 357.174901,79.2255392 C359.188421,79.8937377 361.385348,80.0543433 363.515852,80.3111139 C365.277558,80.5242633 367.066032,80.6828861 368.834677,80.6184456 C370.988975,80.5391342 373.145255,80.2714582 375.280716,79.9522299 C376.772763,79.7291666 378.233085,79.2909711 379.704313,78.9360526 C382.625949,78.2331554 385.293788,76.9205518 387.823824,75.3581174 C389.722342,74.1862915 391.496936,72.813213 393.328039,71.532334 C393.950634,71.0961214 393.996238,70.6906419 393.516404,70.0244261 C390.905074,66.3979127 388.361159,62.722821 385.7647,59.0854022 C385.460342,58.658112 385.173829,58.1445707 384.415414,58.842511 C381.295499,61.7106093 377.741354,63.7885678 373.534873,64.7492271 C368.16053,65.9775623 363.096493,65.2974671 358.155389,62.920108 C352.747339,60.3186943 349.226901,55.9962234 346.986352,50.626842 C345.659868,47.4484379 345.129473,44.0142545 345.365424,40.7535649 M139.368181,70.7022411 C136.431674,66.5968851 133.530857,62.5430815 130.53685,58.3574227 C129.855763,58.8779037 129.228211,59.3230389 128.640314,59.8147696 C124.970177,62.8831291 120.83111,64.7994907 116.005999,65.1950562 C107.19747,65.9177813 100.228966,62.6789023 95.0538936,55.5597133 C93.5093029,53.4351593 92.5506256,51.0310327 91.724795,48.5277668 C90.3487412,44.3639187 90.4052506,40.0632583 90.9693533,35.914281 C91.8893663,29.1351397 94.9904444,23.431659 101.088504,19.690144 C103.90307,17.9621471 106.860396,16.8230372 110.145873,16.5276022 C111.634946,16.3937642 113.129967,16.0725531 114.609126,16.1369936 C118.904833,16.3263496 122.8595,17.7499891 126.448344,20.0559678 C128.176342,21.165336 129.736795,22.5592337 131.268498,23.9402434 C132.106225,24.6956844 132.378858,23.9630454 132.684208,23.5555831 C134.469707,21.1693015 136.204645,18.7453471 137.959411,16.3362635 C138.59192,15.4678037 139.176842,14.5557227 139.885688,13.7546776 C140.589577,12.9585895 140.378411,12.4034097 139.679478,11.7897378 C136.858965,9.31224816 133.857026,7.11928813 130.553703,5.2911605 C123.929214,1.6269741 116.832821,0.389716361 109.399354,1.05692346 C102.70745,1.65671588 96.5280954,3.87049516 90.9475427,7.67545927 C85.4036716,11.4536558 81.0018855,16.2549693 77.8581775,22.1924185 C76.4563474,24.8404277 75.4560316,27.6272318 74.5855883,30.5042526 C73.2045775,35.0646577 73.0519029,39.7014001 73.3096652,44.3579703 C73.4355721,46.6173536 74.1632548,48.8430296 74.6113645,51.0855593 C75.2329681,54.1995229 76.4890634,57.0795179 78.0098606,59.8316232 C81.0008941,65.2436345 85.0160368,69.7455475 90.0741252,73.3552073 C93.4151205,75.739506 97.1040948,77.3693552 100.899148,78.7820894 C102.416971,79.3471831 104.086478,79.4978747 105.677664,79.8736124 C110.163718,80.9344023 114.713222,80.7242271 119.20919,80.2295223 C121.960307,79.9271476 124.684655,79.0795071 127.33465,78.2140215 C131.528243,76.8459 135.048681,74.2296154 138.571101,71.6629004 C138.901235,71.4210007 139.113393,71.0165125 139.368181,70.7022411 M58.508263,59.5597834 C55.800768,61.190624 53.3064225,62.9463799 50.5999189,64.2659233 C46.5530516,66.2378028 42.2216545,67.1340215 37.7405569,66.0187051 C34.1794723,65.1324002 31.5473232,62.5349521 31.9002592,58.8132649 C32.1550473,56.1226259 33.9375724,54.2360061 36.1017839,52.7528831 C39.7511025,50.2496172 43.9169369,48.8011929 47.9003551,46.9700911 C53.5146151,44.390488 58.8086551,41.298335 62.5115089,36.1232666 C64.0313148,33.999704 65.3825838,31.7472604 65.6264666,29.0863631 C65.8842288,26.2747742 66.2857431,23.4076673 65.9903079,20.63276 C65.6760362,17.6754364 64.410027,14.8826839 62.733581,12.3526504 C58.9980112,6.71460174 53.7456097,3.31214294 47.204397,1.8002695 C38.9649276,-0.104195344 31.0119709,0.923878599 23.3514751,4.30254397 C19.8786245,5.83523666 16.7993571,8.01927417 14.1255695,10.7654312 C13.4811638,11.4266899 13.5158626,11.9937664 13.8916006,12.5935588 C16.0191306,15.9880865 18.2200236,19.3360187 20.3207859,22.7464086 C20.7936805,23.5147377 21.104978,23.6218081 21.7741685,23.0428349 C25.2946059,19.9903377 29.1739278,17.4563386 33.6917069,16.254771 C37.4312422,15.2604044 41.2986673,14.9203568 45.0421683,16.5075761 C49.2506327,18.2910911 50.3044837,24.0976765 47.2747859,27.5744897 C44.7427675,30.4782781 41.4275485,32.1329121 38.0389663,33.7122002 C35.0201738,35.1199774 31.9200871,36.3780544 29.0083651,37.9791532 C24.5877425,40.4100474 20.752042,43.5854773 18.3310597,48.132003 C17.1175943,50.4092314 16.1331408,52.8153408 16.1242183,55.481195 C16.1192613,57.26471 15.992363,59.0621044 16.1698224,60.8277743 C16.3274539,62.3921916 16.6546137,63.9893248 17.2167336,65.45262 C18.5154588,68.8312854 20.4119941,71.8262819 23.2206112,74.2304085 C25.6792665,76.3351346 28.3897357,77.8777412 31.4343044,78.9662901 C34.8883185,80.2005737 38.459317,80.6407519 42.059066,80.6224923 C45.6568321,80.603079 49.2179167,80.1490213 52.6986984,78.9940491 C57.6179918,77.3632086 62.0257262,74.9689959 65.8019432,71.3989917 C66.3016054,70.9260976 66.449323,70.5840672 66.0854816,70.0695345 C63.6585509,66.6422909 61.2207149,63.2239698 58.7769305,59.8096143 C58.6490408,59.6291809 58.4448138,59.5032741 58.508263,59.5597834 M336.344142,106.95419 L336.344142,92.2984363 L291.77011,92.2984363 L291.77011,169.65877 L307.889173,169.65877 C307.889173,168.572204 307.888182,167.441025 307.889173,166.309846 C307.892147,147.084764 307.896113,127.858691 307.897104,108.632618 C307.897104,106.955182 307.891156,106.953199 309.53786,106.953199 C317.981556,106.953199 326.425253,106.95419 334.867958,106.95419 L336.344142,106.95419 M167.851802,1.97346576 C166.538206,1.97346576 165.279136,1.97247436 164.019075,1.97346576 C160.333075,1.97643993 156.645092,2.00122474 152.959092,1.96632181 C152.039079,1.95760348 151.737696,2.23915893 151.738684,3.18990426 C151.763472,28.323685 151.761489,53.458457 151.749592,78.5922377 C151.749592,79.3278509 151.836835,79.8136332 152.742968,79.8096917 C157.735625,79.7908312 162.729273,79.8007451 167.851802,79.8007451 L167.851802,1.97346576 Z" id="Shape" fill="#FFFFFF" fill-rule="nonzero" transform="translate(240, 86.037) scale(-1, 1) rotate(-180) translate(-240, -86.037)"></path>
    </g>
</svg>