<?xml version="1.0" encoding="UTF-8"?>
<svg width="480px" height="136px" viewBox="0 0 480 136" version="1.1" xmlns="http://www.w3.org/2000/svg" xmlns:xlink="http://www.w3.org/1999/xlink">
    <title>principal</title>
    <g id="principal" stroke="none" stroke-width="1" fill="none" fill-rule="evenodd">
        <g id="download" transform="translate(0, 0)" fill="#FFFFFF" fill-rule="nonzero">
            <path d="M370.670167,42.3230419 C365.013748,42.3230419 359.734424,44.5893485 356.340573,49.1219616 L355.586384,43.4561952 L348.044493,43.4561952 L348.044493,105.779626 L357.094762,105.779626 L357.094762,84.6274312 C359.734424,87.2714555 365.013748,89.1600443 369.161789,89.1600443 C381.228815,89.1600443 389.524895,79.3393825 389.524895,64.9861076 C389.524895,51.3882682 381.983004,42.3230419 370.670167,42.3230419 L370.670167,42.3230419 Z M368.030505,80.8502536 C363.882465,80.8502536 359.734424,78.9616648 357.471857,75.9399227 L357.471857,62.719801 C357.471857,55.1654458 361.996992,50.6328327 368.784694,50.6328327 C375.949491,50.6328327 380.474626,56.2985991 380.474626,64.9861076 C380.474626,74.8067694 375.949491,80.8502536 368.030505,80.8502536 L368.030505,80.8502536 Z M132.723493,27.5920493 L132.723493,88.026891 L142.150857,88.026891 L142.150857,66.8746964 L154.594978,66.8746964 C167.416193,66.8746964 175.712274,58.9426234 175.712274,47.2333728 C175.712274,35.5241223 167.039099,27.5920493 154.594978,27.5920493 L132.723493,27.5920493 L132.723493,27.5920493 Z M142.150857,35.5241223 L153.0866,35.5241223 C161.38268,35.5241223 166.28491,39.6790176 166.28491,47.2333728 C166.28491,54.7877281 161.38268,58.9426234 153.0866,58.9426234 L142.150857,58.9426234 L142.150857,35.5241223 Z M202.485988,42.7007597 C197.206664,42.7007597 192.681529,44.9670663 190.041867,49.1219616 L189.287678,43.4561952 L181.745787,43.4561952 L181.745787,87.6491733 L190.796057,87.6491733 L190.796057,63.8529543 C190.796057,55.1654458 194.944097,50.6328327 202.485988,50.6328327 C203.617272,50.6328327 205.502745,51.0105504 207.388218,51.3882682 L208.519501,43.833913 C206.634029,43.0784775 204.748556,42.7007597 202.485988,42.7007597 L202.485988,42.7007597 Z M220.209433,37.0349933 C223.603284,37.0349933 225.865852,34.7686867 225.865852,31.3692269 C225.865852,27.969767 223.603284,25.7034605 220.209433,25.7034605 C216.815582,25.7034605 214.553015,27.969767 214.553015,31.3692269 C214.17592,34.7686867 216.815582,37.0349933 220.209433,37.0349933 L220.209433,37.0349933 Z M224.357473,88.026891 L224.357473,75.5622049 L224.357473,43.833913 L215.307204,43.833913 L215.307204,88.026891 L224.357473,88.026891 L224.357473,88.026891 Z M258.295985,42.3230419 C252.639566,42.3230419 247.360242,44.9670663 243.966391,49.1219616 L243.212202,43.4561952 L235.670311,43.4561952 L235.670311,87.6491733 L244.72058,87.6491733 L244.72058,62.719801 C244.72058,55.1654458 249.62281,50.2551149 256.033417,50.2551149 C262.06693,50.2551149 265.837876,54.0322925 265.837876,60.0757767 L265.837876,87.6491733 L274.888146,87.6491733 L274.888146,58.9426234 C275.26524,49.1219616 268.477538,42.3230419 258.295985,42.3230419 L258.295985,42.3230419 Z M304.678617,50.6328327 C308.449563,50.6328327 312.597603,52.1437037 315.991454,54.7877281 L320.139494,48.3665261 C315.991454,44.9670663 309.957941,42.7007597 304.301522,42.7007597 C291.480307,42.7007597 282.052943,52.5214215 282.052943,65.7415431 C282.052943,79.7171003 290.726118,88.7823265 303.924428,88.7823265 C309.957941,88.7823265 316.368549,86.51602 320.139494,83.1165601 L315.991454,76.6953582 C312.597603,79.3393825 309.203752,80.8502536 305.055712,80.8502536 C296.382536,80.8502536 291.103212,75.1844871 291.103212,65.7415431 C291.103212,56.6763169 296.759631,50.6328327 304.678617,50.6328327 L304.678617,50.6328327 Z M456.647729,81.2279713 C453.630972,81.2279713 452.499689,80.094818 452.499689,76.3176404 L452.499689,24.9480249 L443.449419,24.9480249 L443.449419,77.8285115 C443.449419,85.0051489 447.597459,88.7823265 454.762256,88.7823265 C456.647729,88.7823265 458.533202,88.4046088 460.04158,88.026891 L459.287391,80.8502536 C458.533202,80.8502536 457.401918,81.2279713 456.647729,81.2279713 L456.647729,81.2279713 Z M332.583615,37.0349933 C335.977466,37.0349933 338.240034,34.7686867 338.240034,31.3692269 C338.240034,27.969767 335.977466,25.7034605 332.583615,25.7034605 C329.189764,25.7034605 326.927197,27.969767 326.927197,31.3692269 C326.550102,34.7686867 329.189764,37.0349933 332.583615,37.0349933 L332.583615,37.0349933 Z M336.731655,88.026891 L336.731655,75.9399227 L336.731655,43.833913 L327.681386,43.833913 L327.681386,88.026891 L336.731655,88.026891 Z M423.086312,61.20893 C420.44665,60.4534945 416.675704,60.0757767 413.281853,60.0757767 C401.591922,60.0757767 394.804219,65.7415431 394.804219,75.1844871 C394.804219,83.4942779 401.214827,88.7823265 411.019286,88.7823265 C416.675704,88.7823265 421.200839,86.51602 424.217596,82.7388424 C425.34888,86.51602 428.742731,88.7823265 433.267866,88.7823265 C435.153338,88.7823265 437.038811,88.4046088 438.54719,88.026891 L437.793,81.2279713 C437.038811,81.2279713 436.284622,81.6056891 435.530433,81.6056891 C433.267866,81.6056891 432.513676,80.4725358 432.513676,78.2062292 L432.513676,58.9426234 C432.513676,48.7442439 425.725974,42.7007597 414.790232,42.7007597 C409.510908,42.7007597 403.1003,44.2116308 397.820976,46.8556551 L400.460638,54.0322925 C404.231584,51.765986 408.756718,50.6328327 413.281853,50.6328327 C420.069556,50.6328327 423.840501,53.6545748 423.840501,59.698059 L423.840501,61.20893 L423.086312,61.20893 Z M423.086312,70.2741563 C423.086312,77.4507937 418.938272,81.6056891 412.15057,81.6056891 C406.871246,81.6056891 403.854489,78.9616648 403.854489,74.4290516 C403.854489,69.5187207 408.002529,66.4969786 414.413137,66.4969786 C417.806988,66.4969786 420.069556,66.8746964 423.086312,67.2524142 L423.086312,70.2741563 L423.086312,70.2741563 Z" id="Shape"></path>
            <path d="M110.769231,45.99307 C110.769231,19.2266112 90.0470958,0 61.4128728,0 C26.3736264,0 0,27.5204435 0,63.3347193 C0,101.033957 28.6342229,132.324324 66.310832,135.717256 L66.310832,87.8392238 C48.9795918,86.3312543 36.9230769,73.1365211 36.9230769,56.1718642 C36.9230769,39.5841996 48.2260597,27.5204435 63.2967033,27.5204435 C77.2370487,27.5204435 86.6562009,36.1912682 86.6562009,49.3860014 C86.6562009,60.6957727 79.4976452,68.2356202 66.310832,70.4975745 L66.310832,88.2162162 C93.4379906,87.0852391 110.769231,70.4975745 110.769231,45.99307 Z" id="Path"></path>
            <path d="M471.018711,23.950104 C476.257796,23.950104 480,27.6923077 480,32.9313929 C480,38.1704782 476.257796,41.9126819 471.018711,41.9126819 C465.779626,41.9126819 462.037422,38.1704782 462.037422,32.9313929 C462.037422,27.6923077 465.779626,23.950104 471.018711,23.950104 Z M471.018711,40.4158004 C475.509356,40.4158004 478.503119,37.4220374 478.503119,32.9313929 C478.503119,28.4407484 475.509356,25.4469854 471.018711,25.4469854 C466.528067,25.4469854 463.534304,28.4407484 463.534304,32.9313929 C463.534304,37.4220374 466.528067,40.4158004 471.018711,40.4158004 Z M467.276507,28.0665281 L471.767152,28.0665281 C474.012474,28.0665281 475.509356,29.5634096 475.509356,31.4345114 C475.509356,32.9313929 474.760915,34.0540541 473.264033,34.4282744 L475.883576,38.1704782 L472.889813,38.1704782 L470.644491,34.4282744 L469.147609,34.4282744 L469.147609,38.1704782 L466.902287,38.1704782 L466.902287,28.0665281 L467.276507,28.0665281 Z M469.52183,32.9313929 L471.392931,32.9313929 C472.515593,32.9313929 472.889813,32.1829522 472.889813,31.4345114 C472.889813,30.6860707 472.141372,29.9376299 471.392931,29.9376299 L469.52183,29.9376299 L469.52183,32.9313929 Z" id="Shape"></path>
        </g>
    </g>
</svg>