<?xml version="1.0" encoding="UTF-8"?>
<svg width="480px" height="136px" viewBox="0 0 480 136" version="1.1" xmlns="http://www.w3.org/2000/svg" xmlns:xlink="http://www.w3.org/1999/xlink">
    <title>ramble</title>
    <g id="ramble" stroke="none" stroke-width="1" fill="none" fill-rule="evenodd">
        <path d="M34.8520937,60.8528621 L18.071456,60.8528621 L18.071456,22.8659239 L34.8520937,22.8659239 C45.7318479,22.8659239 53.6611602,28.3980023 53.6611602,41.6749904 C53.6611602,55.1363811 46.4694583,60.8528621 34.8520937,60.8528621 Z M52.0015367,75.0518632 C64.1721091,70.2573953 72.285824,59.7464464 72.285824,41.1217826 C72.285824,15.4898194 55.1363811,5.34767576 36.3273146,5.34767576 L0,5.34767576 L0,134.429504 L18.071456,134.429504 L18.071456,78.1867076 L33.0080676,78.1867076 L52.5547445,134.429504 L72.6546293,134.429504 L52.0015367,75.0518632 Z M113.960814,120.414906 C106.400307,120.414906 101.790242,115.06723 101.790242,103.634268 C101.790242,93.1233192 107.506723,88.3288513 115.804841,88.3288513 C122.443335,88.3288513 126.131387,89.435267 130.372647,92.0169036 L130.372647,111.379178 C127.0534,117.095659 121.521322,120.414906 113.960814,120.414906 Z M148.075298,64.5409143 C148.075298,42.9658087 139.961583,35.5897042 119.124088,35.5897042 C110.272762,35.5897042 100.130619,38.9089512 91.2792931,44.8098348 L98.8398002,58.2712255 C106.215905,53.8455628 111.747983,52.1859393 117.833269,52.1859393 C127.237803,52.1859393 130.372647,56.611602 130.372647,66.0161352 L130.372647,75.4206685 C126.500192,73.5766423 121.521322,72.285824 115.620438,72.285824 C97.1801767,72.285824 84.0875912,82.9811756 84.0875912,104.003073 C84.0875912,125.762582 96.2581637,136.457933 110.457165,136.457933 C119.124088,136.457933 125.393776,133.507491 130.372647,127.79101 L130.372647,134.429504 L148.075298,134.429504 L148.075298,64.5409143 Z M271.07184,134.429504 L271.07184,73.7610449 L271.058631,71.4895033 C270.771061,47.3880046 265.696504,35.5897042 246.915098,35.5897042 C238.248175,35.5897042 231.056473,38.1713408 224.233577,45.9162505 C220.176719,38.9089512 214.275836,35.5897042 204.6869,35.5897042 C196.388782,35.5897042 190.487899,39.2777564 186.615444,44.256627 L186.615444,37.6181329 L168.912793,37.6181329 L168.912793,134.429504 L186.615444,134.429504 L186.615444,61.2216673 C190.119093,55.5051863 195.466769,52.3703419 200.998847,52.3703419 C209.850173,52.3703419 211.140991,58.8244333 211.140991,74.8674606 L211.140991,134.429504 L228.843642,134.429504 L228.843642,61.2216673 C232.347292,55.5051863 237.694967,52.3703419 243.227046,52.3703419 C252.078371,52.3703419 253.369189,58.8244333 253.369189,74.8674606 L253.369189,134.429504 L271.07184,134.429504 Z M327.314637,35.5897042 C318.647714,35.5897042 313.853246,39.0933538 309.243181,44.0722244 L309.243181,4.26325641e-14 L291.54053,9.22013062 L291.54053,134.429504 L309.243181,134.429504 L309.243181,129.266231 C314.037649,134.245102 319.200922,136.457933 326.023819,136.457933 C345.20169,136.457933 356.45025,119.30849 356.45025,87.038033 C356.45025,48.4978871 344.832885,35.5897042 327.314637,35.5897042 Z M324.548598,119.861698 C319.016519,119.861698 313.115636,117.095659 309.243181,111.194775 L309.243181,61.0372647 C312.378025,55.8739915 317.725701,52.1859393 323.626585,52.1859393 C333.768728,52.1859393 338.563196,62.6968882 338.563196,87.9600461 L338.555238,89.5512032 C338.335124,111.246178 333.551784,119.861698 324.548598,119.861698 Z M392.777564,4.26325641e-14 L375.074914,9.22013062 L375.074914,134.429504 L392.777564,134.429504 L392.777564,4.26325641e-14 Z M445.885517,35.5897042 C425.416827,35.5897042 411.402228,52.5547445 411.402228,86.4848252 C411.402228,116.911256 423.941606,136.457933 446.991932,136.457933 C459.346907,136.457933 469.120246,130.925855 475.75874,123.54975 L464.878986,112.301191 C459.346907,117.464464 455.474453,119.492893 447.360738,119.492893 C437.034191,119.492893 430.211295,111.194775 429.104879,92.0169036 L479.815597,92.0169036 C480,90.1728774 480,87.4068383 480,85.7472148 C480,52.0015367 465.247791,35.5897042 445.885517,35.5897042 Z M429.289282,76.7114867 C430.764502,60.1152516 436.480983,52.1859393 445.516711,52.1859393 C455.474453,52.1859393 461.375336,62.328083 461.928544,76.7114867 L429.289282,76.7114867 Z" id="Shape" fill="#FFFFFF" fill-rule="nonzero"></path>
    </g>
</svg>