<?xml version="1.0" encoding="UTF-8"?>
<svg width="480px" height="93px" viewBox="0 0 480 93" version="1.1" xmlns="http://www.w3.org/2000/svg" xmlns:xlink="http://www.w3.org/1999/xlink">
    <title>razorfish</title>
    <g id="razorfish" stroke="none" stroke-width="1" fill="none" fill-rule="evenodd">
        <path d="M390.952381,53.5868392 L390.535714,53.5868392 C386.91996,52.0111185 383.503351,50.0131017 380.357143,47.6344582 C378.949805,46.26707 378.155725,44.3883557 378.155725,42.4261249 C378.155725,40.463894 378.949805,38.5851798 380.357143,37.2177916 C382.007238,35.8029199 384.138982,35.078127 386.309524,35.193982 C388.394957,35.1795793 390.447584,35.7132624 392.261905,36.7416011 C394.269747,38.1212861 395.922039,39.9571654 397.083333,42.0987439 C397.988129,43.6586092 399.110514,45.0816331 400.416667,46.3249344 C401.186591,47.0285131 402.173457,47.448456 403.214286,47.5154106 C404.203507,47.5256837 405.144325,47.0880941 405.77381,46.3249344 C406.464807,45.3337462 406.800435,44.1380702 406.72619,42.9320773 C406.733779,39.2759486 405.723893,35.6898223 403.809524,32.5749344 C401.845238,29.3011249 399.880952,27.6344582 397.857143,27.6344582 L395.892857,27.9916011 C394.877107,28.3264359 393.88313,28.7240264 392.916667,29.1820773 C391.472083,28.803942 389.998873,28.5451349 388.511905,28.4082677 C387.043651,28.4082677 385.555556,28.4082677 384.047619,28.4082677 C378.605029,28.0380585 373.230142,29.7870297 369.047619,33.2892201 C365.204939,36.6208966 363.027046,41.4775986 363.095238,46.5630297 C363.138992,50.0389982 364.403142,53.3889959 366.666667,56.0273154 C370.463287,59.844757 374.973427,62.8784834 379.940476,64.9558868 L383.511905,66.7416011 C390.47619,70.0749344 394.047619,73.5273154 394.047619,77.0392201 C394.103795,79.1738602 393.209857,81.2233764 391.607143,82.6344582 C389.748671,84.0930693 387.416911,84.8137953 385.059524,84.6582677 C382.753946,84.6600702 380.469835,84.2153761 378.333333,83.3487439 C376.329816,82.4802215 374.571515,81.1308275 373.214286,79.4201725 C372.332376,78.2160553 371.517643,76.9641488 370.77381,75.6701725 C368.869048,72.3368392 366.884921,70.6701725 364.821429,70.6701725 C363.793157,70.6793335 362.826673,71.1625758 362.202381,71.9796963 C361.452176,72.9270845 361.052619,74.1047261 361.071429,75.3130297 C361.179232,78.582126 361.864388,81.8063902 363.095238,84.8368392 C363.842224,87.3808115 365.189569,89.708044 367.02381,91.6225535 C367.42819,91.9478582 367.867379,92.2273421 368.333333,92.4558868 C368.742149,92.6516095 369.189605,92.7533039 369.642857,92.7535058 C370.267684,92.6919612 370.885428,92.572398 371.488095,92.396363 C372.181621,92.0911117 372.840193,91.7119339 373.452381,91.2654106 L380.059524,92.396363 C381.666667,92.396363 383.333333,92.693982 385,92.7535058 C391.122212,92.922179 397.086917,90.7995084 401.72619,86.8011249 C406.048847,83.277456 408.525833,77.9727599 408.452381,72.396363 C408.452381,65.6106487 402.5,59.4201725 390.595238,53.646363 M476.785714,83.4082677 L475.178571,82.7535058 C474.299756,82.2372283 473.595065,81.4703596 473.154762,80.5511249 C472.719811,79.063471 472.518996,77.5171958 472.559524,75.9677916 L472.559524,55.5511249 C473.161716,48.213122 471.410356,40.8740933 467.559524,34.5987439 C463.669409,29.8154416 457.699049,27.2186682 451.547619,27.6344582 C448.898868,27.5758847 446.271978,28.1256988 443.869048,29.2416011 C441.366995,30.3477719 439.087644,31.9009579 437.142857,33.8249344 C436.34666,34.6014638 435.610427,35.4371878 434.940476,36.3249344 C434.166667,37.2773154 433.75,37.7535058 433.571429,37.7535058 C433.179922,37.762401 432.81475,37.5569922 432.619048,37.2177916 C432.500385,36.7288565 432.500385,36.2186314 432.619048,35.7296963 L432.619048,32.7535058 C432.619048,24.2416011 432.619048,15.9677916 433.095238,7.81302965 L433.095238,5.19398204 C433.204614,3.79757694 432.871389,2.40219445 432.142857,1.2058868 C431.424955,0.354402385 430.334877,-0.090527508 429.22619,0.0154106065 C427.22666,0.00411281415 425.231508,0.203627952 423.27381,0.610648702 C421.245256,1.02002261 419.254266,1.59740971 417.321429,2.33683918 C414.709162,3.21006826 412.226499,4.43137819 409.940476,5.96779156 C408.988538,6.60989786 408.410623,7.67681789 408.392857,8.82493442 C408.392857,10.3130297 409.642857,11.3844582 412.083333,12.0987439 C413.682395,12.3372249 415.196513,12.9715179 416.488095,13.943982 C417.504145,16.538125 417.970339,19.3150194 417.857143,22.0987439 C417.857143,26.6225535 418.27381,36.0868392 418.27381,50.5511249 L418.27381,70.0749344 C418.393877,73.2465475 418.154254,76.4215541 417.559524,79.5392201 C417.237663,80.9843795 416.388772,82.2577163 415.178571,83.1106487 L413.452381,83.8249344 C411.428571,84.5987439 410.47619,85.6701725 410.47619,86.9796963 C410.408158,88.804875 411.664976,90.4136019 413.452381,90.7892201 C417.703259,91.6325898 422.038694,91.9722321 426.369048,91.8011249 C430.24105,92.042548 434.127797,91.7420263 437.916667,90.9082677 C440,90.2535058 441.011905,89.1225535 441.011905,87.5154106 C441.011905,85.9082677 439.940476,84.7177916 437.797619,84.0035058 C436.979202,83.7277368 436.183205,83.3894378 435.416667,82.9916011 C434.469833,82.3526799 433.808221,81.3709335 433.571429,80.2535058 C433.205216,77.4914795 433.046043,74.7059364 433.095238,71.9201725 C433.095238,63.7654106 433.095238,58.0511249 433.630952,54.8368392 C433.841517,52.2601989 434.506539,49.7411756 435.595238,47.396363 C436.607348,45.0421016 438.309107,43.0497983 440.47619,41.6820773 C442.23119,40.4706441 444.297247,39.7888456 446.428571,39.7177916 C450.171915,39.432289 453.718889,41.4289303 455.416667,44.7773154 C457.699804,52.9014196 458.54586,61.361978 457.916667,69.7773154 C458.015138,72.8844581 457.815815,75.9938906 457.321429,79.0630297 C457.172844,80.4668722 456.437744,81.7424877 455.297619,82.5749344 C454.556734,82.9832327 453.779601,83.3219832 452.97619,83.5868392 C450.892857,84.3606487 449.821429,85.5511249 449.821429,87.0987439 C449.821429,88.646363 450.833333,89.8368392 452.857143,90.4916011 C456.54937,91.3025935 460.329458,91.6426015 464.107143,91.5035058 C468.438023,91.7045095 472.777066,91.3645845 477.02381,90.4916011 C478.772221,90.0547118 479.999147,88.4842464 480,86.6820773 C480,85.2535058 478.988095,84.1820773 476.904762,83.4677916 M329.22619,11.2654106 C329.106542,7.95196847 327.31324,4.92577178 324.464286,3.22969632 C320.92999,0.944524564 316.761669,-0.160080558 312.559524,0.074934416 C306.729085,-0.302970593 300.976092,1.57207873 296.488095,5.31302965 C292.431,9.11980773 290.254046,14.518655 290.535714,20.0749344 C290.535714,21.5035058 290.535714,22.9916011 290.535714,24.4201725 C290.773188,26.232516 291.151313,28.0236355 291.666667,29.7773154 L284.583333,29.7773154 C283.830301,29.7175486 283.083452,29.9522726 282.5,30.4320773 C282.061594,31.1015663 281.852686,31.8954189 281.904762,32.693982 L281.904762,34.1820773 C281.841695,35.0114078 282.028271,35.8406352 282.440476,36.5630297 C282.974673,37.0872396 283.724268,37.3297556 284.464286,37.2177916 L291.666667,37.2177916 L291.666667,73.4677916 C291.794411,75.9238744 291.594236,78.3860276 291.071429,80.7892201 C290.807669,81.9746391 290.078374,83.0042319 289.047619,83.646363 C288.52533,83.9413016 287.964333,84.1616931 287.380952,84.3011249 C285.416667,85.0749344 284.404762,86.0868392 284.404762,87.396363 C284.586277,89.1054129 285.827293,90.5134888 287.5,90.9082677 C291.414895,91.7077058 295.412562,92.0275192 299.404762,91.8606487 C303.396962,92.0275192 307.394629,91.7077058 311.309524,90.9082677 C313.392857,90.3130297 314.404762,89.1820773 314.404762,87.5749344 C314.404762,85.9677916 313.154762,84.6582677 310.714286,83.8844582 L308.27381,82.9320773 C307.231921,82.2400091 306.588871,81.0869548 306.547619,79.8368392 C306.090843,76.3647082 305.931534,72.859901 306.071429,69.3606487 L306.071429,36.8606487 L315.47619,36.8606487 C316.243749,36.9577449 317.013015,36.6939965 317.559524,36.146363 C318.04038,35.4718976 318.271842,34.6512599 318.214286,33.8249344 L318.214286,32.3368392 C318.294202,31.5171732 318.083514,30.6954914 317.619048,30.0154106 C317.017704,29.5294104 316.242041,29.3139483 315.47619,29.4201725 L306.428571,29.7773154 C306.201683,26.3387501 305.643541,22.930099 304.761905,19.5987439 C304.189706,17.3308562 303.791721,15.0225432 303.571429,12.693982 C303.509362,11.2183372 304.045986,9.78018664 305.059524,8.7058868 C306.057264,7.68027062 307.43872,7.11905419 308.869048,7.15826775 C311.585682,7.32306866 313.93527,9.1087557 314.821429,11.6820773 L316.011905,13.943982 C317.311796,15.9908169 319.540746,17.2613184 321.964286,17.3368392 C323.682099,17.5281656 325.398247,16.9633575 326.666667,15.7892201 C327.782459,14.6026866 328.363298,13.0107566 328.27381,11.3844582 M215.77381,74.8368392 C214.436137,78.7464711 211.285134,81.7643333 207.321429,82.9320773 C201.938926,84.3717282 196.202522,82.6966984 192.440476,78.5868392 C187.107767,73.5226448 183.381813,67.0022256 181.72619,59.8368392 C180.120733,55.169452 180.120733,50.0994644 181.72619,45.4320773 C183.154954,41.4970303 186.426035,38.5152279 190.47619,37.4558868 C195.857481,36.0976109 201.552329,37.7605067 205.357143,41.8011249 C210.676476,46.8038114 214.403197,53.2634621 216.071429,60.3725535 C217.620178,65.0696088 217.620178,70.1397838 216.071429,74.8368392 M219.464286,35.0749344 C213.781135,29.574449 205.965634,26.8531745 198.095238,27.6344582 C189.766833,28.046299 181.993182,31.9331245 176.666667,38.3487439 C171.182656,45.0172391 168.494641,53.5506213 169.166667,62.1582677 C169.234762,70.6528389 172.608004,78.7870501 178.571429,84.8368392 C184.248025,90.5422126 192.159693,93.4409782 200.178571,92.7535058 C208.689641,92.486221 216.62697,88.3972942 221.785714,81.6225535 C227.314955,74.6147656 229.936473,65.7484946 229.107143,56.8606487 C228.926953,48.6459646 225.578569,40.8188505 219.761905,35.0154106 M164.880952,72.5749344 C163.571429,72.5749344 162.202381,73.8249344 160.714286,76.3844582 L159.464286,78.5273154 C158.563302,80.2008071 157.226403,81.5994095 155.595238,82.5749344 C152.963928,83.418077 150.198057,83.7612873 147.440476,83.5868392 L136.130952,83.5868392 C135.585847,83.7392252 135.009392,83.7392252 134.464286,83.5868392 C134.089209,83.4549469 133.846534,83.0909349 133.869048,82.693982 C133.80834,82.4396175 133.80834,82.174537 133.869048,81.9201725 C134.044539,81.5507685 134.243353,81.1929029 134.464286,80.8487439 L164.22619,35.4320773 C164.598659,34.8369472 164.936521,34.2208465 165.238095,33.5868392 C165.297517,33.1722911 165.297517,32.7513872 165.238095,32.3368392 C165.478417,31.295498 164.957106,30.2280524 163.988095,29.7773154 C162.728161,29.2530464 161.358111,29.0485613 160,29.1820773 L130.952381,29.1820773 C128.934167,29.1920192 126.926476,28.8908655 125,28.2892201 L121.904762,27.396363 C120.119048,27.396363 118.452381,29.0630297 116.845238,32.396363 C115.249103,35.7810641 114.454724,39.4881622 114.52381,43.2296963 C114.406433,44.3106752 114.704326,45.3958575 115.357143,46.2654106 C115.776764,47.0181923 116.578887,47.4765483 117.440476,47.4558868 C119.166667,47.4558868 120.833333,45.9082677 122.5,42.8725535 C122.72614,42.4559437 122.984884,42.0578766 123.27381,41.6820773 C124.104902,40.0671141 125.360136,38.7089916 126.904762,37.7535058 C128.975205,36.9749241 131.183654,36.6304871 133.392857,36.7416011 L142.380952,36.7416011 C142.930114,36.6223997 143.498458,36.6223997 144.047619,36.7416011 C144.389842,36.8715624 144.607179,37.2096431 144.583333,37.5749344 C144.643276,37.9295621 144.643276,38.2917353 144.583333,38.646363 C144.385967,39.1903617 144.126303,39.7096899 143.809524,40.193982 L115.892857,83.3487439 C115.287284,84.2601074 114.750098,85.2151047 114.285714,86.2058868 C114.054706,86.7314201 113.933188,87.2985076 113.928571,87.8725535 C113.803058,88.7446616 114.169427,89.6147876 114.880952,90.1344582 C116.37632,90.6277157 117.952373,90.8297738 119.52381,90.7296963 L151.25,90.7296963 C154.075443,90.7140444 156.892761,91.03374 159.642857,91.6820773 L161.071429,91.6820773 C162.916667,91.6820773 164.52381,90.1344582 166.011905,87.0392201 C167.540457,83.8682099 168.295235,80.3799135 168.214286,76.8606487 C168.282134,75.6718011 167.99185,74.4899297 167.380952,73.4677916 C166.949439,72.6457968 166.106657,72.121905 165.178571,72.0987439 M84.5833333,80.0154106 C82.140008,82.0383516 78.9903779,83.0025241 75.8333333,82.693982 C72.6002952,82.8342844 69.4332491,81.750262 66.9642857,79.6582677 C64.7626667,77.632986 63.583372,74.7284268 63.75,71.7416011 C63.5830267,68.5384874 64.9812063,65.4536152 67.5,63.4677916 C70.5563455,61.2703682 74.2787153,60.197821 78.0357143,60.4320773 C79.4827097,60.3414629 80.9339569,60.3414629 82.3809524,60.4320773 C83.9932488,60.5407455 85.5894757,60.8200852 87.1428571,61.2654106 L87.1428571,70.4916011 C87.4924892,73.7896866 86.5541207,77.0953029 84.5238095,79.7177916 M105.833333,81.5630297 L103.928571,81.5630297 C102.998046,81.1963315 102.307855,80.3948185 102.083333,79.4201725 C101.620967,77.69403 101.420319,75.9082624 101.488095,74.1225535 L101.488095,53.5868392 C101.606212,49.3218585 101.307172,45.0555435 100.595238,40.8487439 C100.173635,38.6951973 99.2790896,36.6621393 97.9761905,34.896363 C95.9184531,32.5088393 93.2403081,30.7371435 90.2380952,29.7773154 C86.4005372,28.5025434 82.3767307,27.8788533 78.3333333,27.9320773 C71.8217966,27.6655455 65.3493474,29.058351 59.5238095,31.9796963 C55.5381168,33.6645066 52.7804842,37.379334 52.3214286,41.6820773 C52.1341361,43.258267 52.5841351,44.8439779 53.5714286,46.0868392 C54.6287879,47.2081371 56.144172,47.7791514 57.6785714,47.6344582 C60.9847236,47.3864479 63.9925696,45.6300415 65.8333333,42.8725535 C66.1816611,42.2688842 66.6013426,41.7093088 67.0833333,41.2058868 C68.5494233,39.5454459 70.2789043,38.1377288 72.202381,37.0392201 C74.0567108,36.1365231 76.0923852,35.668318 78.1547619,35.6701725 C80.7918701,35.5459508 83.3390935,36.6438919 85.0595238,38.646363 C86.7891291,41.1121045 87.628749,44.0927551 87.4404762,47.0987439 L87.4404762,53.5868392 C85.2380952,53.2296963 83.0952381,52.9320773 81.1309524,52.7535058 C79.3463556,52.6641643 77.5584063,52.6641643 75.7738095,52.7535058 C68.5419939,52.1337284 61.3112425,53.9571353 55.2380952,57.9320773 C50.2746529,61.5766288 47.4248412,67.4321012 47.6190476,73.5868392 C47.4949362,78.8721429 49.6658917,83.9521788 53.5714286,87.5154106 C57.6238925,91.1203582 62.913384,93.0186031 68.3333333,92.8130297 C74.0493599,92.6166384 79.5877408,90.7773999 84.2857143,87.5154106 C85.0928443,86.9078547 85.999091,86.444662 86.9642857,86.146363 C88.1143108,87.1772518 89.2072064,88.2701475 90.2380952,89.4201725 C91.6866377,91.2846835 93.8401342,92.4691066 96.1904762,92.693982 C99.6209325,92.7495008 103.006425,91.9082572 106.011905,90.2535058 C108.75,88.646363 110.178571,86.8011249 110.178571,84.8368392 C110.178571,82.8725535 108.869048,82.396363 106.25,81.6820773 M37.6785714,27.6344582 C35.0888476,27.7325196 32.6018565,28.6729784 30.5952381,30.3130297 C27.8954906,32.7263705 25.6039795,35.5606079 23.8095238,38.7058868 L23.8095238,36.443982 C22.5595238,30.8487439 21.1904762,28.3487439 19.1666667,28.3487439 C17.1483684,28.4389713 15.1490186,28.7788608 13.2142857,29.3606487 C10.3480166,30.1386867 7.52635805,31.0726159 4.76190476,32.1582677 C3.43477075,32.6257018 2.20423783,33.3317453 1.13095238,34.2416011 C0.48145504,34.825391 0.0773335468,35.633634 0,36.5035058 C0,37.9320773 1.25,39.0630297 3.75,39.8368392 C4.72124081,40.1415134 5.67505232,40.4991928 6.60714286,40.9082677 C7.5,41.443982 8.0952381,42.8725535 8.45238095,45.1344582 C8.92797738,50.1393294 9.10686174,55.1679675 8.98809524,60.193982 L8.98809524,73.1106487 C9.10435422,75.4155748 8.86341083,77.7246157 8.27380952,79.9558868 C7.9570301,81.2147887 7.14002546,82.2897948 6.01190476,82.9320773 L4.3452381,83.646363 C2.32142857,84.3011249 1.30952381,85.3725535 1.30952381,86.8011249 C1.32340162,88.6385646 2.60907355,90.2209301 4.4047619,90.6106487 C8.53497418,91.4544007 12.7522655,91.7941825 16.9642857,91.6225535 C20.9582899,91.7456806 24.9531243,91.4061197 28.8690476,90.6106487 C31.25,89.896363 32.3809524,88.7654106 32.3809524,87.2177916 C32.3809524,85.6701725 31.1309524,84.3011249 28.5714286,83.5273154 L26.1309524,82.693982 C24.8780204,81.9220248 24.0287962,80.637301 23.8095238,79.1820773 C23.2155748,76.5067965 22.9754275,73.7651152 23.0952381,71.0273154 C22.7269213,62.6701793 23.3462851,54.2987778 24.9404762,46.0868392 C26.0119048,42.1582677 28.0357143,40.1344582 30.8928571,40.1344582 C31.3690476,40.1344582 31.8452381,40.6701725 32.2619048,41.7416011 C32.605752,42.6386449 33.1100013,43.4656137 33.75,44.1820773 C34.463219,44.9973862 35.3612633,45.6300992 36.3690476,46.0273154 C37.3887683,46.4490393 38.4798999,46.6713068 39.5833333,46.6820773 C41.7541435,46.7920511 43.8422661,45.836846 45.1785714,44.1225535 C46.7778118,42.1790545 47.641806,39.7345832 47.6190476,37.2177916 C47.8248847,34.5865083 46.8560087,31.9989809 44.9725793,30.1500045 C43.0891499,28.301028 40.484178,27.3800828 37.8571429,27.6344582 M267.857143,27.6344582 C265.144226,27.6534252 262.519162,28.5984483 260.416667,30.3130297 C257.5456,32.6867874 255.091193,35.5234371 253.154762,38.7058868 L253.154762,37.7535058 C253.214317,37.3190292 253.214317,36.8784586 253.154762,36.443982 C252.5,30.4916011 251.130952,28.0511249 249.107143,28.0511249 C247.210391,28.1805499 245.333842,28.5199258 243.511905,29.0630297 C240.657591,29.8159811 237.854269,30.7504219 235.119048,31.8606487 C233.685157,32.2897286 232.3501,32.997713 231.190476,33.943982 C230.475193,34.6036423 230.065652,35.5304978 230.059524,36.5035058 C230.059524,37.9320773 231.309524,39.0630297 233.809524,39.8368392 C234.803569,40.131511 235.777775,40.4893826 236.72619,40.9082677 C237.619048,41.443982 238.214286,42.8725535 238.511905,45.1344582 C238.953478,50.1413641 239.11246,55.1691809 238.988095,60.193982 L238.988095,73.1106487 C239.047243,75.4248893 238.746023,77.734246 238.095238,79.9558868 C237.780469,81.1986927 236.989362,82.2677562 235.892857,82.9320773 L234.166667,83.646363 C232.142857,84.3011249 231.130952,85.3725535 231.130952,86.8011249 C231.122062,88.6466657 232.417912,90.2415577 234.22619,90.6106487 C238.376569,91.4539901 242.613505,91.7937444 246.845238,91.6225535 C250.839112,91.7409236 254.833402,91.401409 258.75,90.6106487 C261.071429,89.896363 262.261905,88.7654106 262.261905,87.2177916 C262.261905,85.6701725 261.011905,84.3011249 258.511905,83.5273154 L255.952381,82.693982 C254.654039,81.9478617 253.758459,80.659101 253.511905,79.1820773 C252.927874,76.5046911 252.668071,73.7667651 252.738095,71.0273154 C252.488106,62.6645572 253.166862,54.2998811 254.761905,46.0868392 C255.952381,42.1582677 257.97619,40.1344582 260.714286,40.1344582 C261.190476,40.1344582 261.607143,40.6701725 262.083333,41.7416011 C262.428665,42.6249419 262.910743,43.4484907 263.511905,44.1820773 C264.273875,44.9683286 265.184322,45.5955256 266.190476,46.0273154 C267.180397,46.477122 268.258077,46.7007915 269.345238,46.6820773 C271.518012,46.8023737 273.610696,45.8450821 274.940476,44.1225535 C276.352228,42.1294262 277.044848,39.7157526 276.904762,37.2773154 C277.051127,34.8766991 276.235656,32.5165945 274.638505,30.7184037 C273.041354,28.9202128 270.793972,27.83193 268.392857,27.693982 L267.380952,27.693982 M335.833333,22.1582677 C337.530673,23.4754215 339.639025,24.1500943 341.785714,24.0630297 C344.182126,24.1614417 346.538413,23.4251021 348.452381,21.9796963 C351.257119,19.7388199 351.759313,15.6684102 349.583333,12.8130297 C349.268596,12.4679246 348.908108,12.1675181 348.511905,11.9201725 C346.82839,10.564974 344.720187,9.84818491 342.559524,9.89636299 C340.169564,9.79579158 337.830173,10.6039449 336.011905,12.1582677 C334.336628,13.4320036 333.347156,15.4109479 333.333333,17.5154106 C333.309181,19.4414266 334.218505,21.2600756 335.77381,22.396363 M354.404762,84.0035058 L352.02381,82.9916011 C350.966774,82.2341949 350.27582,81.068211 350.119048,79.7773154 C349.692165,77.0213712 349.532693,74.2306146 349.642857,71.443982 L349.642857,55.3725535 L350.059524,39.4796963 L350.059524,32.9916011 C350.217657,31.5824596 349.969833,30.157473 349.345238,28.8844582 C348.814,28.0611424 347.883313,27.5844491 346.904762,27.6344582 C344.630804,27.8231685 342.37916,28.2216895 340.178571,28.8249344 C336.953319,29.6022567 333.789938,30.6169261 330.714286,31.8606487 C329.335216,32.3605189 328.048085,33.0845305 326.904762,34.0035058 C326.198501,34.6507416 325.771595,35.5472456 325.714286,36.5035058 C325.714286,37.9320773 326.964286,39.0630297 329.52381,39.8368392 C330.514598,40.1412546 331.488236,40.4989175 332.440476,40.9082677 C333.517114,41.8095063 334.147406,43.1352941 334.166667,44.5392201 C334.642151,48.8074042 334.821151,53.1034183 334.702381,57.396363 L334.702381,73.1106487 C334.81864,75.4155748 334.577697,77.7246157 333.988095,79.9558868 C333.671316,81.2147887 332.854311,82.2897948 331.72619,82.9320773 L330.059524,83.5868392 C328.095238,84.3011249 327.02381,85.3725535 327.02381,86.8011249 C327.014919,88.6466657 328.310769,90.2415577 330.119048,90.6106487 C334.29006,91.450223 338.54624,91.7899181 342.797619,91.6225535 C346.576166,91.7974657 350.360935,91.4570368 354.047619,90.6106487 C356.130952,89.9558868 357.142857,88.8249344 357.142857,87.2177916 C357.142857,85.6106487 356.071429,84.4201725 353.928571,83.7058868" id="Shape" fill="#FFFFFF" fill-rule="nonzero"></path>
    </g>
</svg>