<?xml version="1.0" encoding="UTF-8"?>
<svg width="480px" height="485px" viewBox="0 0 480 485" version="1.1" xmlns="http://www.w3.org/2000/svg" xmlns:xlink="http://www.w3.org/1999/xlink">
    <title>sandwich</title>
    <g id="sandwich" stroke="none" stroke-width="1" fill="none" fill-rule="evenodd">
        <path d="M235.619397,0.00780958411 L239.56044,0 C298.901099,0 348.131868,4.83516484 386.373626,14.9450549 C413.186813,22.4175824 434.285714,32.967033 449.67033,45.7142857 C468.571429,61.0989011 480,84.3956044 480,109.010989 C479.56044,120.879121 477.362637,132.307692 473.406593,143.296703 C470.769231,149.450549 467.692308,155.604396 464.175824,161.318681 C465.494505,167.032967 466.373626,173.186813 466.373626,179.340659 L466.373626,442.197802 C465.934066,466.373626 446.593407,485.274725 422.857143,485.274725 L57.1428571,485.274725 C33.4065934,485.274725 13.6263736,465.934066 13.6263736,442.197802 L13.6263736,181.978022 C13.1868132,174.945055 14.0659341,168.351648 15.8241758,161.758242 C11.8681319,156.043956 8.79120879,149.89011 6.59340659,143.736264 C2.1978022,132.747253 0,121.318681 0,109.450549 C0,84.3956044 11.4285714,61.0989011 30.7692308,46.1538462 C46.1538462,32.967033 67.2527473,22.8571429 94.0659341,15.3846154 C130.168498,5.4993895 178.037824,0.23681997 235.619397,0.00780958411 L235.619397,0.00780958411 Z M242.105977,24.6187327 L237.015033,24.6187327 L231.898325,24.6460216 C147.525438,25.325759 25.0418462,37.7919121 24.6153846,109.010989 C24.6153846,123.956044 31.2087912,146.373626 44.8351648,157.362637 C40,164.395604 37.3626374,172.747253 38.2417582,181.538462 L38.2417582,441.758242 L38.2645821,442.671109 C38.7495333,452.340387 46.8997669,459.78022 56.7032967,459.78022 L422.417582,459.78022 C432.527473,459.78022 440.879121,451.868132 440.879121,441.758242 L440.879121,179.340659 C441.318681,171.428571 439.120879,163.516484 434.285714,157.362637 C447.912088,145.934066 454.505495,123.516484 454.505495,109.010989 C454.505495,36.3384615 326.553978,24.8414066 242.105977,24.6187327 L242.105977,24.6187327 Z M292.747253,335.824176 L326.252262,337.613732 C329.092361,337.944409 331.428571,340.840336 331.428571,343.736264 L331.428571,370.549451 L371.868132,370.549451 L371.868132,346.373626 L371.899535,345.689458 C372.231644,342.11643 375.151907,339.78022 378.461538,339.78022 L411.428571,341.538462 C414.505495,341.978022 417.142857,344.615385 417.142857,347.692308 L417.142857,431.208791 L417.115838,431.819863 C416.829537,435.026427 414.298643,437.362637 410.989011,437.362637 L378.021978,437.362637 L377.410906,437.335618 C374.204342,437.049317 371.868132,434.518423 371.868132,431.208791 L371.868132,405.714286 L331.428571,405.714286 L331.428571,431.208791 L331.401552,431.819863 C331.115252,435.026427 328.584357,437.362637 325.274725,437.362637 L292.307692,437.362637 L291.69662,437.335618 C288.490057,437.049317 286.153846,434.518423 286.153846,431.208791 L286.153846,341.566593 L286.261697,340.894789 C286.926511,337.755838 289.450549,335.824176 292.747253,335.824176 Z M128.791209,381.538462 C128.791209,351.648352 145.494505,326.593407 179.340659,328.791209 L257.142857,332.747253 C260.21978,333.186813 262.857143,335.824176 262.857143,338.901099 L262.857143,363.048791 L262.749292,363.648158 C262.084478,366.473214 259.56044,368.791209 256.263736,368.791209 L236.845502,367.928001 C217.461533,367.123695 193.672067,366.243341 189.492468,366.160226 L187.252747,366.153846 C178.901099,367.032967 172.747253,374.505495 173.626374,382.857143 C173.626374,394.725275 180.21978,400.879121 189.450549,401.318681 L256.703297,401.318681 L257.314369,401.345701 C260.520932,401.632001 262.857143,404.162896 262.857143,407.472527 L262.857143,431.208791 L262.830123,431.746767 C262.543823,434.586866 260.012928,436.923077 256.703297,436.923077 L253.181836,436.85647 C247.67822,436.768586 241.210772,436.733198 234.219297,436.728315 L229.485506,436.729337 C219.881963,436.739456 209.520567,436.795117 199.443818,436.844198 L174.945055,436.923077 C144.615385,436.923077 128.791209,410.549451 128.791209,381.538462 Z M69.8901099,322.637363 L102.857143,324.835165 C105.934066,325.274725 108.571429,327.912088 108.571429,330.989011 L108.571429,430.769231 C108.571429,434.285714 105.934066,436.923077 102.417582,436.923077 L69.4505495,436.923077 C65.9340659,436.923077 63.2967033,434.285714 63.2967033,430.769231 L63.2967033,328.791209 L63.4045544,328.1426 C64.0693681,324.955357 66.5934066,322.637363 69.8901099,322.637363 Z M409.230769,167.472527 C413.626374,167.472527 417.142857,170.989011 417.142857,175.384615 L417.142857,313.846154 C416.729153,317.155785 414.368607,319.68668 411.160612,319.606516 L352.087912,315.604396 C349.450549,315.604396 347.252747,313.846154 346.373626,311.208791 L330.549451,254.505495 L318.241758,308.131868 C317.362637,311.208791 314.725275,312.967033 311.648352,312.967033 L258.461538,309.89011 C255.384615,309.89011 253.186813,307.692308 252.747253,304.615385 L242.637363,201.758242 C242.197802,198.241758 244.395604,195.164835 247.472527,194.725275 L279.56044,189.450549 L280,189.450549 C283.076923,189.450549 286.153846,191.648352 286.593407,195.164835 L292.303297,251.863736 L308.131868,188.131868 C308.534799,186.117216 310.41514,184.471917 312.4186,183.873118 L312.967033,183.736264 L343.736264,178.461538 C346.813187,178.021978 349.89011,179.78022 350.769231,182.857143 L371.863736,251.863736 L371.868132,178.901099 C371.868132,175.824176 374.065934,173.186813 377.142857,172.747253 L407.472527,167.472527 L409.230769,167.472527 Z M227.692308,255.384615 C227.692308,292.189601 207.645062,307.66773 182.676723,306.440881 L167.016687,305.592186 L161.81698,305.251087 C160.865446,305.179976 160.087912,305.113553 159.56044,305.054945 L103.853531,302.252239 L95.7223542,301.82061 C86.3823317,301.313217 77.5702076,300.789581 69.4505495,300.21978 C66.3736264,299.78022 63.7362637,297.142857 63.7362637,294.065934 L63.7362637,232.087912 C63.7362637,229.626374 65.2678877,227.164835 67.9737566,226.490191 L70.2182559,226.083055 L133.769947,214.95348 L146.351334,212.82092 C146.516484,212.79435 146.670542,212.769776 146.813187,212.747253 L149.441193,212.178432 L152.507863,211.548923 C159.982135,210.055421 169.647195,208.409485 180.659341,207.032967 C209.230769,203.516484 227.692308,225.494505 227.692308,255.384615 Z M166.593407,242.637363 L161.000685,243.397524 L108.571429,250.989011 L108.571429,271.648352 L144.699967,272.281847 C151.233992,272.380242 157.541174,272.462421 162.514756,272.502032 L167.912088,272.527473 C175.384615,272.087912 181.538462,265.494505 181.538462,257.582418 C181.538462,249.230769 174.945055,242.637363 166.593407,242.637363 Z M142.857143,54.9450549 C145.934066,54.9450549 149.010989,57.5824176 149.010989,61.0989011 L149.010989,83.0769231 C149.010989,88.3516484 145.054945,92.3076923 140.21978,93.1868132 C127.032967,94.5054945 114.285714,97.1428571 101.538462,100.659341 C94.2994505,102.788462 94.8982658,108.21772 101.336777,109.753847 L101.978022,109.89011 C108.571429,111.208791 113.406593,111.648352 120.43956,113.406593 C139.340659,116.923077 152.967033,133.626374 152.967033,152.527473 C152.967033,158.168498 151.858974,163.809524 149.642857,168.773403 L149.010989,170.10989 C144.175824,180.659341 134.505495,188.571429 123.076923,191.648352 C116.043956,193.846154 108.131868,195.604396 100.659341,196.483516 L93.7237689,197.518982 L86.1820395,198.697741 C80.8551992,199.544492 75.1439037,200.481423 70.3296703,201.318681 L69.010989,201.318681 C65.4945055,201.318681 62.8571429,198.681319 62.8571429,195.164835 L62.8571429,172.747253 C62.8571429,169.230769 65.9340659,166.153846 69.4505495,165.274725 L87.8701464,161.683275 L99.4836626,159.498692 C101.776442,159.078992 103.456543,158.784073 104.175824,158.681319 C108.831909,157.834758 109.819563,152.096957 105.176252,150.495575 L102.900088,149.823277 L91.8681319,146.813187 C85.7142857,145.054945 81.3186813,144.175824 76.4835165,142.857143 C60.6593407,138.461538 50.1098901,127.472527 50.1098901,111.208791 C50.1098901,94.0659341 62.8571429,77.8021978 85.7142857,69.010989 C103.736264,61.978022 122.637363,57.1428571 141.978022,54.9450549 L142.857143,54.9450549 Z M228.567718,48.7952223 L232.091622,48.7952223 L235.534489,48.830663 C271.310719,49.4015523 277.040606,56.1877338 279.56044,73.4065934 L289.67033,158.681319 C290.10989,161.758242 287.912088,164.835165 284.835165,165.274725 L251.428571,171.428571 L250.989011,171.428571 C247.472527,171.428571 244.835165,169.230769 244.395604,165.714286 L243.076923,151.208791 L217.142857,151.208791 L214.945055,172.747253 C214.505495,175.384615 212.307692,177.582418 209.67033,178.021978 L175.384615,184.175824 L173.626374,184.175824 C170.549451,183.736264 167.912088,181.098901 168.351648,177.582418 L181.098901,73.8461538 L181.345359,72.1870566 C184.092028,54.8499149 190.887385,48.9695144 228.567718,48.7952223 Z M316.311915,50.9428451 L316.923077,50.989011 L320.452265,51.3350765 C329.901517,52.2879197 343.658694,53.8849386 352.967033,55.8241758 C354.097331,56.2009419 355.22763,56.577708 356.08112,57.5080896 L385.934066,95.3846154 L385.934066,68.5714286 C386.373626,65.9340659 389.010989,64.6153846 391.208791,65.4945055 C403.516484,69.010989 414.505495,75.6043956 423.296703,84.3956044 C429.401709,91.3146113 429.853932,102.755845 429.88743,114.532058 L429.89011,121.318681 C429.89011,133.626374 420.21978,141.098901 409.230769,144.175824 L389.450549,147.252747 C387.252747,147.692308 385.054945,146.813187 383.736264,145.054945 L355.164835,112.087912 L355.604396,147.692308 C355.604396,150.769231 353.406593,153.406593 350.32967,153.846154 L317.362637,159.56044 L316.483516,159.56044 C312.967033,159.56044 310.32967,156.923077 310.32967,153.406593 L310.32967,56.2637363 C310.717518,53.5488041 312.816457,51.1760903 315.720616,50.957339 L316.311915,50.9428451 Z M230.851394,84.8389805 L228.928826,84.8389805 L228.024013,84.8656899 C225.103785,85.018315 223.150183,85.9340659 222.417582,91.4285714 L220.21978,116.043956 L239.56044,116.043956 L237.362637,91.4285714 C236.556777,85.3846154 234.273504,84.8809524 230.851394,84.8389805 Z" id="Shape" fill="#FFFFFF" fill-rule="nonzero"></path>
    </g>
</svg>