<?xml version="1.0" encoding="UTF-8"?>
<svg width="480px" height="112px" viewBox="0 0 480 112" version="1.1" xmlns="http://www.w3.org/2000/svg" xmlns:xlink="http://www.w3.org/1999/xlink">
    <title>zeiss</title>
    <g id="zeiss" stroke="none" stroke-width="1" fill="none" fill-rule="evenodd">
        <path d="M42.9986512,11.8193627 C17.7969317,11.8193627 15.9304482,36.3704534 15.9304482,36.3704534 L4.72968402,36.3704534 L4.72968402,0 L96.2004175,0 C96.2004175,0 96.2004175,28.1067406 69.1331465,57.9370424 C69.1331465,57.9370424 43.931427,87.4344045 42.9986512,100.322485 L57.9323822,100.322485 C79.400203,100.322485 81.2657546,75.7897892 81.2657546,75.7897892 L93.4002265,75.7897892 L93.4002265,112.23382 L0.0630095407,112.23382 C0.0630095407,112.23382 -2.73718152,84.6246501 28.996764,51.0731483 C28.996764,51.0731483 49.5318091,29.0926838 54.1984835,11.7365876 L42.9977193,11.8193627 M274.572025,112.23382 L274.572025,100.322898 L271.796914,100.322898 C267.172036,100.322898 262.547158,96.2666865 262.547158,91.3066401 L262.547158,20.9281008 C262.547158,15.95793 267.172036,11.9026387 271.796914,11.9026387 L274.572025,11.9026387 L274.572025,0 L214.446764,0 L214.446764,11.9026387 L217.220952,11.9026387 C222.771175,11.9026387 226.471632,15.9588504 226.471632,20.9281008 L226.471632,91.3066401 C226.471632,96.2666865 222.771175,100.322898 217.220952,100.322898 L214.446764,100.322898 L214.446764,112.23382 L274.572025,112.23382 M202.421712,112.23382 L202.421712,75.8196296 L190.279405,75.8196296 C190.279405,75.8196296 187.477405,100.332238 165.995723,100.332238 L153.854348,100.332238 L153.854348,62.1141092 L158.524036,62.1141092 C163.193723,62.1141092 167.863411,66.1548208 167.863411,71.1898581 L167.863411,75.7369222 L180.005719,75.7369222 L180.005719,36.5152776 L167.862479,36.5152776 L167.862479,41.0531521 C167.862479,46.0891083 163.192791,50.1390096 158.523103,50.1390096 L153.853415,50.1390096 L153.853415,11.901582 L165.99479,11.901582 C187.476473,11.901582 190.278472,36.4325703 190.278472,36.4325703 L202.419847,36.4325703 L202.419847,0 L106.221294,0 L106.221294,11.9760186 L109.023294,11.9760186 C113.692981,11.9760186 117.429291,16.0259199 117.429291,20.9874395 L117.429291,91.2564896 C117.429291,96.2088195 113.692981,100.258721 109.023294,100.258721 L106.221294,100.258721 L106.221294,112.151113 L202.421712,112.23382 M338.50056,11.8193627 C363.563256,11.8193627 365.419512,36.3704534 365.419512,36.3704534 L376.558901,36.3704534 L376.558901,0 L290.231422,0 C290.231422,0 276.307186,17.8536665 312.509271,57.9370424 C312.509271,57.9370424 337.571968,87.4344045 338.50056,100.322485 L323.64866,100.322485 C302.298474,100.322485 300.442219,75.7897892 300.442219,75.7897892 L288.374239,75.7897892 L288.374239,112.23382 L375.631236,112.23382 C375.631236,112.23382 391.4108,95.2097443 352.423868,51.0731483 C352.423868,51.0731483 331.07461,29.995852 327.361171,11.7365876 L338.50056,11.8193627 M440.639577,11.8193627 C464.774582,11.8193627 466.630836,36.3704534 466.630836,36.3704534 L478.698802,36.3704534 L478.698802,0 L391.441902,0 C391.441902,0 377.518608,17.8536665 413.720654,57.9370424 C413.720654,57.9370424 438.783323,87.4344045 439.711913,100.322485 L424.86003,100.322485 C404.437531,100.322485 401.652687,75.7897892 401.652687,75.7897892 L389.586575,75.7897892 L389.586575,112.23382 L476.841622,112.23382 C476.841622,112.23382 492.622096,95.2097443 453.636133,51.0731483 C453.636133,51.0731483 433.213635,29.995852 429.501127,11.7365876 L440.640503,11.8193627" id="Shape" fill="#FFFFFF" fill-rule="nonzero"></path>
    </g>
</svg>