<svg width="1218" height="424" viewBox="0 0 1218 424"
    xmlns="http://www.w3.org/2000/svg">
    <path d="M1.59.05h146.62v48.87H50.46v24.44h97.75v122.18H1.59v-48.87h97.75v-24.44H1.59zM230.56.05h48.87v195.49h-48.87zM608.57.05l.75 195.49h-48.87V48.92h-48.87v146.62H462.7V48.92h-48.87v146.62h-48.87V.05h146.62zM838.79 146.67h-97.75v48.87h-48.87V.05h146.62v146.62Zm-48.87-48.88V48.92h-48.87v48.87h48.87ZM911.53.05h48.87v146.62h69.24v48.87H911.53zM1095.38.05h122.18v48.87h-73.31v24.44h73.31v48.87h-73.31v24.44h73.31v48.87h-122.18zM.87 260.81h101.82v40.73H41.6V383h61.09v40.73H.87zM141.58 260.81H243.4v81.46h20.36v81.46h-40.73V383H182.3v40.73h-40.73V260.81h.01Zm40.73 40.73v40.73h20.36v-40.73h-20.36ZM306.53 260.81h101.82v40.73h-61.09v20.36h61.09v40.73h-61.09V383h61.09v40.73H306.53zM605.63 260.81h122.18v40.73h-40.73v122.18h-40.73V301.54h-40.73v-40.73zM766.5 260.81h40.73V383h40.73V260.81h40.73V383h20.36v40.73H766.5zM950.79 260.81h101.82v81.46h20.36v81.46h-40.73V383h-40.73v40.73h-40.73V260.81h.01Zm40.73 40.73v40.73h20.36v-40.73h-20.36ZM1115.74 260.81h101.82v40.73h-61.09v20.36h61.09v40.73h-61.09V383h61.09v40.73h-101.82zM523.44 334.57l15.14 26.22 15.14 26.22h-60.56l15.14-26.22 15.14-26.22m0-73.31-46.88 81.2-46.88 81.2h187.54l-46.88-81.2-46.9-81.2Z" fill="#fff" fillRule="nonzero" />
</svg>
